0
SECTION
2
HEADER
9
$INSUNITS
70
4
9
$ACADVER
1
AC1014
9
$HANDSEED
5
FFFF
0
ENDSEC
0
SECTION
2
TABLES
0
TABLE
2
VPORT
5
8
100
AcDbSymbolTable
0
ENDTAB
0
TABLE
2
LTYPE
5
5
100
AcDbSymbolTable
0
LTYPE
5
14
100
AcDbSymbolTableRecord
100
AcDbLinetypeTableRecord
2
BYBLOCK
70
0
0
LTYPE
5
15
100
AcDbSymbolTableRecord
100
AcDbLinetypeTableRecord
2
BYLAYER
70
0
0
ENDTAB
0
TABLE
2
LAYER
5
2
100
AcDbSymbolTable
70
2
0
LAYER
5
50
100
AcDbSymbolTableRecord
100
AcDbLayerTableRecord
2
0
70
0
6
CONTINUOUS
0
ENDTAB
0
TABLE
2
STYLE
5
3
100
AcDbSymbolTable
70
1
0
STYLE
5
11
100
AcDbSymbolTableRecord
100
AcDbTextStyleTableRecord
2
STANDARD
70
0
0
ENDTAB
0
TABLE
2
VIEW
5
6
100
AcDbSymbolTable
70
0
0
ENDTAB
0
TABLE
2
UCS
5
7
100
AcDbSymbolTable
70
0
0
ENDTAB
0
TABLE
2
APPID
5
9
100
AcDbSymbolTable
70
2
0
APPID
5
12
100
AcDbSymbolTableRecord
100
AcDbRegAppTableRecord
2
ACAD
70
0
0
ENDTAB
0
TABLE
2
DIMSTYLE
5
A
100
AcDbSymbolTable
70
1
0
ENDTAB
0
TABLE
2
BLOCK_RECORD
5
1
100
AcDbSymbolTable
70
1
0
BLOCK_RECORD
5
1F
100
AcDbSymbolTableRecord
100
AcDbBlockTableRecord
2
*MODEL_SPACE
0
BLOCK_RECORD
5
1B
100
AcDbSymbolTableRecord
100
AcDbBlockTableRecord
2
*PAPER_SPACE
0
ENDTAB
0
ENDSEC
0
SECTION
2
BLOCKS
0
BLOCK
5
20
100
AcDbEntity
100
AcDbBlockBegin
2
*MODEL_SPACE
0
ENDBLK
5
21
100
AcDbEntity
100
AcDbBlockEnd
0
BLOCK
5
1C
100
AcDbEntity
100
AcDbBlockBegin
2
*PAPER_SPACE
0
ENDBLK
5
1D
100
AcDbEntity
100
AcDbBlockEnd
0
ENDSEC
0
SECTION
2
ENTITIES
0
CIRCLE
5
100
100
AcDbEntity
8
0
100
AcDbCircle
10
-126.29977935985515
20
207.37463267938801
30
0
40
3.0000000000000071
0
CIRCLE
5
101
100
AcDbEntity
8
0
100
AcDbCircle
10
-126.29977935985515
20
147.37463267938801
30
0
40
4.0000000000000036
0
ARC
5
102
100
AcDbEntity
8
0
100
AcDbCircle
10
-51.435763078987904
20
147.37463267938799
30
0
40
7.9999999999996749
100
AcDbArc
50
102.75755528661125
51
257.24244454497779
0
ARC
5
103
100
AcDbEntity
8
0
100
AcDbCircle
10
-55.444722925487682
20
167.23038984034895
30
0
40
12.260057562566114
100
AcDbArc
50
280.53866034011799
51
333.7455849936581
0
ARC
5
104
100
AcDbEntity
8
0
100
AcDbCircle
10
-52.926736773079384
20
152.95018075214676
30
0
40
12.260057562566066
100
AcDbArc
50
46.254415006341937
51
99.461339659919659
0
ARC
5
105
100
AcDbEntity
8
0
100
AcDbCircle
10
-55.950615698328114
20
172.97963425770541
30
0
40
7.9999999999996794
100
AcDbArc
50
122.75755528661125
51
277.24244454497767
0
ARC
5
106
100
AcDbEntity
8
0
100
AcDbCircle
10
-66.508874593142494
20
190.26679772069065
30
0
40
12.260057562566109
100
AcDbArc
50
300.53866034011799
51
353.74558499365821
0
ARC
5
107
100
AcDbEntity
8
0
100
AcDbCircle
10
-59.258622427415908
20
177.70899260196592
30
0
40
12.260057562566098
100
AcDbArc
50
66.254415006341887
51
119.46133965991953
0
ARC
5
108
100
AcDbEntity
8
0
100
AcDbCircle
10
-68.950615698328122
20
195.49629475610089
30
0
40
7.999999999999674
100
AcDbArc
50
142.75755528661117
51
297.24244454497773
0
ARC
5
109
100
AcDbEntity
8
0
100
AcDbCircle
10
-84.784691795436856
20
208.12977747611399
30
0
40
12.260057562566111
100
AcDbArc
50
-39.461339659882007
51
13.745584993658092
0
ARC
5
110
100
AcDbEntity
8
0
100
AcDbCircle
10
-73.676661029904494
20
198.80903295764989
30
0
40
12.260057562566104
100
AcDbArc
50
86.254415006341802
51
139.46133965991982
0
ARC
5
111
100
AcDbEntity
8
0
100
AcDbCircle
10
-88.867771219421599
20
212.20877260795092
30
0
40
7.9999999999996767
100
AcDbArc
50
162.75755528661134
51
317.24244454497801
0
ARC
5
112
100
AcDbEntity
8
0
100
AcDbCircle
10
-108.06784125543842
20
218.66479011861082
30
0
40
12.260057562566079
100
AcDbArc
50
-19.461339659882086
51
33.745584993657936
0
ARC
5
113
100
AcDbEntity
8
0
100
AcDbCircle
10
-94.441824337497806
20
213.70532554887276
30
0
40
12.260057562566011
100
AcDbArc
50
106.25441500634176
51
159.46133965991964
0
ARC
5
114
100
AcDbEntity
8
0
100
AcDbCircle
10
-113.29977935985525
20
221.10129633441832
30
0
40
7.9999999999996732
100
AcDbArc
50
182.75755528661134
51
337.2424445449779
0
ARC
5
115
100
AcDbEntity
8
0
100
AcDbCircle
10
-133.55003152558183
20
220.60115764326869
30
0
40
12.260057562566098
100
AcDbArc
50
0.53866034011761632
51
53.745584993658042
0
ARC
5
116
100
AcDbEntity
8
0
100
AcDbCircle
10
-119.04952719412869
20
220.60115764326869
30
0
40
12.260057562566045
100
AcDbArc
50
126.2544150063417
51
179.46133965991962
0
ARC
5
117
100
AcDbEntity
8
0
100
AcDbCircle
10
-139.29977935985536
20
221.10129633441829
30
0
40
7.9999999999996616
100
AcDbArc
50
202.75755528661131
51
357.24244454497801
0
ARC
5
118
100
AcDbEntity
8
0
100
AcDbCircle
10
-158.15773438221274
20
213.70532554887268
30
0
40
12.260057562566081
100
AcDbArc
50
20.538660340118163
51
73.745584993658042
0
ARC
5
119
100
AcDbEntity
8
0
100
AcDbCircle
10
-144.53171746427213
20
218.66479011861082
30
0
40
12.260057562566038
100
AcDbArc
50
146.25441500634184
51
199.4613396599197
0
ARC
5
120
100
AcDbEntity
8
0
100
AcDbCircle
10
-163.73178750028896
20
212.20877260795089
30
0
40
7.9999999999996918
100
AcDbArc
50
-137.24244471338849
51
17.242444544977936
0
ARC
5
121
100
AcDbEntity
8
0
100
AcDbCircle
10
-178.92289768980601
20
198.80903295764989
30
0
40
12.260057562566049
100
AcDbArc
50
40.538660340117723
51
93.745584993657943
0
ARC
5
122
100
AcDbEntity
8
0
100
AcDbCircle
10
-167.81486692427367
20
208.12977747611393
30
0
40
12.26005756256601
100
AcDbArc
50
166.25441500634156
51
219.46133965991982
0
ARC
5
123
100
AcDbEntity
8
0
100
AcDbCircle
10
-183.64894302138239
20
195.49629475610089
30
0
40
7.9999999999996838
100
AcDbArc
50
-117.24244471338858
51
37.24244454497812
0
ARC
5
124
100
AcDbEntity
8
0
100
AcDbCircle
10
-193.3409362922946
20
177.708992601966
30
0
40
12.2600575625661
100
AcDbArc
50
60.53866034011785
51
113.74558499365806
0
ARC
5
125
100
AcDbEntity
8
0
100
AcDbCircle
10
-186.09068412656802
20
190.26679772069073
30
0
40
12.260057562566045
100
AcDbArc
50
186.25441500634182
51
239.4613396599195
0
ARC
5
126
100
AcDbEntity
8
0
100
AcDbCircle
10
-196.64894302138242
20
172.97963425770541
30
0
40
7.9999999999996785
100
AcDbArc
50
-97.242444713388736
51
57.242444544977786
0
ARC
5
127
100
AcDbEntity
8
0
100
AcDbCircle
10
-199.67282194663113
20
152.95018075214676
30
0
40
12.260057562566081
100
AcDbArc
50
80.538660340117858
51
133.74558499365807
0
ARC
5
128
100
AcDbEntity
8
0
100
AcDbCircle
10
-197.15483579422286
20
167.23038984034895
30
0
40
12.260057562566082
100
AcDbArc
50
206.25441500634176
51
259.46133965991953
0
ARC
5
129
100
AcDbEntity
8
0
100
AcDbCircle
10
-201.16379564072261
20
147.37463267938796
30
0
40
7.9999999999996803
100
AcDbArc
50
-77.242444713388622
51
77.242444544977658
0
ARC
5
130
100
AcDbEntity
8
0
100
AcDbCircle
10
-197.15483579422289
20
127.51887551842702
30
0
40
12.260057562566079
100
AcDbArc
50
100.53866034011764
51
153.74558499365804
0
ARC
5
131
100
AcDbEntity
8
0
100
AcDbCircle
10
-199.67282194663113
20
141.79908460662921
30
0
40
12.260057562566125
100
AcDbArc
50
226.25441500634162
51
279.46133965991959
0
ARC
5
132
100
AcDbEntity
8
0
100
AcDbCircle
10
-196.64894302138239
20
121.76963110107046
30
0
40
7.9999999999996749
100
AcDbArc
50
-57.242444713388643
51
97.242444544977744
0
ARC
5
133
100
AcDbEntity
8
0
100
AcDbCircle
10
-186.09068412656802
20
104.4824676380852
30
0
40
12.260057562566104
100
AcDbArc
50
120.53866034011786
51
173.74558499365801
0
ARC
5
134
100
AcDbEntity
8
0
100
AcDbCircle
10
-193.3409362922946
20
117.04027275680993
30
0
40
12.260057562566066
100
AcDbArc
50
246.25441500634176
51
299.4613396599197
0
ARC
5
135
100
AcDbEntity
8
0
100
AcDbCircle
10
-183.64894302138239
20
99.252970602675106
30
0
40
7.9999999999996732
100
AcDbArc
50
-37.242444713388458
51
117.24244454497769
0
ARC
5
136
100
AcDbEntity
8
0
100
AcDbCircle
10
-167.81486692427364
20
86.619487882662014
30
0
40
12.260057562566127
100
AcDbArc
50
140.53866034011779
51
193.7455849936581
0
ARC
5
137
100
AcDbEntity
8
0
100
AcDbCircle
10
-178.92289768980604
20
95.940232401126082
30
0
40
12.260057562566065
100
AcDbArc
50
266.25441500634196
51
319.46133965991942
0
ARC
5
138
100
AcDbEntity
8
0
100
AcDbCircle
10
-163.73178750028893
20
82.54049275082501
30
0
40
7.9999999999996767
100
AcDbArc
50
-17.242444713388586
51
137.24244454497801
0
ARC
5
139
100
AcDbEntity
8
0
100
AcDbCircle
10
-144.53171746427208
20
76.084475240165119
30
0
40
12.260057562566097
100
AcDbArc
50
160.53866034011796
51
213.74558499365801
0
ARC
5
140
100
AcDbEntity
8
0
100
AcDbCircle
10
-158.15773438221268
20
81.043939809903208
30
0
40
12.260057562566054
100
AcDbArc
50
286.25441500634162
51
339.46133965991959
0
ARC
5
141
100
AcDbEntity
8
0
100
AcDbCircle
10
-139.29977935985522
20
73.647969024357593
30
0
40
7.9999999999996732
100
AcDbArc
50
2.7575552866113502
51
157.24244454497793
0
ARC
5
142
100
AcDbEntity
8
0
100
AcDbCircle
10
-119.04952719412864
20
74.148107715507223
30
0
40
12.260057562566098
100
AcDbArc
50
180.53866034011762
51
233.74558499365804
0
ARC
5
143
100
AcDbEntity
8
0
100
AcDbCircle
10
-133.5500315255818
20
74.148107715507223
30
0
40
12.260057562566061
100
AcDbArc
50
306.25441500634179
51
359.46133965992027
0
ARC
5
144
100
AcDbEntity
8
0
100
AcDbCircle
10
-113.29977935985522
20
73.647969024357593
30
0
40
7.9999999999996652
100
AcDbArc
50
22.757555286611414
51
177.24244454497804
0
ARC
5
145
100
AcDbEntity
8
0
100
AcDbCircle
10
-94.441824337497806
20
81.043939809903208
30
0
40
12.260057562566109
100
AcDbArc
50
200.53866034011801
51
253.74558499365804
0
ARC
5
146
100
AcDbEntity
8
0
100
AcDbCircle
10
-108.06784125543842
20
76.084475240165119
30
0
40
12.260057562566057
100
AcDbArc
50
-33.745584993658341
51
19.461339659919673
0
ARC
5
147
100
AcDbEntity
8
0
100
AcDbCircle
10
-88.86777121942157
20
82.540492750825067
30
0
40
7.9999999999996785
100
AcDbArc
50
42.757555286611229
51
197.24244454497781
0
ARC
5
148
100
AcDbEntity
8
0
100
AcDbCircle
10
-73.676661029904523
20
95.940232401126082
30
0
40
12.260057562566073
100
AcDbArc
50
220.53866034011796
51
273.74558499365799
0
ARC
5
149
100
AcDbEntity
8
0
100
AcDbCircle
10
-84.784691795436828
20
86.619487882662014
30
0
40
12.260057562566018
100
AcDbArc
50
-13.745584993658314
51
39.461339659919652
0
ARC
5
150
100
AcDbEntity
8
0
100
AcDbCircle
10
-68.950615698328079
20
99.252970602675106
30
0
40
7.9999999999996767
100
AcDbArc
50
62.757555286611314
51
217.24244454497776
0
ARC
5
151
100
AcDbEntity
8
0
100
AcDbCircle
10
-59.258622427415872
20
117.04027275681
30
0
40
12.260057562566107
100
AcDbArc
50
240.53866034011793
51
293.74558499365804
0
ARC
5
152
100
AcDbEntity
8
0
100
AcDbCircle
10
-66.508874593142451
20
104.48246763808528
30
0
40
12.260057562566061
100
AcDbArc
50
6.2544150063416559
51
59.461339659919602
0
ARC
5
153
100
AcDbEntity
8
0
100
AcDbCircle
10
-55.950615698328043
20
121.76963110107053
30
0
40
7.9999999999996776
100
AcDbArc
50
82.757555286611336
51
237.24244454497776
0
ARC
5
154
100
AcDbEntity
8
0
100
AcDbCircle
10
-52.926736773079384
20
141.79908460662918
30
0
40
12.260057562566093
100
AcDbArc
50
260.53866034011804
51
313.74558499365799
0
ARC
5
155
100
AcDbEntity
8
0
100
AcDbCircle
10
-55.444722925487646
20
127.51887551842701
30
0
40
12.260057562566057
100
AcDbArc
50
26.254415006341741
51
79.461339659919631
0
ENDSEC
0
SECTION
2
OBJECTS
0
DICTIONARY
5
C
100
AcDbDictionary
3
ACAD_GROUP
350
D
3
ACAD_MLINESTYLE
350
17
0
DICTIONARY
5
D
100
AcDbDictionary
0
DICTIONARY
5
1A
330
C
100
AcDbDictionary
0
DICTIONARY
5
17
100
AcDbDictionary
0
ENDSEC
0
EOF
