0
SECTION
2
HEADER
9
$INSUNITS
70
4
9
$ACADVER
1
AC1014
9
$HANDSEED
5
FFFF
0
ENDSEC
0
SECTION
2
TABLES
0
TABLE
2
VPORT
5
8
100
AcDbSymbolTable
0
ENDTAB
0
TABLE
2
LTYPE
5
5
100
AcDbSymbolTable
0
LTYPE
5
14
100
AcDbSymbolTableRecord
100
AcDbLinetypeTableRecord
2
BYBLOCK
70
0
0
LTYPE
5
15
100
AcDbSymbolTableRecord
100
AcDbLinetypeTableRecord
2
BYLAYER
70
0
0
ENDTAB
0
TABLE
2
LAYER
5
2
100
AcDbSymbolTable
70
2
0
LAYER
5
50
100
AcDbSymbolTableRecord
100
AcDbLayerTableRecord
2
0
70
0
6
CONTINUOUS
0
ENDTAB
0
TABLE
2
STYLE
5
3
100
AcDbSymbolTable
70
1
0
STYLE
5
11
100
AcDbSymbolTableRecord
100
AcDbTextStyleTableRecord
2
STANDARD
70
0
0
ENDTAB
0
TABLE
2
VIEW
5
6
100
AcDbSymbolTable
70
0
0
ENDTAB
0
TABLE
2
UCS
5
7
100
AcDbSymbolTable
70
0
0
ENDTAB
0
TABLE
2
APPID
5
9
100
AcDbSymbolTable
70
2
0
APPID
5
12
100
AcDbSymbolTableRecord
100
AcDbRegAppTableRecord
2
ACAD
70
0
0
ENDTAB
0
TABLE
2
DIMSTYLE
5
A
100
AcDbSymbolTable
70
1
0
ENDTAB
0
TABLE
2
BLOCK_RECORD
5
1
100
AcDbSymbolTable
70
1
0
BLOCK_RECORD
5
1F
100
AcDbSymbolTableRecord
100
AcDbBlockTableRecord
2
*MODEL_SPACE
0
BLOCK_RECORD
5
1B
100
AcDbSymbolTableRecord
100
AcDbBlockTableRecord
2
*PAPER_SPACE
0
ENDTAB
0
ENDSEC
0
SECTION
2
BLOCKS
0
BLOCK
5
20
100
AcDbEntity
100
AcDbBlockBegin
2
*MODEL_SPACE
0
ENDBLK
5
21
100
AcDbEntity
100
AcDbBlockEnd
0
BLOCK
5
1C
100
AcDbEntity
100
AcDbBlockBegin
2
*PAPER_SPACE
0
ENDBLK
5
1D
100
AcDbEntity
100
AcDbBlockEnd
0
ENDSEC
0
SECTION
2
ENTITIES
0
LWPOLYLINE
5
100
100
AcDbEntity
8
0
100
AcDbPolyline
90
6
70
1
43
0.0
10
-126.29977935985529
20
138.14813537128424
10
-131.29977935985528
20
135.2613840253361
10
-131.29977935985528
20
129.48788133343984
10
-126.29977935985529
20
126.6011299874917
10
-121.29977935985529
20
129.48788133343984
10
-121.29977935985529
20
135.2613840253361
0
LWPOLYLINE
5
101
100
AcDbEntity
8
0
100
AcDbPolyline
90
6
70
1
43
0.0
10
-139.29016041662186
20
160.64813537128418
10
-144.29016041662186
20
157.76138402533607
10
-144.29016041662186
20
151.98788133343979
10
-139.29016041662186
20
149.10112998749167
10
-134.29016041662186
20
151.98788133343979
10
-134.29016041662186
20
157.76138402533607
0
LWPOLYLINE
5
102
100
AcDbEntity
8
0
100
AcDbPolyline
90
6
70
1
43
0.0
10
-113.30939830308871
20
160.64813537128424
10
-118.30939830308871
20
157.7613840253361
10
-118.30939830308871
20
151.98788133343984
10
-113.30939830308871
20
149.1011299874917
10
-108.30939830308871
20
151.98788133343984
10
-108.30939830308871
20
157.7613840253361
0
LWPOLYLINE
5
103
100
AcDbEntity
8
0
100
AcDbPolyline
90
54
70
1
43
0.0
10
-53.20237147195342
20
139.5721270058304
42
-0.79889613378324698
10
-53.202371449019324
20
155.17713835813822
42
0.23642188611818654
10
-44.449429357787068
20
161.80705776518377
42
0.23642188611835935
10
-54.942070436927686
20
165.04346159982418
42
-0.79889613498666401
10
-60.279298658010767
20
179.70737561974869
42
0.23642188611818674
10
-54.321789550548758
20
188.93114447151919
42
0.23642188611836004
10
-65.288562248555834
20
188.3836746670616
42
-0.79889613498666001
10
-75.319270198167686
20
200.33780690228707
42
0.23642188611818643
10
-72.875757596306187
20
211.04290254692884
42
0.23642188611836035
10
-82.993907273472701
20
206.77759204158448
42
-0.79889613498666201
10
-96.50824353540736
20
214.5800977203406
42
0.23642188611818585
10
-97.873451121336075
20
225.47532763272457
42
0.23642188611836037
10
-105.92257959861044
20
218.00663582271687
42
-0.79889613498666212
10
-121.29051576931737
20
220.71641760742597
42
0.23642188611818618
10
-126.29977935985522
20
230.48765626365048
42
0.23642188611836032
10
-131.30904295039363
20
220.71641760741798
42
-0.79889613498666401
10
-146.67697912110327
20
218.00663582272423
42
0.23642188611818565
10
-154.72610759837443
20
225.47532763272457
42
0.23642188611836007
10
-156.09131518430078
20
214.5800977203329
42
-0.79889613498666123
10
-169.60565144624329
20
206.77759204159031
42
0.23642188611818682
10
-179.72380112340429
20
211.04290254692884
42
0.23642188611836101
10
-177.28028852153795
20
200.33780690228065
42
-0.79889613498665946
10
-187.31099647116184
20
188.38367466706526
42
0.2364218861181861
10
-198.27776916916173
20
188.9311444715193
42
0.23642188611836037
10
-192.32026006169306
20
179.70737561974434
42
-0.79889613498666345
10
-197.65748828279078
20
165.04346159982518
42
0.23642188611818654
10
-208.15012936192349
20
161.8070577651838
42
0.2364218861183606
10
-199.39718727068336
20
155.17713835813646
42
-0.79889613498666234
10
-199.39718727069118
20
139.57212700063772
42
0.23642188611818818
10
-208.15012936192352
20
132.94220759359223
42
0.23642188611836049
10
-197.65748828278282
20
129.7058037589517
42
-0.7988961349866629
10
-192.32026006169974
20
115.0418897390272
42
0.23642188611818662
10
-198.27776916916179
20
105.8181208872567
42
0.23642188611836124
10
-187.31099647115471
20
106.3655906917144
42
-0.79889613498666123
10
-177.28028852154281
20
94.411458456488958
42
0.23642188611818657
10
-179.72380112340434
20
83.706362811847157
42
0.23642188611835985
10
-169.60565144623783
20
87.971673317191446
42
-0.79889613498666234
10
-156.09131518430314
20
80.169167638435326
42
0.23642188611818596
10
-154.72610759837443
20
69.273937726051344
42
0.23642188611836065
10
-146.67697912110003
20
76.74262953605907
42
-0.7988961349866609
10
-131.30904295039312
20
74.032847751349948
42
0.23642188611818657
10
-126.29977935985525
20
64.261609095125436
42
0.23642188611836068
10
-121.29051576931694
20
74.032847751357963
42
-0.79889613498666157
10
-105.92257959860731
20
76.742629536051666
42
0.23642188611818571
10
-97.873451121336146
20
69.273937726051315
42
0.2364218861183609
10
-96.508243535409704
20
80.169167638443042
42
-0.79889613498666234
10
-82.993907273467215
20
87.971673317185619
42
0.23642188611818624
10
-72.875757596306244
20
83.706362811847129
42
0.23642188611836065
10
-75.319270198172504
20
94.411458456495353
42
-0.79889613498666123
10
-65.288562248548615
20
106.36559069171072
42
0.23642188611818618
10
-54.321789550548743
20
105.81812088725671
42
0.23642188611836076
10
-60.279298658017467
20
115.04188973903162
42
-0.79889613498665979
10
-54.942070436919693
20
129.70580375895076
42
0.23642188611818546
10
-44.449429357787047
20
132.94220759359214
42
0.23642188662410582
0
CIRCLE
5
104
100
AcDbEntity
8
0
100
AcDbCircle
10
-126.29977935985528
20
147.37463267938796
30
0
40
4.0000000000000036
0
ENDSEC
0
SECTION
2
OBJECTS
0
DICTIONARY
5
C
100
AcDbDictionary
3
ACAD_GROUP
350
D
3
ACAD_MLINESTYLE
350
17
0
DICTIONARY
5
D
100
AcDbDictionary
0
DICTIONARY
5
1A
330
C
100
AcDbDictionary
0
DICTIONARY
5
17
100
AcDbDictionary
0
ENDSEC
0
EOF
