<svg id="Layer_1" data-name="Layer 1" xmlns="http://www.w3.org/2000/svg" xmlns:xlink="http://www.w3.org/1999/xlink" viewBox="0 0 1638 1128"><defs><style>.cls-1,.cls-10,.cls-11,.cls-12,.cls-14,.cls-6,.cls-8{fill:none;}.cls-2{clip-path:url(#clip-path);}.cls-3{opacity:0.2;}.cls-4{fill-opacity:0;}.cls-5{fill:#6aa84f;}.cls-6{stroke:#000;}.cls-10,.cls-11,.cls-12,.cls-14,.cls-6,.cls-8{stroke-linejoin:round;}.cls-7{fill:#cfe2f3;}.cls-8{stroke:red;}.cls-9{fill:#c27ba0;}.cls-10{stroke:#3c78d8;}.cls-11{stroke:#900;}.cls-12{stroke:#c00;}.cls-13{fill:#ff0;}.cls-14{stroke:#f1c232;}.cls-15{fill:#fff;}</style><clipPath id="clip-path"><rect class="cls-1" width="1638" height="1128"/></clipPath></defs><title>Robot</title><g class="cls-2"><g class="cls-3"><path class="cls-4" d="M0,0H1638V1128H0Z"/><path class="cls-5" d="M726.32,636.25H890.13v70.21H726.32Z"/><path class="cls-6" d="M726.32,636.25H890.13v70.21H726.32Z"/><path d="M736.85,678.27V664.91h9v1.58h-7.25v4.14h6.27v1.58h-6.27v6.06Zm17.72-3.11,1.69.21a4.24,4.24,0,0,1-1.48,2.31,4.49,4.49,0,0,1-2.77.81,4.43,4.43,0,0,1-3.37-1.3,5.1,5.1,0,0,1-1.24-3.67,5.36,5.36,0,0,1,1.25-3.79,4.27,4.27,0,0,1,3.27-1.35,4.09,4.09,0,0,1,3.15,1.33,5.17,5.17,0,0,1,1.24,3.7v.44h-7.22a3.76,3.76,0,0,0,.9,2.45,2.69,2.69,0,0,0,2,.85,2.59,2.59,0,0,0,1.55-.47A3.25,3.25,0,0,0,754.57,675.16Zm-5.39-2.65h5.41a3.17,3.17,0,0,0-.63-1.83,2.47,2.47,0,0,0-2-.95,2.6,2.6,0,0,0-1.9.76A3,3,0,0,0,749.18,672.51Zm15.46,4.58a6.69,6.69,0,0,1-1.77,1.09,5,5,0,0,1-1.8.31,3.52,3.52,0,0,1-2.45-.78,2.72,2.72,0,0,1-.53-3.28,2.65,2.65,0,0,1,.84-.94,4.32,4.32,0,0,1,1.19-.55,14.63,14.63,0,0,1,1.45-.25,14.43,14.43,0,0,0,2.93-.56c0-.23,0-.37,0-.42a1.84,1.84,0,0,0-.47-1.42,2.73,2.73,0,0,0-1.87-.55,2.91,2.91,0,0,0-1.71.41,2.51,2.51,0,0,0-.81,1.42l-1.61-.22a4,4,0,0,1,.72-1.64,3.11,3.11,0,0,1,1.45-1,6.45,6.45,0,0,1,2.19-.35,5.62,5.62,0,0,1,2,.3,2.53,2.53,0,0,1,1.14.73,2.48,2.48,0,0,1,.51,1.11,8.81,8.81,0,0,1,.08,1.52v2.19a22.83,22.83,0,0,0,.11,2.89,3.87,3.87,0,0,0,.41,1.15H765A3.31,3.31,0,0,1,764.64,677.09Zm-.14-3.68a11.64,11.64,0,0,1-2.68.63,5.49,5.49,0,0,0-1.43.33,1.46,1.46,0,0,0-.66.53,1.46,1.46,0,0,0,.28,1.87,2.15,2.15,0,0,0,1.45.44,3.32,3.32,0,0,0,1.68-.41,2.55,2.55,0,0,0,1.09-1.14,3.89,3.89,0,0,0,.27-1.64Zm7.78,3.39.23,1.46a6.53,6.53,0,0,1-1.23.14,2.92,2.92,0,0,1-1.39-.28,1.58,1.58,0,0,1-.69-.74,5.76,5.76,0,0,1-.2-1.94v-5.57h-1.21V668.6H769v-2.39l1.62-1v3.37h1.66v1.27h-1.66v5.67a3.17,3.17,0,0,0,.08.89.88.88,0,0,0,.28.33,1.3,1.3,0,0,0,.58.11A4.5,4.5,0,0,0,772.28,676.8Zm1.6,1.47V664.91h1.64v4.8a3.67,3.67,0,0,1,2.89-1.33,3.87,3.87,0,0,1,1.86.42,2.55,2.55,0,0,1,1.14,1.18,5.35,5.35,0,0,1,.35,2.17v6.12h-1.64v-6.12a2.6,2.6,0,0,0-.53-1.8,2,2,0,0,0-1.52-.56,2.58,2.58,0,0,0-1.36.39,2.19,2.19,0,0,0-.92,1,4.78,4.78,0,0,0-.27,1.79v5.29Zm17-3.11,1.69.21a4.18,4.18,0,0,1-1.48,2.31,4.49,4.49,0,0,1-2.77.81,4.43,4.43,0,0,1-3.37-1.3,5.1,5.1,0,0,1-1.24-3.67,5.36,5.36,0,0,1,1.25-3.79,4.28,4.28,0,0,1,3.27-1.35,4.09,4.09,0,0,1,3.15,1.33,5.17,5.17,0,0,1,1.24,3.7v.44H785.4a3.71,3.71,0,0,0,.91,2.45,2.65,2.65,0,0,0,2,.85,2.57,2.57,0,0,0,1.55-.47A3.25,3.25,0,0,0,790.88,675.16Zm-5.39-2.65h5.41a3.17,3.17,0,0,0-.63-1.83,2.47,2.47,0,0,0-2-.95,2.6,2.6,0,0,0-1.9.76A3,3,0,0,0,785.49,672.51Zm9.13,5.76V668.6h1.47v1.47a4,4,0,0,1,1-1.36,1.85,1.85,0,0,1,1.06-.33,3.24,3.24,0,0,1,1.69.53l-.56,1.52a2.38,2.38,0,0,0-1.21-.36,1.56,1.56,0,0,0-1,.33,1.85,1.85,0,0,0-.61.89,6.45,6.45,0,0,0-.28,1.92v5.06Z"/><path class="cls-7" d="M513.89,441.46h0a9.9,9.9,0,0,1,9.9-9.9h57.58a9.9,9.9,0,0,1,9.9,9.9v39.6a9.9,9.9,0,0,1-9.9,9.9H523.79a9.9,9.9,0,0,1-9.9-9.9Z"/><path class="cls-6" d="M513.89,441.46h0a9.9,9.9,0,0,1,9.9-9.9h57.58a9.9,9.9,0,0,1,9.9,9.9v39.6a9.9,9.9,0,0,1-9.9,9.9H523.79a9.9,9.9,0,0,1-9.9-9.9Z"/><path d="M527.15,468.18V454.82h5a6.15,6.15,0,0,1,2.45.41,3.09,3.09,0,0,1,1.44,1.25,3.2,3.2,0,0,1,.53,1.76,3,3,0,0,1-.47,1.63,3.12,3.12,0,0,1-1.39,1.2,3.49,3.49,0,0,1,1.86,1.22,3.22,3.22,0,0,1,.66,2,3.91,3.91,0,0,1-.41,1.75,3.22,3.22,0,0,1-1,1.23,4.14,4.14,0,0,1-1.45.67,8.92,8.92,0,0,1-2.16.22Zm1.78-7.75h2.87a7.24,7.24,0,0,0,1.69-.14,1.88,1.88,0,0,0,1-.67,2,2,0,0,0,.34-1.17,2,2,0,0,0-.33-1.16,1.57,1.57,0,0,0-.91-.7,7.31,7.31,0,0,0-2-.19h-2.65Zm0,6.17h3.31a8.09,8.09,0,0,0,1.2-.06,2.78,2.78,0,0,0,1-.36,2.09,2.09,0,0,0,.69-.75,2.37,2.37,0,0,0,.26-1.12A2.17,2.17,0,0,0,535,463a2,2,0,0,0-1.06-.77,6.46,6.46,0,0,0-2-.23h-3.08Zm17.16-1.53,1.69.2a4.22,4.22,0,0,1-1.49,2.32,5.07,5.07,0,0,1-6.14-.49,5.15,5.15,0,0,1-1.23-3.67,5.36,5.36,0,0,1,1.25-3.8,4.29,4.29,0,0,1,3.26-1.34,4.07,4.07,0,0,1,3.16,1.33,5.2,5.2,0,0,1,1.23,3.7v.44h-7.21a3.76,3.76,0,0,0,.9,2.45,2.71,2.71,0,0,0,2,.85,2.54,2.54,0,0,0,1.54-.47A3.24,3.24,0,0,0,546.09,465.07Zm-5.39-2.65h5.41a3.29,3.29,0,0,0-.63-1.83,2.5,2.5,0,0,0-2-1,2.63,2.63,0,0,0-1.91.77A3,3,0,0,0,540.7,462.42Zm9.09,5.76V454.82h1.64v13.36Zm7.77-1.47.24,1.46a6.53,6.53,0,0,1-1.24.14,2.85,2.85,0,0,1-1.39-.29,1.54,1.54,0,0,1-.68-.73,5.68,5.68,0,0,1-.21-1.94v-5.58h-1.2v-1.26h1.2v-2.39l1.63-1v3.38h1.65v1.26h-1.65v5.68a2.82,2.82,0,0,0,.08.89.8.8,0,0,0,.28.33,1.24,1.24,0,0,0,.57.1A5.73,5.73,0,0,0,557.56,466.71Z"/><path class="cls-7" d="M472.32,651.55h0a9.9,9.9,0,0,1,9.9-9.9h57.59a9.9,9.9,0,0,1,9.9,9.9v39.6a9.9,9.9,0,0,1-9.9,9.9H482.22a9.9,9.9,0,0,1-9.9-9.9Z"/><path class="cls-6" d="M472.32,651.55h0a9.9,9.9,0,0,1,9.9-9.9h57.59a9.9,9.9,0,0,1,9.9,9.9v39.6a9.9,9.9,0,0,1-9.9,9.9H482.22a9.9,9.9,0,0,1-9.9-9.9Z"/><path d="M495.19,673.59,497,674a6,6,0,0,1-2,3.33,5.48,5.48,0,0,1-3.53,1.14,6.32,6.32,0,0,1-3.51-.88,5.64,5.64,0,0,1-2.07-2.54,9.39,9.39,0,0,1-.7-3.6,7.82,7.82,0,0,1,.8-3.62,5.43,5.43,0,0,1,2.26-2.36,6.7,6.7,0,0,1,3.25-.82,5.41,5.41,0,0,1,3.36,1,5.22,5.22,0,0,1,1.91,2.88L495,669a4.15,4.15,0,0,0-1.36-2.11,3.52,3.52,0,0,0-2.21-.67,4.41,4.41,0,0,0-2.58.73,4,4,0,0,0-1.45,2,7.9,7.9,0,0,0-.42,2.56,8.1,8.1,0,0,0,.5,3,3.8,3.8,0,0,0,1.55,1.91,4.37,4.37,0,0,0,2.26.62,3.78,3.78,0,0,0,2.52-.86A4.35,4.35,0,0,0,495.19,673.59Zm3.69,4.68V664.91h1.64v13.36Zm10.5-1.18a6.5,6.5,0,0,1-1.76,1.09,5,5,0,0,1-1.8.31,3.52,3.52,0,0,1-2.45-.78,2.72,2.72,0,0,1-.53-3.28,2.65,2.65,0,0,1,.84-.94,4.32,4.32,0,0,1,1.19-.55,14.63,14.63,0,0,1,1.45-.25,14.16,14.16,0,0,0,2.92-.56c0-.23,0-.37,0-.42a1.84,1.84,0,0,0-.47-1.42,2.75,2.75,0,0,0-1.87-.55,2.91,2.91,0,0,0-1.71.41,2.51,2.51,0,0,0-.81,1.42l-1.61-.22a4,4,0,0,1,.72-1.64,3.11,3.11,0,0,1,1.45-1,6.45,6.45,0,0,1,2.19-.35,5.66,5.66,0,0,1,2,.3,2.53,2.53,0,0,1,1.14.73,2.48,2.48,0,0,1,.51,1.11,10,10,0,0,1,.08,1.52v2.19a22.83,22.83,0,0,0,.11,2.89,3.87,3.87,0,0,0,.41,1.15h-1.71A3.53,3.53,0,0,1,509.38,677.09Zm-.14-3.68a11.4,11.4,0,0,1-2.67.63,5.7,5.7,0,0,0-1.44.33,1.43,1.43,0,0,0-.65.53,1.46,1.46,0,0,0,.28,1.87,2.15,2.15,0,0,0,1.45.44,3.26,3.26,0,0,0,1.67-.41,2.57,2.57,0,0,0,1.1-1.14,3.92,3.92,0,0,0,.26-1.64Zm6,4.86-3-9.67H514l1.53,5.58.58,2.08c0-.11.2-.77.5-2l1.55-5.66h1.69l1.43,5.61.49,1.84.56-1.86L524,668.6h1.59l-3,9.67h-1.7l-1.53-5.79-.38-1.64L517,678.27Z"/><path class="cls-7" d="M568.77,680.35l20.71-20.71V670H707.26V690.7H589.48v10.35Z"/><path class="cls-6" d="M568.77,680.35l20.71-20.71V670H707.26V690.7H589.48v10.35Z"/><path d="M621,687.27V673.91h1.76v13.36Zm12.84-1.58v1.58H625a3,3,0,0,1,.19-1.15,6.11,6.11,0,0,1,1.07-1.78,17.09,17.09,0,0,1,2.16-2,18,18,0,0,0,2.94-2.83,3.38,3.38,0,0,0,.76-2,2.14,2.14,0,0,0-.7-1.64,2.47,2.47,0,0,0-1.81-.67,2.59,2.59,0,0,0-1.91.72,2.63,2.63,0,0,0-.7,1.95l-1.69-.17a4.15,4.15,0,0,1,1.3-2.88,4.5,4.5,0,0,1,3-1,4.26,4.26,0,0,1,3,1.06,3.48,3.48,0,0,1,1.12,2.64,4,4,0,0,1-.33,1.58,6,6,0,0,1-1.09,1.64,27.71,27.71,0,0,1-2.53,2.34c-1,.83-1.61,1.39-1.89,1.69a5.3,5.3,0,0,0-.69.88Zm12-3.11,1.77.45a6.14,6.14,0,0,1-2,3.33A5.53,5.53,0,0,1,642,687.5a6.32,6.32,0,0,1-3.51-.88,5.62,5.62,0,0,1-2.06-2.54,9.18,9.18,0,0,1-.71-3.6,7.82,7.82,0,0,1,.8-3.62,5.4,5.4,0,0,1,2.27-2.36,6.64,6.64,0,0,1,3.25-.81,5.46,5.46,0,0,1,3.35,1,5.22,5.22,0,0,1,1.91,2.88l-1.73.4a4.2,4.2,0,0,0-1.36-2.11,3.58,3.58,0,0,0-2.21-.67,4.29,4.29,0,0,0-2.57.74,3.89,3.89,0,0,0-1.46,2,7.9,7.9,0,0,0-.42,2.56,8.1,8.1,0,0,0,.5,3,3.75,3.75,0,0,0,1.55,1.91,4.3,4.3,0,0,0,2.26.62,3.78,3.78,0,0,0,2.52-.86A4.35,4.35,0,0,0,645.75,682.58Z"/><path class="cls-7" d="M900.2,671.35l20.71-20.71V661h117.78v20.71H920.91v10.35Z"/><path class="cls-6" d="M900.2,671.35l20.71-20.71V661h117.78v20.71H920.91v10.35Z"/><path d="M952.39,678.27V664.91h1.77v13.36Zm12.84-1.58v1.58H956.4a3.18,3.18,0,0,1,.19-1.14,6.24,6.24,0,0,1,1.08-1.78,17.09,17.09,0,0,1,2.16-2,18.24,18.24,0,0,0,2.93-2.83,3.43,3.43,0,0,0,.77-2,2.18,2.18,0,0,0-.7-1.64,2.49,2.49,0,0,0-1.82-.67,2.6,2.6,0,0,0-1.9.71,2.65,2.65,0,0,0-.71,2l-1.68-.17a4.14,4.14,0,0,1,1.29-2.88,4.45,4.45,0,0,1,3-1,4.24,4.24,0,0,1,3.05,1.06,3.49,3.49,0,0,1,1.13,2.64,4,4,0,0,1-.33,1.58,6.11,6.11,0,0,1-1.1,1.64,26.4,26.4,0,0,1-2.53,2.34c-1,.83-1.61,1.39-1.89,1.69a5.25,5.25,0,0,0-.69.87Zm12-3.1L979,674a6,6,0,0,1-2,3.33,5.5,5.5,0,0,1-3.53,1.14,6.36,6.36,0,0,1-3.52-.88,5.69,5.69,0,0,1-2.06-2.54,9.2,9.2,0,0,1-.7-3.6,7.7,7.7,0,0,1,.8-3.62,5.38,5.38,0,0,1,2.26-2.36,6.68,6.68,0,0,1,3.25-.82,5.45,5.45,0,0,1,3.36,1,5.27,5.27,0,0,1,1.91,2.88L977,669a4,4,0,0,0-1.36-2.11,3.47,3.47,0,0,0-2.2-.67,4.41,4.41,0,0,0-2.58.73,3.9,3.9,0,0,0-1.45,2,8.55,8.55,0,0,0,.08,5.53,3.83,3.83,0,0,0,1.54,1.91,4.43,4.43,0,0,0,2.27.62,3.73,3.73,0,0,0,2.51-.86A4.36,4.36,0,0,0,977.19,673.59Z"/><path class="cls-7" d="M1162.59,671.35l20.71-20.71V661h75.64v20.71H1183.3v10.35Z"/><path class="cls-6" d="M1162.59,671.35l20.71-20.71V661h75.64v20.71H1183.3v10.35Z"/><path d="M1214.78,678.27V664.91h1.76v13.36Zm12.84-1.58v1.58h-8.83a3,3,0,0,1,.19-1.14,6.2,6.2,0,0,1,1.07-1.78,17.09,17.09,0,0,1,2.16-2,18,18,0,0,0,2.94-2.83,3.41,3.41,0,0,0,.76-2,2.14,2.14,0,0,0-.7-1.64,2.47,2.47,0,0,0-1.81-.67,2.44,2.44,0,0,0-2.61,2.67l-1.69-.17a4.19,4.19,0,0,1,1.3-2.88,4.45,4.45,0,0,1,3-1,4.26,4.26,0,0,1,3,1.06,3.48,3.48,0,0,1,1.12,2.64,4,4,0,0,1-.33,1.58,6,6,0,0,1-1.09,1.64,26.4,26.4,0,0,1-2.53,2.34c-1,.83-1.61,1.39-1.89,1.69a5.25,5.25,0,0,0-.69.87Zm12-3.1,1.77.45a6.14,6.14,0,0,1-2,3.33,5.52,5.52,0,0,1-3.53,1.14,6.36,6.36,0,0,1-3.52-.88,5.62,5.62,0,0,1-2.06-2.54,9.21,9.21,0,0,1-.71-3.6,7.82,7.82,0,0,1,.8-3.62,5.4,5.4,0,0,1,2.27-2.36,6.68,6.68,0,0,1,3.25-.82,5.45,5.45,0,0,1,3.36,1,5.25,5.25,0,0,1,1.9,2.88l-1.73.4a4.09,4.09,0,0,0-1.36-2.11,3.51,3.51,0,0,0-2.2-.67,4.37,4.37,0,0,0-2.58.73,4,4,0,0,0-1.46,2,7.9,7.9,0,0,0-.42,2.56,8.1,8.1,0,0,0,.5,3,3.85,3.85,0,0,0,1.55,1.91,4.39,4.39,0,0,0,2.26.62,3.78,3.78,0,0,0,2.52-.86A4.35,4.35,0,0,0,1239.57,673.59Z"/><path class="cls-7" d="M1163.22,756.18l20.71-20.71v10.35h75.64v20.71h-75.64v10.36Z"/><path class="cls-6" d="M1163.22,756.18l20.71-20.71v10.35h75.64v20.71h-75.64v10.36Z"/><path d="M1215.41,763.1V749.74h1.76V763.1Zm12.84-1.58v1.58h-8.83a2.91,2.91,0,0,1,.19-1.14,6.07,6.07,0,0,1,1.07-1.78,16.36,16.36,0,0,1,2.16-2,18,18,0,0,0,2.94-2.83,3.38,3.38,0,0,0,.76-2,2.16,2.16,0,0,0-.7-1.64,2.47,2.47,0,0,0-1.81-.67,2.59,2.59,0,0,0-1.91.72,2.63,2.63,0,0,0-.7,2l-1.69-.17a4.14,4.14,0,0,1,1.3-2.87,4.46,4.46,0,0,1,3-1,4.3,4.3,0,0,1,3,1.06,3.48,3.48,0,0,1,1.12,2.64,4,4,0,0,1-.33,1.58,6,6,0,0,1-1.09,1.64,25,25,0,0,1-2.53,2.35q-1.47,1.23-1.89,1.68a5.75,5.75,0,0,0-.69.88Zm12-3.11,1.77.45a6.14,6.14,0,0,1-2,3.33,5.52,5.52,0,0,1-3.53,1.14,6.44,6.44,0,0,1-3.52-.87,5.7,5.7,0,0,1-2.06-2.55,9.13,9.13,0,0,1-.71-3.59,7.83,7.83,0,0,1,.8-3.63,5.4,5.4,0,0,1,2.27-2.36,6.67,6.67,0,0,1,3.25-.81,5.51,5.51,0,0,1,3.36,1,5.25,5.25,0,0,1,1.9,2.88l-1.73.41a4,4,0,0,0-1.36-2.11,3.52,3.52,0,0,0-2.2-.68,4.3,4.3,0,0,0-2.58.74,4,4,0,0,0-1.46,2,8,8,0,0,0-.42,2.57,8.08,8.08,0,0,0,.5,3,3.8,3.8,0,0,0,1.55,1.91,4.31,4.31,0,0,0,2.26.63,3.83,3.83,0,0,0,2.52-.86A4.41,4.41,0,0,0,1240.2,758.41Z"/><path class="cls-7" d="M1163.22,841l20.71-20.71v10.36h75.64v20.71h-75.64v10.35Z"/><path class="cls-6" d="M1163.22,841l20.71-20.71v10.36h75.64v20.71h-75.64v10.35Z"/><path d="M1215.41,847.92V834.56h1.76v13.36Zm12.84-1.58v1.58h-8.83a3,3,0,0,1,.19-1.14,6.2,6.2,0,0,1,1.07-1.78,17.06,17.06,0,0,1,2.16-2,18,18,0,0,0,2.94-2.82,3.41,3.41,0,0,0,.76-2,2.13,2.13,0,0,0-.7-1.64,2.48,2.48,0,0,0-1.81-.68,2.59,2.59,0,0,0-1.91.72,2.64,2.64,0,0,0-.7,2l-1.69-.18a4.16,4.16,0,0,1,1.3-2.87,4.45,4.45,0,0,1,3-1,4.26,4.26,0,0,1,3,1.06,3.48,3.48,0,0,1,1.12,2.64,4,4,0,0,1-.33,1.58,6.2,6.2,0,0,1-1.09,1.64,26.4,26.4,0,0,1-2.53,2.34c-1,.82-1.61,1.39-1.89,1.69a5.25,5.25,0,0,0-.69.87Zm12-3.11,1.77.46a6.21,6.21,0,0,1-2,3.33,5.52,5.52,0,0,1-3.53,1.14,6.44,6.44,0,0,1-3.52-.88,5.6,5.6,0,0,1-2.06-2.55,9.13,9.13,0,0,1-.71-3.59,7.79,7.79,0,0,1,.8-3.62,5.35,5.35,0,0,1,2.27-2.36,6.57,6.57,0,0,1,3.25-.82,5.45,5.45,0,0,1,3.36,1,5.23,5.23,0,0,1,1.9,2.87l-1.73.41a4.09,4.09,0,0,0-1.36-2.11,3.51,3.51,0,0,0-2.2-.67,4.3,4.3,0,0,0-2.58.73,3.93,3.93,0,0,0-1.46,2,7.85,7.85,0,0,0-.42,2.56,8.1,8.1,0,0,0,.5,3A3.85,3.85,0,0,0,1234,846a4.39,4.39,0,0,0,2.26.62,3.83,3.83,0,0,0,2.52-.86A4.34,4.34,0,0,0,1240.2,843.23Z"/><path class="cls-7" d="M1037.93,431.56h125.42V491H1037.93Z"/><path class="cls-6" d="M1037.93,431.56h125.42V491H1037.93Z"/><path d="M1048.29,457.18V443.82h1.78V455.6h6.56v1.58Zm9.64-4.84a5,5,0,0,1,1.49-4,4.49,4.49,0,0,1,3-1.08,4.35,4.35,0,0,1,3.27,1.31,5,5,0,0,1,1.26,3.61,6.36,6.36,0,0,1-.56,2.94,4,4,0,0,1-1.64,1.66,4.75,4.75,0,0,1-2.33.59,4.35,4.35,0,0,1-3.28-1.3A5.25,5.25,0,0,1,1057.93,452.34Zm1.69,0a4.2,4.2,0,0,0,.8,2.79,2.69,2.69,0,0,0,4.07,0,4.19,4.19,0,0,0,.82-2.84,4,4,0,0,0-.82-2.72,2.71,2.71,0,0,0-4.07,0A4.13,4.13,0,0,0,1059.62,452.34Zm9,5.64,1.59.23a1.53,1.53,0,0,0,.56,1.08,2.76,2.76,0,0,0,1.67.45,2.9,2.9,0,0,0,1.75-.45A2.21,2.21,0,0,0,1075,458a10.7,10.7,0,0,0,.11-2.1,3.36,3.36,0,0,1-2.68,1.26,3.66,3.66,0,0,1-3.09-1.44,5.51,5.51,0,0,1-1.09-3.45,6.32,6.32,0,0,1,.5-2.56,4.09,4.09,0,0,1,1.45-1.8,3.94,3.94,0,0,1,2.25-.64,3.45,3.45,0,0,1,2.81,1.38v-1.16h1.52v8.36a7.78,7.78,0,0,1-.47,3.2,3.36,3.36,0,0,1-1.45,1.49,5.09,5.09,0,0,1-2.46.54,4.65,4.65,0,0,1-2.79-.78A2.6,2.6,0,0,1,1068.61,458Zm1.35-5.81a4.24,4.24,0,0,0,.75,2.78,2.44,2.44,0,0,0,1.91.87,2.41,2.41,0,0,0,1.89-.86,4.06,4.06,0,0,0,.77-2.73,3.89,3.89,0,0,0-.8-2.67,2.4,2.4,0,0,0-3.75,0A3.9,3.9,0,0,0,1070,452.17Zm9.33-6.46v-1.89h1.64v1.89Zm0,11.47v-9.67h1.64v9.67Zm10.46-3.55,1.61.22a4.19,4.19,0,0,1-1.36,2.61,3.91,3.91,0,0,1-2.67.94,4.13,4.13,0,0,1-3.19-1.3,5.27,5.27,0,0,1-1.2-3.72,6.88,6.88,0,0,1,.51-2.75,3.6,3.6,0,0,1,1.58-1.75,4.73,4.73,0,0,1,2.31-.59,4,4,0,0,1,2.58.8,3.58,3.58,0,0,1,1.28,2.26l-1.59.24a2.72,2.72,0,0,0-.81-1.46,2.08,2.08,0,0,0-1.39-.5,2.57,2.57,0,0,0-2,.89,4.24,4.24,0,0,0-.78,2.82,4.37,4.37,0,0,0,.75,2.84,2.46,2.46,0,0,0,2,.88,2.25,2.25,0,0,0,1.61-.6A2.86,2.86,0,0,0,1089.75,453.63Zm8.4,3.55V443.82h5a11.65,11.65,0,0,1,2,.13,3.89,3.89,0,0,1,1.64.64,3.18,3.18,0,0,1,1.08,1.28,4.33,4.33,0,0,1-.69,4.72c-.72.78-2,1.17-3.92,1.17h-3.42v5.42Zm1.77-7h3.45a3.64,3.64,0,0,0,2.44-.64,2.29,2.29,0,0,0,.72-1.8,2.39,2.39,0,0,0-.42-1.43,2,2,0,0,0-1.13-.79,7.32,7.32,0,0,0-1.64-.12h-3.42Zm9.86,2.16a5,5,0,0,1,1.49-4,4.49,4.49,0,0,1,3-1.08,4.35,4.35,0,0,1,3.27,1.31,5,5,0,0,1,1.27,3.61,6.35,6.35,0,0,1-.57,2.94,4,4,0,0,1-1.64,1.66,4.75,4.75,0,0,1-2.33.59,4.35,4.35,0,0,1-3.28-1.3A5.25,5.25,0,0,1,1109.78,452.34Zm1.69,0a4.2,4.2,0,0,0,.8,2.79,2.7,2.7,0,0,0,4.08,0,4.24,4.24,0,0,0,.81-2.84,4,4,0,0,0-.81-2.72,2.72,2.72,0,0,0-4.08,0A4.13,4.13,0,0,0,1111.47,452.34Zm11.08,4.84-3-9.67h1.7l1.54,5.58.57,2.08c0-.11.2-.78.5-2l1.55-5.66h1.69l1.44,5.61.48,1.84.56-1.86,1.66-5.59h1.59l-3,9.67h-1.7l-1.53-5.8-.38-1.64-2,7.44Zm18.32-3.11,1.68.2a4.21,4.21,0,0,1-1.48,2.32,5.07,5.07,0,0,1-6.14-.49,5.16,5.16,0,0,1-1.24-3.67,5.41,5.41,0,0,1,1.25-3.8,4.33,4.33,0,0,1,3.27-1.34,4.09,4.09,0,0,1,3.16,1.33,5.2,5.2,0,0,1,1.23,3.7v.44h-7.22a3.76,3.76,0,0,0,.91,2.45,2.69,2.69,0,0,0,2,.85,2.57,2.57,0,0,0,1.55-.47A3.24,3.24,0,0,0,1140.87,454.07Zm-5.39-2.65h5.4a3.22,3.22,0,0,0-.62-1.83,2.5,2.5,0,0,0-2-1,2.63,2.63,0,0,0-1.91.77A3,3,0,0,0,1135.48,451.42Zm9.12,5.76v-9.67h1.47V449a4.16,4.16,0,0,1,1-1.36,1.85,1.85,0,0,1,1.06-.33,3.21,3.21,0,0,1,1.69.53l-.56,1.52a2.37,2.37,0,0,0-1.2-.36,1.52,1.52,0,0,0-1,.33,1.74,1.74,0,0,0-.61.89,6.14,6.14,0,0,0-.28,1.92v5.06Z"/><path d="M1047.71,475.68l1.72-.14a3.16,3.16,0,0,0,.88,1.89,2.44,2.44,0,0,0,1.68.63,2.6,2.6,0,0,0,2-.89,3.3,3.3,0,0,0,.83-2.36,3,3,0,0,0-.79-2.22,2.76,2.76,0,0,0-2.07-.82,2.86,2.86,0,0,0-1.42.36,2.75,2.75,0,0,0-1,.94l-1.55-.2,1.3-6.86h6.64v1.56h-5.33l-.72,3.6a4.32,4.32,0,0,1,2.52-.85,4,4,0,0,1,2.95,1.22,4.18,4.18,0,0,1,1.21,3.11,4.9,4.9,0,0,1-1,3.14,4.7,4.7,0,0,1-6.48.61A4,4,0,0,1,1047.71,475.68Zm14.85,3.5-5.17-13.36h1.92l3.47,9.7c.28.79.51,1.52.7,2.19q.32-1.09.72-2.19l3.61-9.7h1.79l-5.23,13.36Z"/><path class="cls-4" d="M1100.64,491,1106,646.58"/><path class="cls-8" d="M1100.64,491,1106,646.58"/><path class="cls-4" d="M1037.93,461.26H851.88"/><path class="cls-8" d="M1037.93,461.26H851.88"/><path class="cls-4" d="M753.39,461.26H591.28"/><path class="cls-8" d="M753.39,461.26H591.28"/><path class="cls-4" d="M1037.93,461.26,549.71,671.34"/><path class="cls-8" d="M1037.93,461.26,549.71,671.34"/><path class="cls-7" d="M591.83,490l29.26,1.11-7.59,7L730,623.87,714.85,638,598.32,512.22l-7.59,7Z"/><path class="cls-6" d="M591.83,490l29.26,1.11-7.59,7L730,623.87,714.85,638,598.32,512.22l-7.59,7Z"/><path d="M622.23,533l9.8-9.08,1.2,1.29-9.8,9.09Zm9.89,8.35L631,542.39l-6-6.48a2.91,2.91,0,0,1,1-.63,5.87,5.87,0,0,1,2-.42,17.07,17.07,0,0,1,2.95.21,18.28,18.28,0,0,0,4.07.23,3.36,3.36,0,0,0,2-.78,2.19,2.19,0,0,0,.73-1.63,2.52,2.52,0,0,0-.74-1.79,2.61,2.61,0,0,0-1.83-.91,2.67,2.67,0,0,0-1.91.82l-1-1.36a4.12,4.12,0,0,1,3-1,4.46,4.46,0,0,1,2.78,1.55,4.24,4.24,0,0,1,1.3,3,3.5,3.5,0,0,1-1.17,2.62,4,4,0,0,1-1.38.83,6,6,0,0,1-2,.32,28,28,0,0,1-3.44-.27q-1.9-.24-2.52-.24a6.23,6.23,0,0,0-1.11.09Zm10.4,6.65.87,1.6a6,6,0,0,1-3.8.8,5.49,5.49,0,0,1-3.23-1.82,6.37,6.37,0,0,1-1.75-3.17,5.63,5.63,0,0,1,.46-3.24,9.1,9.1,0,0,1,2.16-3,7.72,7.72,0,0,1,3.2-1.88,5.44,5.44,0,0,1,3.27.05,6.72,6.72,0,0,1,2.81,1.83,5.49,5.49,0,0,1,1.53,3.16,5.19,5.19,0,0,1-.81,3.35l-1.47-1a4.17,4.17,0,0,0,.62-2.44,3.54,3.54,0,0,0-1-2.07,4.34,4.34,0,0,0-2.29-1.39,3.9,3.9,0,0,0-2.44.28,7.82,7.82,0,0,0-2.17,1.44,8,8,0,0,0-1.83,2.38,3.74,3.74,0,0,0-.35,2.43,4.38,4.38,0,0,0,1.08,2.09,3.74,3.74,0,0,0,2.34,1.26A4.37,4.37,0,0,0,642.52,548Z"/><path class="cls-5" d="M753.39,441.46h0a15.3,15.3,0,0,1,15.3-15.3h67.89a15.3,15.3,0,0,1,15.3,15.3v39.6a15.3,15.3,0,0,1-15.3,15.3H768.69a15.3,15.3,0,0,1-15.3-15.3Z"/><path class="cls-6" d="M753.39,441.46h0a15.3,15.3,0,0,1,15.3-15.3h67.89a15.3,15.3,0,0,1,15.3,15.3v39.6a15.3,15.3,0,0,1-15.3,15.3H768.69a15.3,15.3,0,0,1-15.3-15.3Z"/><path d="M768.31,457.18V443.82h4.61a10.19,10.19,0,0,1,2.37.21,4.25,4.25,0,0,1,2,1,5.24,5.24,0,0,1,1.58,2.28,8.71,8.71,0,0,1,.53,3.17,9.41,9.41,0,0,1-.36,2.71,6.08,6.08,0,0,1-.92,1.93,4.81,4.81,0,0,1-1.2,1.22,5,5,0,0,1-1.59.67,9.26,9.26,0,0,1-2.14.22Zm1.76-1.58h2.86a7,7,0,0,0,2.06-.23,3.09,3.09,0,0,0,1.21-.7,4.25,4.25,0,0,0,1-1.69,8.11,8.11,0,0,0,.36-2.58,6.21,6.21,0,0,0-.69-3.22,3.45,3.45,0,0,0-1.67-1.5,6.62,6.62,0,0,0-2.28-.28h-2.82Zm11.49,1.58v-9.67H783V449a4.16,4.16,0,0,1,1-1.36,1.85,1.85,0,0,1,1.06-.33,3.21,3.21,0,0,1,1.69.53l-.56,1.52a2.37,2.37,0,0,0-1.2-.36,1.52,1.52,0,0,0-1,.33,1.78,1.78,0,0,0-.61.89,6.14,6.14,0,0,0-.28,1.92v5.06Zm6.23-11.47v-1.89h1.64v1.89Zm0,11.47v-9.67h1.64v9.67Zm6.83,0-3.69-9.67h1.74l2.08,5.8c.22.62.42,1.27.62,1.93.14-.51.34-1.11.61-1.82l2.14-5.91h1.69l-3.66,9.67Zm13.27-3.11,1.69.21a4.25,4.25,0,0,1-1.49,2.31,5.07,5.07,0,0,1-6.14-.49,5.14,5.14,0,0,1-1.23-3.67,5.32,5.32,0,0,1,1.25-3.79,4.26,4.26,0,0,1,3.26-1.35,4.08,4.08,0,0,1,3.16,1.33,5.2,5.2,0,0,1,1.23,3.7v.44H802.4a3.81,3.81,0,0,0,.91,2.45,2.66,2.66,0,0,0,2,.85,2.54,2.54,0,0,0,1.54-.47A3.19,3.19,0,0,0,807.89,454.07Zm-5.39-2.65h5.4a3.22,3.22,0,0,0-.62-1.83,2.49,2.49,0,0,0-2-.95,2.62,2.62,0,0,0-1.91.76A3,3,0,0,0,802.5,451.42Z"/><path d="M766.84,479.18,772,465.82h1.91l5.47,13.36h-2l-1.54-4h-5.6l-1.47,4Zm3.86-5.48h4.53L773.82,470c-.41-1.12-.73-2-.93-2.76a20.28,20.28,0,0,1-.72,2.55Zm9.83,5.48v-9.67H782V471a4.16,4.16,0,0,1,1-1.36,1.87,1.87,0,0,1,1.06-.33,3.21,3.21,0,0,1,1.69.53l-.56,1.52A2.37,2.37,0,0,0,784,471a1.52,1.52,0,0,0-1,.33,1.78,1.78,0,0,0-.61.89,6.14,6.14,0,0,0-.28,1.92v5.06Zm12.5,0V478a3,3,0,0,1-2.71,1.44,3.72,3.72,0,0,1-2.12-.64,4.17,4.17,0,0,1-1.5-1.78,6.09,6.09,0,0,1-.53-2.63,6.87,6.87,0,0,1,.48-2.62,3.75,3.75,0,0,1,1.44-1.81,3.88,3.88,0,0,1,2.17-.63,3.15,3.15,0,0,1,1.55.38,3,3,0,0,1,1.11.95v-4.8h1.64v13.36Zm-5.18-4.83a4.2,4.2,0,0,0,.79,2.79,2.35,2.35,0,0,0,1.84.92,2.31,2.31,0,0,0,1.83-.88,4.09,4.09,0,0,0,.75-2.69,4.49,4.49,0,0,0-.77-2.9,2.34,2.34,0,0,0-1.89-.94,2.27,2.27,0,0,0-1.81.89A4.39,4.39,0,0,0,787.85,474.35Zm15.61,4.83v-1.42a3.53,3.53,0,0,1-3.06,1.64,4,4,0,0,1-1.61-.33,2.57,2.57,0,0,1-1.09-.83,3,3,0,0,1-.5-1.21,7.88,7.88,0,0,1-.11-1.54v-6h1.64v5.36a9.05,9.05,0,0,0,.11,1.73,1.7,1.7,0,0,0,.66,1,2,2,0,0,0,1.23.37,2.7,2.7,0,0,0,1.38-.37,2.18,2.18,0,0,0,.92-1,5.45,5.45,0,0,0,.26-1.89v-5.19h1.64v9.67Zm4-11.47v-1.89h1.64v1.89Zm0,11.47v-9.67h1.64v9.67Zm4.15,0v-9.67h1.47v1.38a3.44,3.44,0,0,1,3.07-1.6,4.2,4.2,0,0,1,1.61.31,2.53,2.53,0,0,1,1.1.83,2.94,2.94,0,0,1,.51,1.21,8.2,8.2,0,0,1,.1,1.59v5.95h-1.64v-5.89a3.93,3.93,0,0,0-.21-1.48,1.54,1.54,0,0,0-.67-.8,2.11,2.11,0,0,0-1.14-.3,2.64,2.64,0,0,0-1.81.68,3.25,3.25,0,0,0-.75,2.51v5.28Zm9.76-4.84a5,5,0,0,1,1.49-4,4.49,4.49,0,0,1,3-1.08,4.35,4.35,0,0,1,3.27,1.31,5,5,0,0,1,1.27,3.61,6.35,6.35,0,0,1-.57,2.94,4,4,0,0,1-1.64,1.66,4.75,4.75,0,0,1-2.33.59,4.35,4.35,0,0,1-3.28-1.3A5.25,5.25,0,0,1,821.42,474.34Zm1.69,0a4.25,4.25,0,0,0,.8,2.8,2.72,2.72,0,0,0,4.08,0,4.29,4.29,0,0,0,.81-2.85,4,4,0,0,0-.81-2.72,2.72,2.72,0,0,0-4.08,0A4.13,4.13,0,0,0,823.11,474.34Z"/><path class="cls-4" d="M1037.93,461.26l-229.7,175"/><path class="cls-8" d="M1037.93,461.26l-229.7,175"/><path class="cls-7" d="M1283.23,805.9h89.53v58.5a11.7,11.7,0,0,1-11.71,11.7h-89.52V817.6h0A11.7,11.7,0,0,1,1283.23,805.9Z"/><path class="cls-6" d="M1283.23,805.9h89.53v58.5a11.7,11.7,0,0,1-11.71,11.7h-89.52V817.6h0A11.7,11.7,0,0,1,1283.23,805.9Z"/><path d="M1284.8,843.62l1.65-.14a3.87,3.87,0,0,0,.55,1.64,3.07,3.07,0,0,0,1.35,1,5.62,5.62,0,0,0,3.84.1,2.46,2.46,0,0,0,1.16-.82,2,2,0,0,0,.37-1.15,1.72,1.72,0,0,0-.37-1.1,2.69,2.69,0,0,0-1.19-.79,24.5,24.5,0,0,0-2.39-.64,13,13,0,0,1-2.57-.85,3.58,3.58,0,0,1-1.43-1.23,3,3,0,0,1-.47-1.67,3.31,3.31,0,0,1,.58-1.88,3.51,3.51,0,0,1,1.67-1.34,6.29,6.29,0,0,1,2.45-.46,6.43,6.43,0,0,1,2.61.49,3.72,3.72,0,0,1,1.75,1.4,4,4,0,0,1,.66,2.1l-1.69.12a2.68,2.68,0,0,0-.94-1.9,3.5,3.5,0,0,0-2.31-.66,3.76,3.76,0,0,0-2.34.59,1.79,1.79,0,0,0-.74,1.43,1.49,1.49,0,0,0,.53,1.17,7.15,7.15,0,0,0,2.66,1,17.36,17.36,0,0,1,3,.84,3.9,3.9,0,0,1,1.72,1.36,3.28,3.28,0,0,1,.56,1.91,3.64,3.64,0,0,1-.61,2,4,4,0,0,1-1.75,1.47,6.24,6.24,0,0,1-2.57.52,7.6,7.6,0,0,1-3-.54,4.28,4.28,0,0,1-1.92-1.59A4.52,4.52,0,0,1,1284.8,843.62Zm19.46,1.19,1.69.21a4.29,4.29,0,0,1-1.49,2.31,5.07,5.07,0,0,1-6.14-.49,5.15,5.15,0,0,1-1.23-3.67,5.36,5.36,0,0,1,1.25-3.8,4.29,4.29,0,0,1,3.26-1.34,4.08,4.08,0,0,1,3.16,1.33,5.2,5.2,0,0,1,1.23,3.7v.44h-7.22a3.81,3.81,0,0,0,.91,2.45,2.66,2.66,0,0,0,2,.85,2.56,2.56,0,0,0,1.54-.47A3.24,3.24,0,0,0,1304.26,844.81Zm-5.39-2.65h5.4a3.22,3.22,0,0,0-.62-1.83,2.5,2.5,0,0,0-2-1,2.63,2.63,0,0,0-1.91.77A3,3,0,0,0,1298.87,842.16Zm9.14,5.76v-9.67h1.47v1.37a3.47,3.47,0,0,1,3.08-1.59,4,4,0,0,1,1.6.31,2.53,2.53,0,0,1,1.1.83,2.89,2.89,0,0,1,.51,1.2,8.39,8.39,0,0,1,.1,1.6v5.95h-1.64V842a3.9,3.9,0,0,0-.21-1.48,1.54,1.54,0,0,0-.67-.8,2.11,2.11,0,0,0-1.14-.3,2.68,2.68,0,0,0-1.81.67,3.3,3.3,0,0,0-.75,2.52v5.28Zm9.72-2.89,1.62-.25a2.3,2.3,0,0,0,.75,1.5,2.7,2.7,0,0,0,1.75.52,2.52,2.52,0,0,0,1.67-.46,1.38,1.38,0,0,0,.55-1.09,1,1,0,0,0-.48-.88,7.29,7.29,0,0,0-1.67-.54,16.17,16.17,0,0,1-2.52-.8,2.41,2.41,0,0,1-1.05-.91,2.54,2.54,0,0,1-.06-2.5,2.66,2.66,0,0,1,.81-.92,3.55,3.55,0,0,1,1-.47,5.15,5.15,0,0,1,1.43-.2,5.59,5.59,0,0,1,2,.33,2.65,2.65,0,0,1,1.26.89,3.32,3.32,0,0,1,.58,1.5l-1.61.22a1.75,1.75,0,0,0-.64-1.17,2.26,2.26,0,0,0-1.47-.43,2.68,2.68,0,0,0-1.62.38,1.08,1.08,0,0,0-.47.87,1,1,0,0,0,.18.58,1.41,1.41,0,0,0,.65.44c.15.06.63.2,1.43.42a18.41,18.41,0,0,1,2.44.75,2.51,2.51,0,0,1,1.08.86,2.44,2.44,0,0,1,.39,1.41,2.63,2.63,0,0,1-.49,1.54,3.09,3.09,0,0,1-1.37,1.13,5.13,5.13,0,0,1-2.05.39,4.56,4.56,0,0,1-2.87-.78A3.58,3.58,0,0,1,1317.73,845Zm9.37-1.95a5,5,0,0,1,1.49-4,4.49,4.49,0,0,1,3-1.08,4.35,4.35,0,0,1,3.27,1.31,5,5,0,0,1,1.27,3.61,6.35,6.35,0,0,1-.57,2.94,4,4,0,0,1-1.64,1.66,4.75,4.75,0,0,1-2.33.59,4.35,4.35,0,0,1-3.28-1.3A5.25,5.25,0,0,1,1327.1,843.08Zm1.69,0a4.2,4.2,0,0,0,.8,2.79,2.7,2.7,0,0,0,4.08,0,4.24,4.24,0,0,0,.81-2.84,4,4,0,0,0-.81-2.72,2.72,2.72,0,0,0-4.08,0A4.13,4.13,0,0,0,1328.79,843.08Zm9.28,4.84v-9.67h1.47v1.47a4.16,4.16,0,0,1,1-1.36,1.87,1.87,0,0,1,1.06-.33,3.21,3.21,0,0,1,1.69.53l-.56,1.52a2.37,2.37,0,0,0-1.2-.36,1.52,1.52,0,0,0-1,.33,1.78,1.78,0,0,0-.61.89,6.14,6.14,0,0,0-.28,1.92v5.06Z"/><path class="cls-7" d="M1283.23,721.07h89.53v58.5a11.7,11.7,0,0,1-11.71,11.7h-89.52v-58.5h0A11.7,11.7,0,0,1,1283.23,721.07Z"/><path class="cls-6" d="M1283.23,721.07h89.53v58.5a11.7,11.7,0,0,1-11.71,11.7h-89.52v-58.5h0A11.7,11.7,0,0,1,1283.23,721.07Z"/><path d="M1284.8,758.8l1.65-.14a3.92,3.92,0,0,0,.55,1.64,3.07,3.07,0,0,0,1.35,1.05,5.22,5.22,0,0,0,2.06.39,5,5,0,0,0,1.78-.3,2.51,2.51,0,0,0,1.16-.81,2,2,0,0,0,.37-1.16,1.69,1.69,0,0,0-.37-1.09,2.78,2.78,0,0,0-1.19-.8c-.37-.13-1.16-.35-2.39-.64a12.45,12.45,0,0,1-2.57-.84,3.67,3.67,0,0,1-1.43-1.24,3,3,0,0,1-.47-1.67,3.28,3.28,0,0,1,.58-1.87,3.47,3.47,0,0,1,1.67-1.35,6.48,6.48,0,0,1,2.45-.45,6.61,6.61,0,0,1,2.61.48,3.74,3.74,0,0,1,1.75,1.41,4,4,0,0,1,.66,2.09l-1.69.13a2.7,2.7,0,0,0-.94-1.91,3.5,3.5,0,0,0-2.31-.65,3.69,3.69,0,0,0-2.34.59,1.79,1.79,0,0,0-.74,1.42,1.47,1.47,0,0,0,.53,1.17,6.8,6.8,0,0,0,2.66,1,18.1,18.1,0,0,1,3,.85,3.83,3.83,0,0,1,1.72,1.36,3.25,3.25,0,0,1,.56,1.9,3.67,3.67,0,0,1-.61,2,4.12,4.12,0,0,1-1.75,1.47,6.24,6.24,0,0,1-2.57.51,7.79,7.79,0,0,1-3-.53,4.35,4.35,0,0,1-1.92-1.59A4.52,4.52,0,0,1,1284.8,758.8Zm19.46,1.19,1.69.2a4.25,4.25,0,0,1-1.49,2.31,4.42,4.42,0,0,1-2.76.82,4.49,4.49,0,0,1-3.38-1.3,5.17,5.17,0,0,1-1.23-3.67,5.34,5.34,0,0,1,1.25-3.8,4.25,4.25,0,0,1,3.26-1.34,4.11,4.11,0,0,1,3.16,1.32,5.22,5.22,0,0,1,1.23,3.71v.44h-7.22a3.81,3.81,0,0,0,.91,2.45,2.69,2.69,0,0,0,2,.84,2.49,2.49,0,0,0,1.54-.47A3.15,3.15,0,0,0,1304.26,760Zm-5.39-2.66h5.4a3.27,3.27,0,0,0-.62-1.83,2.52,2.52,0,0,0-2-1,2.63,2.63,0,0,0-1.91.77A3,3,0,0,0,1298.87,757.33Zm9.14,5.77v-9.67h1.47v1.37a3.47,3.47,0,0,1,3.08-1.59,4,4,0,0,1,1.6.31,2.45,2.45,0,0,1,1.1.83,2.84,2.84,0,0,1,.51,1.2,8.2,8.2,0,0,1,.1,1.59v6h-1.64v-5.89a4,4,0,0,0-.21-1.49,1.52,1.52,0,0,0-.67-.79,2.11,2.11,0,0,0-1.14-.3,2.64,2.64,0,0,0-1.81.67,3.3,3.3,0,0,0-.75,2.52v5.28Zm9.72-2.89,1.62-.25a2.35,2.35,0,0,0,.75,1.5,2.7,2.7,0,0,0,1.75.51,2.58,2.58,0,0,0,1.67-.45,1.39,1.39,0,0,0,.55-1.09,1,1,0,0,0-.48-.88,6.66,6.66,0,0,0-1.67-.55,16.44,16.44,0,0,1-2.52-.79,2.41,2.41,0,0,1-1.05-.91A2.48,2.48,0,0,1,1318,756a2.42,2.42,0,0,1,.3-1.19,2.66,2.66,0,0,1,.81-.92,3.09,3.09,0,0,1,1-.47,4.8,4.8,0,0,1,1.43-.2,5.83,5.83,0,0,1,2,.32,2.67,2.67,0,0,1,1.26.9,3.32,3.32,0,0,1,.58,1.5l-1.61.21a1.75,1.75,0,0,0-.64-1.17,2.26,2.26,0,0,0-1.47-.42,2.68,2.68,0,0,0-1.62.38,1.08,1.08,0,0,0-.47.87,1,1,0,0,0,.18.58,1.49,1.49,0,0,0,.65.44c.15.06.63.2,1.43.42a18.41,18.41,0,0,1,2.44.75,2.44,2.44,0,0,1,1.08.86,2.38,2.38,0,0,1,.39,1.4,2.66,2.66,0,0,1-.49,1.55,3.16,3.16,0,0,1-1.37,1.13,5.13,5.13,0,0,1-2.05.39,4.5,4.5,0,0,1-2.87-.79A3.55,3.55,0,0,1,1317.73,760.21Zm9.37-2a5,5,0,0,1,1.49-4,4.53,4.53,0,0,1,3-1.07,4.31,4.31,0,0,1,3.27,1.31,5,5,0,0,1,1.27,3.61,6.35,6.35,0,0,1-.57,2.94,4,4,0,0,1-1.64,1.65,4.65,4.65,0,0,1-2.33.6,4.38,4.38,0,0,1-3.28-1.3A5.28,5.28,0,0,1,1327.1,758.25Zm1.69,0a4.23,4.23,0,0,0,.8,2.8,2.72,2.72,0,0,0,4.08,0,4.24,4.24,0,0,0,.81-2.84,4,4,0,0,0-.81-2.72,2.72,2.72,0,0,0-4.08,0A4.08,4.08,0,0,0,1328.79,758.25Zm9.28,4.85v-9.67h1.47v1.46a4.27,4.27,0,0,1,1-1.36,1.94,1.94,0,0,1,1.06-.32,3.13,3.13,0,0,1,1.69.53l-.56,1.51a2.37,2.37,0,0,0-1.2-.36,1.52,1.52,0,0,0-1,.33,1.83,1.83,0,0,0-.61.89,6.23,6.23,0,0,0-.28,1.92v5.07Z"/><path class="cls-7" d="M1282,636.25h89.53v58.5a11.7,11.7,0,0,1-11.7,11.71h-89.53V648h0A11.7,11.7,0,0,1,1282,636.25Z"/><path class="cls-6" d="M1282,636.25h89.53v58.5a11.7,11.7,0,0,1-11.7,11.71h-89.53V648h0A11.7,11.7,0,0,1,1282,636.25Z"/><path d="M1283.54,674l1.65-.14a4,4,0,0,0,.55,1.64,3.13,3.13,0,0,0,1.35,1,5.62,5.62,0,0,0,3.84.1,2.46,2.46,0,0,0,1.16-.82,2,2,0,0,0,.37-1.15,1.72,1.72,0,0,0-.37-1.1,2.77,2.77,0,0,0-1.19-.79,24.5,24.5,0,0,0-2.39-.64,13,13,0,0,1-2.57-.85,3.58,3.58,0,0,1-1.43-1.23,3,3,0,0,1-.47-1.67,3.33,3.33,0,0,1,.58-1.88,3.51,3.51,0,0,1,1.67-1.34,6.48,6.48,0,0,1,2.45-.46,6.6,6.6,0,0,1,2.61.49,3.68,3.68,0,0,1,1.75,1.41,4,4,0,0,1,.66,2.09l-1.69.12a2.7,2.7,0,0,0-.94-1.9,3.5,3.5,0,0,0-2.31-.66,3.69,3.69,0,0,0-2.34.6,1.77,1.77,0,0,0-.74,1.42,1.47,1.47,0,0,0,.53,1.17,7.15,7.15,0,0,0,2.66,1,17.36,17.36,0,0,1,3,.84,4,4,0,0,1,1.72,1.36,3.28,3.28,0,0,1,.56,1.91,3.62,3.62,0,0,1-.61,2,4,4,0,0,1-1.75,1.47,6.08,6.08,0,0,1-2.57.52,7.79,7.79,0,0,1-3-.53,4.37,4.37,0,0,1-1.92-1.6A4.51,4.51,0,0,1,1283.54,674Zm19.46,1.18,1.69.21a4.25,4.25,0,0,1-1.49,2.31,5.07,5.07,0,0,1-6.14-.49,5.14,5.14,0,0,1-1.23-3.67,5.32,5.32,0,0,1,1.25-3.79,4.26,4.26,0,0,1,3.26-1.35,4.11,4.11,0,0,1,3.16,1.33,5.21,5.21,0,0,1,1.23,3.7v.44h-7.22a3.81,3.81,0,0,0,.91,2.45,2.66,2.66,0,0,0,2,.85,2.54,2.54,0,0,0,1.54-.47A3.19,3.19,0,0,0,1303,675.16Zm-5.39-2.65h5.4a3.24,3.24,0,0,0-.62-1.83,2.49,2.49,0,0,0-2-.95,2.62,2.62,0,0,0-1.91.76A3,3,0,0,0,1297.61,672.51Zm9.14,5.76V668.6h1.47V670a3.46,3.46,0,0,1,3.08-1.6,4.15,4.15,0,0,1,1.6.31,2.53,2.53,0,0,1,1.1.83,2.94,2.94,0,0,1,.51,1.21,8.2,8.2,0,0,1,.1,1.59v5.95H1313v-5.89a3.93,3.93,0,0,0-.21-1.48,1.49,1.49,0,0,0-.67-.8,2.11,2.11,0,0,0-1.14-.3,2.64,2.64,0,0,0-1.81.68,3.25,3.25,0,0,0-.75,2.51v5.28Zm9.72-2.89,1.62-.25a2.3,2.3,0,0,0,.75,1.5,2.65,2.65,0,0,0,1.75.52,2.52,2.52,0,0,0,1.67-.46,1.38,1.38,0,0,0,.55-1.09,1,1,0,0,0-.48-.87,6.66,6.66,0,0,0-1.67-.55,16.17,16.17,0,0,1-2.52-.8,2.46,2.46,0,0,1-1.05-.9,2.52,2.52,0,0,1-.36-1.32,2.41,2.41,0,0,1,.3-1.18,2.6,2.6,0,0,1,.81-.93,3.3,3.3,0,0,1,1-.46,4.8,4.8,0,0,1,1.43-.21,5.59,5.59,0,0,1,2,.33,2.72,2.72,0,0,1,1.26.89,3.42,3.42,0,0,1,.58,1.5l-1.61.22a1.75,1.75,0,0,0-.64-1.17,2.26,2.26,0,0,0-1.47-.42,2.68,2.68,0,0,0-1.62.37,1.08,1.08,0,0,0-.47.88,1,1,0,0,0,.18.57,1.41,1.41,0,0,0,.65.44c.15.06.63.2,1.43.42a22.13,22.13,0,0,1,2.44.75,2.51,2.51,0,0,1,1.08.86,2.44,2.44,0,0,1,.39,1.41A2.69,2.69,0,0,1,1324,677a3.08,3.08,0,0,1-1.37,1.12,5.13,5.13,0,0,1-2.05.39,4.56,4.56,0,0,1-2.87-.78A3.62,3.62,0,0,1,1316.47,675.38Zm9.37-2a5,5,0,0,1,1.49-4,4.49,4.49,0,0,1,3-1.08,4.35,4.35,0,0,1,3.27,1.31,5,5,0,0,1,1.27,3.61,6.35,6.35,0,0,1-.57,2.94,4,4,0,0,1-1.64,1.66,4.75,4.75,0,0,1-2.33.59,4.35,4.35,0,0,1-3.28-1.3A5.25,5.25,0,0,1,1325.84,673.43Zm1.69,0a4.25,4.25,0,0,0,.8,2.8,2.72,2.72,0,0,0,4.08,0,4.29,4.29,0,0,0,.81-2.85,4,4,0,0,0-.81-2.72,2.72,2.72,0,0,0-4.08,0A4.13,4.13,0,0,0,1327.53,673.43Zm9.28,4.84V668.6h1.47v1.47a4.16,4.16,0,0,1,1-1.36,1.87,1.87,0,0,1,1.06-.33,3.21,3.21,0,0,1,1.69.53l-.56,1.52a2.37,2.37,0,0,0-1.2-.36,1.52,1.52,0,0,0-1,.33,1.78,1.78,0,0,0-.61.89,6.14,6.14,0,0,0-.28,1.92v5.06Z"/><path class="cls-9" d="M832.08,323h88.09l8.26,8.26v41.29H840.34l-8.26-8.26Z"/><path class="cls-6" d="M832.08,323h88.09l8.26,8.26v41.29H840.34l-8.26-8.26Z"/><path d="M846.05,339.43l1.66-.14a3.83,3.83,0,0,0,.55,1.64,3.15,3.15,0,0,0,1.34,1,5.25,5.25,0,0,0,2.06.4,4.92,4.92,0,0,0,1.78-.3,2.46,2.46,0,0,0,1.16-.81,2,2,0,0,0,.38-1.16,1.68,1.68,0,0,0-.38-1.09,2.64,2.64,0,0,0-1.19-.8,23.67,23.67,0,0,0-2.39-.64,12.18,12.18,0,0,1-2.56-.85,3.61,3.61,0,0,1-1.44-1.23,3.12,3.12,0,0,1-.47-1.67,3.41,3.41,0,0,1,.58-1.88,3.56,3.56,0,0,1,1.67-1.34,6.49,6.49,0,0,1,2.46-.45,6.61,6.61,0,0,1,2.61.48,3.68,3.68,0,0,1,1.75,1.41,4,4,0,0,1,.65,2.09l-1.68.13a2.74,2.74,0,0,0-.94-1.91,3.5,3.5,0,0,0-2.31-.66,3.7,3.7,0,0,0-2.35.6,1.76,1.76,0,0,0-.73,1.42,1.44,1.44,0,0,0,.53,1.17,6.9,6.9,0,0,0,2.65,1,17.56,17.56,0,0,1,3,.84,4,4,0,0,1,1.72,1.36,3.35,3.35,0,0,1,.56,1.91,3.62,3.62,0,0,1-.61,2,4,4,0,0,1-1.75,1.47,6.1,6.1,0,0,1-2.58.52,7.83,7.83,0,0,1-3-.53,4.37,4.37,0,0,1-1.92-1.6A4.48,4.48,0,0,1,846.05,339.43Zm16.42,2.83.23,1.45a6.53,6.53,0,0,1-1.23.14,2.8,2.8,0,0,1-1.39-.28,1.54,1.54,0,0,1-.69-.74,5.61,5.61,0,0,1-.21-1.93v-5.58H858v-1.27h1.2v-2.39l1.63-1v3.37h1.66v1.27h-1.66V341a3.12,3.12,0,0,0,.08.89.69.69,0,0,0,.28.33,1.27,1.27,0,0,0,.58.11A6,6,0,0,0,862.47,342.26Zm8.23-1.64,1.68.2a4.18,4.18,0,0,1-1.48,2.31,5.09,5.09,0,0,1-6.14-.48,5.18,5.18,0,0,1-1.24-3.68,5.36,5.36,0,0,1,1.25-3.79,4.3,4.3,0,0,1,3.27-1.35,4.13,4.13,0,0,1,3.16,1.33,5.22,5.22,0,0,1,1.23,3.71v.43h-7.22a3.79,3.79,0,0,0,.91,2.46,2.68,2.68,0,0,0,2,.84,2.57,2.57,0,0,0,1.55-.47A3.2,3.2,0,0,0,870.7,340.62ZM865.31,338h5.4a3.27,3.27,0,0,0-.62-1.83,2.52,2.52,0,0,0-2-.95,2.62,2.62,0,0,0-1.91.76A3,3,0,0,0,865.31,338Zm9.14,9.47V334.05h1.48v1.25a3.68,3.68,0,0,1,1.19-1.09,3.29,3.29,0,0,1,1.62-.38,3.78,3.78,0,0,1,3.61,2.44,6.41,6.41,0,0,1,.49,2.55,6.53,6.53,0,0,1-.53,2.67,4,4,0,0,1-3.69,2.45,3.12,3.12,0,0,1-1.47-.34,3.07,3.07,0,0,1-1.06-.88v4.71Zm1.48-8.49a4.3,4.3,0,0,0,.75,2.77,2.35,2.35,0,0,0,1.83.89,2.38,2.38,0,0,0,1.87-.92,4.4,4.4,0,0,0,.79-2.88,4.23,4.23,0,0,0-.77-2.76,2.24,2.24,0,0,0-1.81-.92,2.35,2.35,0,0,0-1.86,1A4.39,4.39,0,0,0,875.93,338.94Zm8.89,8.49V334.05h1.49v1.25a3.65,3.65,0,0,1,1.18-1.09,3.3,3.3,0,0,1,1.63-.38,3.81,3.81,0,0,1,3.61,2.44,6.58,6.58,0,0,1,.48,2.55,6.37,6.37,0,0,1-.53,2.67,4,4,0,0,1-3.69,2.45,3.05,3.05,0,0,1-1.46-.34,3.11,3.11,0,0,1-1.07-.88v4.71Zm1.49-8.49a4.3,4.3,0,0,0,.75,2.77,2.35,2.35,0,0,0,1.83.89,2.39,2.39,0,0,0,1.87-.92,4.46,4.46,0,0,0,.78-2.88,4.23,4.23,0,0,0-.76-2.76,2.26,2.26,0,0,0-1.82-.92,2.38,2.38,0,0,0-1.86,1A4.39,4.39,0,0,0,886.31,338.94Zm15.51,1.68,1.69.2a4.18,4.18,0,0,1-1.48,2.31,5.09,5.09,0,0,1-6.14-.48,5.14,5.14,0,0,1-1.24-3.68,5.36,5.36,0,0,1,1.25-3.79,4.28,4.28,0,0,1,3.27-1.35,4.09,4.09,0,0,1,3.15,1.33,5.18,5.18,0,0,1,1.24,3.71v.43h-7.22a3.74,3.74,0,0,0,.91,2.46,2.68,2.68,0,0,0,2,.84,2.57,2.57,0,0,0,1.55-.47A3.26,3.26,0,0,0,901.82,340.62ZM896.43,338h5.41a3.2,3.2,0,0,0-.63-1.83,2.5,2.5,0,0,0-2-.95,2.6,2.6,0,0,0-1.9.76A3,3,0,0,0,896.43,338Zm9.13,5.76v-9.67H907v1.47a4,4,0,0,1,1-1.36,1.85,1.85,0,0,1,1.06-.33,3.17,3.17,0,0,1,1.69.54l-.56,1.51a2.38,2.38,0,0,0-1.21-.36,1.56,1.56,0,0,0-1,.33,1.9,1.9,0,0,0-.61.89,6.45,6.45,0,0,0-.28,1.92v5.06Z"/><path d="M846.65,365.72V352.37h4.61a10.29,10.29,0,0,1,2.37.2,4.34,4.34,0,0,1,2,.95,5.43,5.43,0,0,1,1.57,2.28,8.75,8.75,0,0,1,.53,3.17,9.73,9.73,0,0,1-.35,2.71,6.49,6.49,0,0,1-.93,1.94,4.76,4.76,0,0,1-1.2,1.21,5,5,0,0,1-1.59.68,9.88,9.88,0,0,1-2.14.21Zm1.76-1.57h2.86a7.06,7.06,0,0,0,2.07-.24,2.93,2.93,0,0,0,1.2-.7,4.25,4.25,0,0,0,1-1.69,8.11,8.11,0,0,0,.36-2.58,6.21,6.21,0,0,0-.69-3.22,3.45,3.45,0,0,0-1.67-1.5,6.87,6.87,0,0,0-2.28-.28h-2.82Zm11.49,1.57v-9.67h1.47v1.47a4.16,4.16,0,0,1,1-1.36,1.85,1.85,0,0,1,1.06-.33,3.14,3.14,0,0,1,1.69.54l-.56,1.51a2.37,2.37,0,0,0-1.2-.36,1.52,1.52,0,0,0-1,.33,1.83,1.83,0,0,0-.61.89,6.14,6.14,0,0,0-.28,1.92v5.06Zm6.23-11.46v-1.89h1.64v1.89Zm0,11.46v-9.67h1.64v9.67Zm6.83,0-3.69-9.67H871l2.08,5.8c.22.62.42,1.27.62,1.94.14-.51.34-1.12.61-1.83l2.14-5.91h1.69l-3.66,9.67Zm13.27-3.1,1.69.2a4.25,4.25,0,0,1-1.49,2.31,5.09,5.09,0,0,1-6.14-.48,5.18,5.18,0,0,1-1.23-3.68,5.32,5.32,0,0,1,1.25-3.79,4.26,4.26,0,0,1,3.26-1.35,4.11,4.11,0,0,1,3.16,1.33,5.22,5.22,0,0,1,1.23,3.71v.43h-7.22a3.84,3.84,0,0,0,.91,2.46,2.69,2.69,0,0,0,2,.84,2.54,2.54,0,0,0,1.54-.47A3.2,3.2,0,0,0,886.23,362.62ZM880.84,360h5.4a3.27,3.27,0,0,0-.62-1.83,2.52,2.52,0,0,0-2-.95,2.62,2.62,0,0,0-1.91.76A3,3,0,0,0,880.84,360Zm9.12,5.76v-9.67h1.47v1.47a4.16,4.16,0,0,1,1-1.36,1.88,1.88,0,0,1,1.07-.33,3.14,3.14,0,0,1,1.68.54l-.56,1.51a2.37,2.37,0,0,0-1.2-.36,1.52,1.52,0,0,0-1,.33,1.83,1.83,0,0,0-.61.89,6.14,6.14,0,0,0-.28,1.92v5.06Z"/><path class="cls-4" d="M747.07,372.28l55.56,53.89"/><path class="cls-10" d="M747.07,372.28l55.56,53.89"/><path class="cls-4" d="M880.25,372.58l-77.6,53.57"/><path class="cls-10" d="M880.25,372.58l-77.6,53.57"/><path class="cls-7" d="M1050,323.37h139.46v49.54H1050Z"/><path class="cls-6" d="M1050,323.37h139.46v49.54H1050Z"/><path d="M1060.42,344.06V330.7h2.65l3.16,9.45c.29.89.5,1.55.64,2l.7-2.14,3.21-9.3h2.37v13.36h-1.7V332.89l-3.88,11.17H1066l-3.86-11.37v11.37Zm14.77-4.84a5,5,0,0,1,1.49-4,4.49,4.49,0,0,1,3-1.08,4.35,4.35,0,0,1,3.27,1.31,5,5,0,0,1,1.26,3.61,6.36,6.36,0,0,1-.56,2.94,4,4,0,0,1-1.64,1.66,4.75,4.75,0,0,1-2.33.59,4.35,4.35,0,0,1-3.28-1.3A5.25,5.25,0,0,1,1075.19,339.22Zm1.69,0a4.2,4.2,0,0,0,.8,2.79,2.69,2.69,0,0,0,4.07,0,4.19,4.19,0,0,0,.82-2.84,4,4,0,0,0-.82-2.72,2.71,2.71,0,0,0-4.07,0A4.13,4.13,0,0,0,1076.88,339.22Zm12.88,3.37L1090,344a5.86,5.86,0,0,1-1.23.15,2.86,2.86,0,0,1-1.4-.29,1.54,1.54,0,0,1-.68-.73,5.68,5.68,0,0,1-.21-1.94v-5.58h-1.2v-1.26h1.2V332l1.63-1v3.38h1.66v1.26h-1.66v5.68a3.22,3.22,0,0,0,.08.89.72.72,0,0,0,.28.32,1.15,1.15,0,0,0,.58.11A6,6,0,0,0,1089.76,342.59Zm1-3.37a5,5,0,0,1,1.49-4,4.47,4.47,0,0,1,3-1.08,4.36,4.36,0,0,1,3.27,1.31,5,5,0,0,1,1.26,3.61,6.36,6.36,0,0,1-.56,2.94,4,4,0,0,1-1.64,1.66,4.75,4.75,0,0,1-2.33.59A4.33,4.33,0,0,1,1092,343,5.25,5.25,0,0,1,1090.75,339.22Zm1.69,0a4.15,4.15,0,0,0,.8,2.79,2.69,2.69,0,0,0,4.07,0,4.19,4.19,0,0,0,.82-2.84,4,4,0,0,0-.82-2.72,2.71,2.71,0,0,0-4.07,0A4.07,4.07,0,0,0,1092.44,339.22Zm9.28,4.84v-9.67h1.47v1.47a4,4,0,0,1,1-1.36,1.85,1.85,0,0,1,1.06-.33,3.21,3.21,0,0,1,1.69.53l-.56,1.52a2.38,2.38,0,0,0-1.21-.36,1.51,1.51,0,0,0-1,.33,1.68,1.68,0,0,0-.61.89,6.14,6.14,0,0,0-.28,1.92v5.06Zm11.62,0V330.7h5a11.57,11.57,0,0,1,2,.13,3.84,3.84,0,0,1,1.64.64,3.18,3.18,0,0,1,1.08,1.28,4.33,4.33,0,0,1-.69,4.72c-.71.78-2,1.17-3.92,1.17h-3.42v5.42Zm1.76-7h3.45a3.64,3.64,0,0,0,2.44-.64,2.29,2.29,0,0,0,.72-1.8,2.39,2.39,0,0,0-.42-1.43,2,2,0,0,0-1.13-.79,7.32,7.32,0,0,0-1.64-.12h-3.42Zm9.87,2.16a5,5,0,0,1,1.48-4,4.5,4.5,0,0,1,3-1.08,4.34,4.34,0,0,1,3.26,1.31,4.94,4.94,0,0,1,1.27,3.61,6.49,6.49,0,0,1-.56,2.94,4.09,4.09,0,0,1-1.64,1.66,4.77,4.77,0,0,1-2.33.59,4.32,4.32,0,0,1-3.28-1.3A5.21,5.21,0,0,1,1125,339.22Zm1.68,0a4.2,4.2,0,0,0,.8,2.79,2.7,2.7,0,0,0,4.08,0,4.24,4.24,0,0,0,.81-2.84,4,4,0,0,0-.81-2.72,2.72,2.72,0,0,0-4.08,0A4.13,4.13,0,0,0,1126.65,339.22Zm11.08,4.84-3-9.67h1.71L1138,340l.58,2.07c0-.1.19-.77.5-2l1.54-5.65h1.69l1.44,5.61.48,1.84.57-1.86,1.65-5.59h1.6l-3,9.67h-1.7l-1.53-5.8-.38-1.64-2,7.44Zm18.32-3.11,1.69.2a4.26,4.26,0,0,1-1.49,2.32,5.07,5.07,0,0,1-6.14-.49,5.15,5.15,0,0,1-1.23-3.67,5.36,5.36,0,0,1,1.25-3.8,4.29,4.29,0,0,1,3.26-1.34,4.08,4.08,0,0,1,3.16,1.33,5.2,5.2,0,0,1,1.23,3.7v.44h-7.21a3.76,3.76,0,0,0,.9,2.45,2.69,2.69,0,0,0,2,.85,2.54,2.54,0,0,0,1.54-.47A3.24,3.24,0,0,0,1156.05,341Zm-5.39-2.66h5.41a3.28,3.28,0,0,0-.63-1.82,2.5,2.5,0,0,0-2-1,2.63,2.63,0,0,0-1.91.77A3,3,0,0,0,1150.66,338.29Zm9.12,5.77v-9.67h1.47v1.47a4.16,4.16,0,0,1,1-1.36,1.88,1.88,0,0,1,1.07-.33,3.21,3.21,0,0,1,1.68.53l-.56,1.52a2.34,2.34,0,0,0-1.2-.36,1.52,1.52,0,0,0-1,.33,1.8,1.8,0,0,0-.61.89,6.14,6.14,0,0,0-.28,1.92v5.06Z"/><path d="M1066,366.06h-1.64V355.61a9.88,9.88,0,0,1-1.56,1.14,11.62,11.62,0,0,1-1.72.84V356a9.93,9.93,0,0,0,2.4-1.56,6.08,6.08,0,0,0,1.46-1.79H1066Zm12.81-1.58v1.58H1070a3.1,3.1,0,0,1,.19-1.14,6.24,6.24,0,0,1,1.08-1.78,17.06,17.06,0,0,1,2.16-2,17.82,17.82,0,0,0,2.93-2.83,3.37,3.37,0,0,0,.77-2,2.13,2.13,0,0,0-.7-1.64,2.5,2.5,0,0,0-1.82-.68,2.56,2.56,0,0,0-1.9.72,2.65,2.65,0,0,0-.71,2l-1.68-.18a4.1,4.1,0,0,1,1.29-2.87,4.47,4.47,0,0,1,3-1,4.24,4.24,0,0,1,3,1.07,3.49,3.49,0,0,1,1.13,2.64,4.07,4.07,0,0,1-.33,1.58,6.2,6.2,0,0,1-1.09,1.64,26.81,26.81,0,0,1-2.54,2.34c-1,.82-1.61,1.39-1.89,1.69a4.7,4.7,0,0,0-.68.87Zm6.24,1.58-5.17-13.36h1.92l3.47,9.7c.28.79.51,1.51.7,2.19q.32-1.09.72-2.19l3.61-9.7h1.79l-5.23,13.36Z"/><path class="cls-4" d="M1050,348.14l-121.61-.35"/><path class="cls-11" d="M1050,348.14l-121.61-.35"/><path class="cls-4" d="M795.24,347.51l36.85.29"/><path class="cls-11" d="M795.24,347.51l36.85.29"/><path class="cls-4" d="M436.11,347.8l262.8-.28"/><path class="cls-12" d="M436.11,347.8l262.8-.28"/><path class="cls-4" d="M387.93,372.58l126,88.69"/><path class="cls-10" d="M387.93,372.58l126,88.69"/><path class="cls-4" d="M388.67,646.58l-.73-274"/><path class="cls-11" d="M388.67,646.58l-.73-274"/><path class="cls-4" d="M436.84,671.35h35.47"/><path class="cls-10" d="M436.84,671.35h35.47"/><path class="cls-7" d="M366.18,828.29h89.53v58.5a11.7,11.7,0,0,1-11.7,11.7H354.48V840h0A11.7,11.7,0,0,1,366.18,828.29Z"/><path class="cls-6" d="M366.18,828.29h89.53v58.5a11.7,11.7,0,0,1-11.7,11.7H354.48V840h0A11.7,11.7,0,0,1,366.18,828.29Z"/><path d="M367.75,866l1.66-.14a3.74,3.74,0,0,0,.54,1.64,3.13,3.13,0,0,0,1.35,1,5.22,5.22,0,0,0,2.06.39,4.92,4.92,0,0,0,1.78-.3,2.44,2.44,0,0,0,1.16-.81,2,2,0,0,0,.37-1.16,1.69,1.69,0,0,0-.37-1.09,2.78,2.78,0,0,0-1.19-.8c-.36-.13-1.16-.34-2.39-.64a12.31,12.31,0,0,1-2.56-.84,3.62,3.62,0,0,1-1.44-1.23,3.13,3.13,0,0,1-.47-1.68,3.3,3.3,0,0,1,.58-1.87,3.53,3.53,0,0,1,1.67-1.35,7,7,0,0,1,5.06,0,3.67,3.67,0,0,1,1.75,1.4,4,4,0,0,1,.66,2.1l-1.69.12a2.68,2.68,0,0,0-.94-1.91,3.55,3.55,0,0,0-2.31-.65,3.76,3.76,0,0,0-2.34.59,1.79,1.79,0,0,0-.74,1.42,1.48,1.48,0,0,0,.54,1.18,6.87,6.87,0,0,0,2.65,1,18.1,18.1,0,0,1,2.95.85,3.84,3.84,0,0,1,1.72,1.36,3.28,3.28,0,0,1,.57,1.9,3.76,3.76,0,0,1-.61,2A4.18,4.18,0,0,1,376,870a6.25,6.25,0,0,1-2.58.51,7.61,7.61,0,0,1-3.05-.53,4.28,4.28,0,0,1-1.92-1.59A4.52,4.52,0,0,1,367.75,866Zm19.46,1.19,1.69.2a4.26,4.26,0,0,1-1.49,2.32,5.07,5.07,0,0,1-6.14-.49,5.15,5.15,0,0,1-1.23-3.67,5.39,5.39,0,0,1,1.25-3.8,4.29,4.29,0,0,1,3.26-1.34,4.07,4.07,0,0,1,3.16,1.33,5.2,5.2,0,0,1,1.23,3.7v.44h-7.21a3.76,3.76,0,0,0,.9,2.45,2.7,2.7,0,0,0,2,.84,2.53,2.53,0,0,0,1.54-.46A3.24,3.24,0,0,0,387.21,867.2Zm-5.39-2.66h5.41a3.28,3.28,0,0,0-.63-1.82,2.5,2.5,0,0,0-2-1,2.63,2.63,0,0,0-1.91.77A3,3,0,0,0,381.82,864.54Zm9.14,5.77v-9.67h1.47V862a3.47,3.47,0,0,1,3.08-1.59,4.05,4.05,0,0,1,1.61.31,2.49,2.49,0,0,1,1.09.83,3,3,0,0,1,.52,1.2,9.55,9.55,0,0,1,.09,1.6v5.95h-1.64v-5.89a4.25,4.25,0,0,0-.2-1.49,1.58,1.58,0,0,0-.68-.79,2.11,2.11,0,0,0-1.14-.3,2.65,2.65,0,0,0-1.81.67,3.3,3.3,0,0,0-.75,2.52v5.28Zm9.72-2.89,1.63-.25a2.26,2.26,0,0,0,.75,1.5,2.68,2.68,0,0,0,1.75.51,2.6,2.6,0,0,0,1.67-.45,1.41,1.41,0,0,0,.54-1.09,1,1,0,0,0-.48-.88,6.81,6.81,0,0,0-1.67-.54,17.36,17.36,0,0,1-2.52-.8,2.38,2.38,0,0,1-1-.91,2.46,2.46,0,0,1-.36-1.31,2.55,2.55,0,0,1,.29-1.19,2.59,2.59,0,0,1,.82-.92,3.2,3.2,0,0,1,1-.47,5,5,0,0,1,1.42-.2,5.55,5.55,0,0,1,2,.33,2.65,2.65,0,0,1,1.26.89,3.21,3.21,0,0,1,.58,1.5l-1.61.22a1.76,1.76,0,0,0-.64-1.18,2.26,2.26,0,0,0-1.47-.42,2.68,2.68,0,0,0-1.62.38,1.1,1.1,0,0,0-.47.87,1,1,0,0,0,.19.58,1.45,1.45,0,0,0,.64.44q.22.09,1.44.42a18.64,18.64,0,0,1,2.43.75,2.44,2.44,0,0,1,1.08.86,2.4,2.4,0,0,1,.39,1.41,2.72,2.72,0,0,1-.48,1.54,3.12,3.12,0,0,1-1.38,1.13,5.08,5.08,0,0,1-2,.39,4.61,4.61,0,0,1-2.88-.78A3.62,3.62,0,0,1,400.68,867.42Zm9.38-1.95a5,5,0,0,1,1.48-4,4.5,4.5,0,0,1,3-1.08,4.34,4.34,0,0,1,3.26,1.31,4.94,4.94,0,0,1,1.27,3.61,6.49,6.49,0,0,1-.56,2.94,4,4,0,0,1-1.65,1.65,4.61,4.61,0,0,1-2.32.6,4.32,4.32,0,0,1-3.28-1.3A5.21,5.21,0,0,1,410.06,865.47Zm1.68,0a4.2,4.2,0,0,0,.8,2.79,2.72,2.72,0,0,0,4.08,0,4.24,4.24,0,0,0,.81-2.84,4,4,0,0,0-.81-2.72,2.72,2.72,0,0,0-4.08,0A4.11,4.11,0,0,0,411.74,865.47Zm9.29,4.84v-9.67h1.46v1.47a4,4,0,0,1,1-1.36,1.82,1.82,0,0,1,1.06-.33,3.27,3.27,0,0,1,1.69.53l-.57,1.52a2.32,2.32,0,0,0-1.2-.36,1.57,1.57,0,0,0-1,.32,1.88,1.88,0,0,0-.61.9,6.14,6.14,0,0,0-.28,1.92v5.06Z"/><path class="cls-4" d="M405.09,828.29,511,701"/><path class="cls-8" d="M405.09,828.29,511,701"/><path class="cls-7" d="M412.46,808.07l57.66-73.55-9.4-7.37,33.55-4.06,4.06,33.55-9.4-7.37-57.67,73.54Z"/><path class="cls-6" d="M412.46,808.07l57.66-73.55-9.4-7.37,33.55-4.06,4.06,33.55-9.4-7.37-57.67,73.54Z"/><path d="M433.93,811.26,423.41,803l1.09-1.39L435,809.87Zm6.68-11.08,1.24,1-5.45,7a2.91,2.91,0,0,1-.78-.86,6.37,6.37,0,0,1-.74-1.94,17.22,17.22,0,0,1-.25-2.94,17.51,17.51,0,0,0-.42-4.06,3.41,3.41,0,0,0-1.07-1.82,2.17,2.17,0,0,0-1.73-.46,2.55,2.55,0,0,0-1.65,1,2.61,2.61,0,0,0-.61,1.94,2.65,2.65,0,0,0,1.11,1.76L429.08,802a4.14,4.14,0,0,1-1.46-2.79,4.5,4.5,0,0,1,1.09-3,4.24,4.24,0,0,1,2.72-1.74,3.53,3.53,0,0,1,2.77.74,3.94,3.94,0,0,1,1,1.24,5.94,5.94,0,0,1,.62,1.87,26.5,26.5,0,0,1,.28,3.44c0,1.27.1,2.12.16,2.53a5.33,5.33,0,0,0,.27,1.08Zm4.93-11.32,1.44-1.11a6.1,6.1,0,0,1,1.39,3.63,5.55,5.55,0,0,1-1.28,3.48,6.47,6.47,0,0,1-2.86,2.23,5.79,5.79,0,0,1-3.28,0,9.19,9.19,0,0,1-3.26-1.67,7.76,7.76,0,0,1-2.36-2.86,5.38,5.38,0,0,1-.46-3.24,6.7,6.7,0,0,1,1.36-3.06,5.42,5.42,0,0,1,2.88-2,5.17,5.17,0,0,1,3.44.27l-.76,1.62a4,4,0,0,0-2.49-.24,3.54,3.54,0,0,0-1.89,1.32,4.24,4.24,0,0,0-1,2.48,3.88,3.88,0,0,0,.66,2.37,8.47,8.47,0,0,0,4.4,3.35,3.76,3.76,0,0,0,2.46,0,4.43,4.43,0,0,0,1.89-1.4,3.75,3.75,0,0,0,.87-2.51A4.36,4.36,0,0,0,445.54,788.86Z"/><path class="cls-7" d="M570.6,828.29h89.52v58.5a11.7,11.7,0,0,1-11.7,11.7H558.89V840h0A11.7,11.7,0,0,1,570.6,828.29Z"/><path class="cls-6" d="M570.6,828.29h89.52v58.5a11.7,11.7,0,0,1-11.7,11.7H558.89V840h0A11.7,11.7,0,0,1,570.6,828.29Z"/><path d="M572.17,866l1.65-.14a3.87,3.87,0,0,0,.55,1.64,3.09,3.09,0,0,0,1.34,1,5.27,5.27,0,0,0,2.07.39,5,5,0,0,0,1.78-.3,2.41,2.41,0,0,0,1.15-.81,2,2,0,0,0,.38-1.16,1.7,1.7,0,0,0-.38-1.09,2.74,2.74,0,0,0-1.18-.8c-.37-.13-1.17-.34-2.4-.64a12.53,12.53,0,0,1-2.56-.84,3.76,3.76,0,0,1-1.44-1.23,3.12,3.12,0,0,1-.46-1.68,3.37,3.37,0,0,1,.57-1.87,3.61,3.61,0,0,1,1.68-1.35,7,7,0,0,1,5.06,0,3.72,3.72,0,0,1,1.75,1.4,4.06,4.06,0,0,1,.65,2.1l-1.68.12a2.76,2.76,0,0,0-.94-1.91,3.55,3.55,0,0,0-2.31-.65,3.77,3.77,0,0,0-2.35.59,1.78,1.78,0,0,0-.73,1.42,1.51,1.51,0,0,0,.53,1.18,7,7,0,0,0,2.66,1,18.43,18.43,0,0,1,3,.85,4,4,0,0,1,1.72,1.36,3.34,3.34,0,0,1,.56,1.9,3.67,3.67,0,0,1-.61,2,4.12,4.12,0,0,1-1.75,1.47,6.25,6.25,0,0,1-2.58.51,7.6,7.6,0,0,1-3-.53,4.26,4.26,0,0,1-1.93-1.59A4.6,4.6,0,0,1,572.17,866Zm19.46,1.19,1.68.2a4.24,4.24,0,0,1-1.48,2.32,5.07,5.07,0,0,1-6.14-.49,5.11,5.11,0,0,1-1.24-3.67,5.39,5.39,0,0,1,1.25-3.8,4.33,4.33,0,0,1,3.27-1.34,4.09,4.09,0,0,1,3.16,1.33,5.2,5.2,0,0,1,1.23,3.7v.44h-7.22a3.76,3.76,0,0,0,.91,2.45,2.68,2.68,0,0,0,2,.84,2.56,2.56,0,0,0,1.55-.46A3.24,3.24,0,0,0,591.63,867.2Zm-5.4-2.66h5.41a3.21,3.21,0,0,0-.62-1.82,2.52,2.52,0,0,0-2-1,2.61,2.61,0,0,0-1.9.77A3,3,0,0,0,586.23,864.54Zm9.15,5.77v-9.67h1.46V862a3.48,3.48,0,0,1,3.08-1.59,4,4,0,0,1,1.61.31,2.53,2.53,0,0,1,1.1.83,2.84,2.84,0,0,1,.51,1.2,9.25,9.25,0,0,1,.1,1.6v5.95h-1.65v-5.89a4,4,0,0,0-.2-1.49,1.56,1.56,0,0,0-.67-.79,2.11,2.11,0,0,0-1.14-.3,2.64,2.64,0,0,0-1.81.67A3.3,3.3,0,0,0,597,865v5.28Zm9.72-2.89,1.62-.25a2.26,2.26,0,0,0,.75,1.5,2.7,2.7,0,0,0,1.75.51,2.58,2.58,0,0,0,1.67-.45,1.39,1.39,0,0,0,.55-1.09,1,1,0,0,0-.49-.88,6.49,6.49,0,0,0-1.67-.54,17.12,17.12,0,0,1-2.51-.8,2.41,2.41,0,0,1-1-.91,2.54,2.54,0,0,1-.06-2.5,2.66,2.66,0,0,1,.81-.92,3.2,3.2,0,0,1,1-.47,5.08,5.08,0,0,1,1.42-.2,5.55,5.55,0,0,1,2,.33,2.64,2.64,0,0,1,1.27.89,3.44,3.44,0,0,1,.58,1.5l-1.61.22a1.84,1.84,0,0,0-.64-1.18,2.3,2.3,0,0,0-1.47-.42,2.73,2.73,0,0,0-1.63.38,1.1,1.1,0,0,0-.47.87,1,1,0,0,0,.19.58,1.51,1.51,0,0,0,.64.44q.24.09,1.44.42a18.41,18.41,0,0,1,2.44.75,2.44,2.44,0,0,1,1.08.86,2.4,2.4,0,0,1,.39,1.41,2.66,2.66,0,0,1-.49,1.54,3.09,3.09,0,0,1-1.37,1.13,5.17,5.17,0,0,1-2,.39,4.56,4.56,0,0,1-2.87-.78A3.58,3.58,0,0,1,605.1,867.42Zm9.37-1.95a5,5,0,0,1,1.48-4,4.52,4.52,0,0,1,3-1.08,4.38,4.38,0,0,1,3.27,1.31,5,5,0,0,1,1.26,3.61,6.36,6.36,0,0,1-.56,2.94,3.9,3.9,0,0,1-1.64,1.65,4.65,4.65,0,0,1-2.33.6,4.33,4.33,0,0,1-3.28-1.3A5.25,5.25,0,0,1,614.47,865.47Zm1.69,0a4.2,4.2,0,0,0,.79,2.79,2.62,2.62,0,0,0,2,.92,2.58,2.58,0,0,0,2-.92,4.24,4.24,0,0,0,.82-2.84,4,4,0,0,0-.82-2.72,2.61,2.61,0,0,0-2-.92,2.65,2.65,0,0,0-2,.92A4.11,4.11,0,0,0,616.16,865.47Zm9.28,4.84v-9.67h1.47v1.47a4,4,0,0,1,1-1.36,1.85,1.85,0,0,1,1.06-.33,3.24,3.24,0,0,1,1.69.53l-.56,1.52a2.38,2.38,0,0,0-1.21-.36,1.56,1.56,0,0,0-1,.32,1.75,1.75,0,0,0-.61.9,6.14,6.14,0,0,0-.29,1.92v5.06Z"/><path class="cls-4" d="M609.51,828.29,511,701"/><path class="cls-8" d="M609.51,828.29,511,701"/><path class="cls-7" d="M595.9,825.39l-61-78.73L525.45,754l4.23-33.53,33.5,4.24L553.75,732l61,78.73Z"/><path class="cls-6" d="M595.9,825.39l-61-78.73L525.45,754l4.23-33.53,33.5,4.24L553.75,732l61,78.73Z"/><path d="M604.23,805.34l-10.56,8.2-1.08-1.4L603.14,804Zm-9.12-9.18,1.25-1,5.41,7a3,3,0,0,1-1,.55,6.17,6.17,0,0,1-2.07.24,16.68,16.68,0,0,1-2.91-.46,17.49,17.49,0,0,0-4-.59,3.36,3.36,0,0,0-2,.6,2.17,2.17,0,0,0-.86,1.56,2.51,2.51,0,0,0,.58,1.85,2.55,2.55,0,0,0,1.73,1.06,2.62,2.62,0,0,0,2-.64l.9,1.44a4.17,4.17,0,0,1-3.07.74,4.5,4.5,0,0,1-2.63-1.79,4.26,4.26,0,0,1-1-3.06,3.45,3.45,0,0,1,1.4-2.51,4,4,0,0,1,1.44-.71,6,6,0,0,1,2-.14,27.19,27.19,0,0,1,3.4.56c1.25.27,2.08.42,2.49.46a5.18,5.18,0,0,0,1.11,0Zm-9.78-7.54-.72-1.67a6,6,0,0,1,3.85-.46,5.53,5.53,0,0,1,3.07,2.09,6.37,6.37,0,0,1,1.46,3.31,5.68,5.68,0,0,1-.75,3.2,9.24,9.24,0,0,1-2.4,2.76,7.83,7.83,0,0,1-3.36,1.59,5.45,5.45,0,0,1-3.25-.34A6.61,6.61,0,0,1,580.6,797a5.42,5.42,0,0,1-1.26-3.27,5.24,5.24,0,0,1,1.11-3.27l1.38,1.12A4.08,4.08,0,0,0,581,794a3.45,3.45,0,0,0,.82,2.15,4.41,4.41,0,0,0,2.15,1.59,3.91,3.91,0,0,0,2.46-.07,7.84,7.84,0,0,0,2.29-1.24,8.14,8.14,0,0,0,2-2.21,3.77,3.77,0,0,0,.56-2.4,4.34,4.34,0,0,0-.89-2.17,3.82,3.82,0,0,0-2.22-1.46A4.4,4.4,0,0,0,585.33,788.62Z"/><path class="cls-9" d="M698.9,322.74H787l8.26,8.26v41.28H707.15L698.9,364Z"/><path class="cls-6" d="M698.9,322.74H787l8.26,8.26v41.28H707.15L698.9,364Z"/><path d="M712.87,339.14l1.65-.14a4,4,0,0,0,.55,1.64,3.15,3.15,0,0,0,1.34,1,5.3,5.3,0,0,0,2.07.39,5.19,5.19,0,0,0,1.78-.29,2.43,2.43,0,0,0,1.15-.82,2,2,0,0,0,.38-1.15,1.73,1.73,0,0,0-.38-1.1,2.73,2.73,0,0,0-1.18-.79,24.5,24.5,0,0,0-2.39-.64,13,13,0,0,1-2.57-.85,3.58,3.58,0,0,1-1.43-1.23,3,3,0,0,1-.47-1.67,3.33,3.33,0,0,1,.58-1.88,3.51,3.51,0,0,1,1.67-1.34,6.44,6.44,0,0,1,2.45-.45,6.61,6.61,0,0,1,2.61.48,3.68,3.68,0,0,1,1.75,1.41,4,4,0,0,1,.66,2.09l-1.69.12a2.74,2.74,0,0,0-.94-1.9,3.5,3.5,0,0,0-2.31-.66,3.72,3.72,0,0,0-2.35.6,1.79,1.79,0,0,0-.73,1.42,1.47,1.47,0,0,0,.53,1.17,7.15,7.15,0,0,0,2.66,1,17.36,17.36,0,0,1,3,.84,4,4,0,0,1,1.72,1.36,3.35,3.35,0,0,1,.56,1.91,3.62,3.62,0,0,1-.61,2,4,4,0,0,1-1.75,1.47,6.1,6.1,0,0,1-2.58.52,7.77,7.77,0,0,1-3-.53,4.32,4.32,0,0,1-1.92-1.6A4.51,4.51,0,0,1,712.87,339.14ZM729.28,342l.23,1.46a6.44,6.44,0,0,1-1.23.14,3,3,0,0,1-1.39-.28,1.69,1.69,0,0,1-.69-.74,6,6,0,0,1-.2-1.93V335h-1.2v-1.27H726v-2.39l1.62-1v3.37h1.66V335h-1.66v5.67a3.17,3.17,0,0,0,.08.89.88.88,0,0,0,.28.33,1.3,1.3,0,0,0,.58.11A4.5,4.5,0,0,0,729.28,342Zm8.23-1.64,1.69.21a4.2,4.2,0,0,1-1.49,2.31,5.09,5.09,0,0,1-6.14-.48,5.18,5.18,0,0,1-1.23-3.68,5.32,5.32,0,0,1,1.25-3.79,4.26,4.26,0,0,1,3.26-1.35,4.1,4.1,0,0,1,3.16,1.33,5.21,5.21,0,0,1,1.23,3.7V339H732a3.76,3.76,0,0,0,.9,2.45,2.67,2.67,0,0,0,2,.85,2.54,2.54,0,0,0,1.54-.47A3.19,3.19,0,0,0,737.51,340.32Zm-5.39-2.65h5.41a3.35,3.35,0,0,0-.63-1.83,2.49,2.49,0,0,0-2-.95,2.62,2.62,0,0,0-1.91.76A3,3,0,0,0,732.12,337.67Zm9.14,9.47V333.76h1.49V335a3.65,3.65,0,0,1,1.18-1.09,3.3,3.3,0,0,1,1.63-.38,3.82,3.82,0,0,1,2.17.64,3.94,3.94,0,0,1,1.44,1.8,7,7,0,0,1,0,5.22,4,4,0,0,1-3.69,2.45,3.12,3.12,0,0,1-1.47-.34,3.17,3.17,0,0,1-1.06-.88v4.71Zm1.49-8.49a4.3,4.3,0,0,0,.75,2.77,2.33,2.33,0,0,0,1.82.89,2.4,2.4,0,0,0,1.88-.92,4.46,4.46,0,0,0,.78-2.88,4.23,4.23,0,0,0-.77-2.76,2.25,2.25,0,0,0-1.81-.93,2.37,2.37,0,0,0-1.86,1A4.37,4.37,0,0,0,742.75,338.65Zm8.89,8.49V333.76h1.48V335a3.58,3.58,0,0,1,1.19-1.09,3.29,3.29,0,0,1,1.62-.38,3.78,3.78,0,0,1,3.61,2.44,6.41,6.41,0,0,1,.49,2.55,6.53,6.53,0,0,1-.53,2.67,4,4,0,0,1-3.69,2.45,3.12,3.12,0,0,1-1.47-.34,3.07,3.07,0,0,1-1.06-.88v4.71Zm1.48-8.49a4.3,4.3,0,0,0,.75,2.77,2.35,2.35,0,0,0,1.83.89,2.38,2.38,0,0,0,1.87-.92,4.46,4.46,0,0,0,.79-2.88,4.23,4.23,0,0,0-.77-2.76,2.25,2.25,0,0,0-1.81-.93,2.37,2.37,0,0,0-1.86,1A4.37,4.37,0,0,0,753.12,338.65Zm15.52,1.67,1.68.21a4.18,4.18,0,0,1-1.48,2.31,5.09,5.09,0,0,1-6.14-.48,5.18,5.18,0,0,1-1.23-3.68,5.32,5.32,0,0,1,1.25-3.79,4.26,4.26,0,0,1,3.26-1.35,4.13,4.13,0,0,1,3.16,1.33,5.21,5.21,0,0,1,1.23,3.7V339h-7.22a3.81,3.81,0,0,0,.91,2.45,2.65,2.65,0,0,0,2,.85,2.57,2.57,0,0,0,1.55-.47A3.19,3.19,0,0,0,768.64,340.32Zm-5.39-2.65h5.4a3.27,3.27,0,0,0-.62-1.83,2.49,2.49,0,0,0-2-.95,2.62,2.62,0,0,0-1.91.76A3,3,0,0,0,763.25,337.67Zm9.12,5.76v-9.67h1.47v1.47a4.16,4.16,0,0,1,1-1.36,1.87,1.87,0,0,1,1.06-.33,3.21,3.21,0,0,1,1.69.53l-.56,1.52a2.37,2.37,0,0,0-1.2-.36,1.52,1.52,0,0,0-1,.33,1.78,1.78,0,0,0-.61.89,6.14,6.14,0,0,0-.28,1.92v5.06Z"/><path d="M713.46,365.43V352.07h4.61a10.35,10.35,0,0,1,2.38.21,4.25,4.25,0,0,1,1.95,1,5.33,5.33,0,0,1,1.58,2.28,9,9,0,0,1,.53,3.17,9.41,9.41,0,0,1-.36,2.71,6.54,6.54,0,0,1-.92,1.93,5,5,0,0,1-1.21,1.22,4.92,4.92,0,0,1-1.59.67,9.26,9.26,0,0,1-2.14.22Zm1.77-1.58h2.86a7.08,7.08,0,0,0,2.06-.23,3,3,0,0,0,1.2-.7,4.14,4.14,0,0,0,1-1.69,8.11,8.11,0,0,0,.36-2.58,6.21,6.21,0,0,0-.69-3.22,3.4,3.4,0,0,0-1.67-1.5,6.87,6.87,0,0,0-2.28-.28h-2.81Zm11.49,1.58v-9.67h1.46v1.47a4,4,0,0,1,1-1.36,1.82,1.82,0,0,1,1.06-.33,3.27,3.27,0,0,1,1.69.53l-.57,1.52a2.32,2.32,0,0,0-1.2-.36,1.54,1.54,0,0,0-1,.33,1.85,1.85,0,0,0-.61.89,6.14,6.14,0,0,0-.28,1.92v5.06ZM732.94,354v-1.89h1.64V354Zm0,11.47v-9.67h1.64v9.67Zm6.84,0-3.69-9.67h1.73l2.08,5.8c.22.62.43,1.27.63,1.94a15.57,15.57,0,0,1,.61-1.83l2.14-5.91H745l-3.65,9.67ZM753,362.32l1.69.21a4.2,4.2,0,0,1-1.49,2.31,5.07,5.07,0,0,1-6.14-.49,5.14,5.14,0,0,1-1.23-3.67,5.36,5.36,0,0,1,1.25-3.79,4.27,4.27,0,0,1,3.27-1.35,4.09,4.09,0,0,1,3.15,1.33,5.22,5.22,0,0,1,1.24,3.7V361h-7.22a3.76,3.76,0,0,0,.9,2.45,2.69,2.69,0,0,0,2,.85,2.59,2.59,0,0,0,1.55-.47A3.25,3.25,0,0,0,753,362.32Zm-5.39-2.65h5.41a3.24,3.24,0,0,0-.63-1.83,2.49,2.49,0,0,0-2-.95,2.64,2.64,0,0,0-1.91.76A3,3,0,0,0,747.65,359.67Zm9.13,5.76v-9.67h1.47v1.47a3.9,3.9,0,0,1,1-1.36,1.82,1.82,0,0,1,1.06-.33,3.27,3.27,0,0,1,1.69.53l-.57,1.52a2.32,2.32,0,0,0-1.2-.36,1.54,1.54,0,0,0-1,.33,1.85,1.85,0,0,0-.61.89,6.45,6.45,0,0,0-.28,1.92v5.06Z"/><path class="cls-9" d="M339.76,323h88.09l8.26,8.26v41.29H348l-8.26-8.26Z"/><path class="cls-6" d="M339.76,323h88.09l8.26,8.26v41.29H348l-8.26-8.26Z"/><path d="M353.73,339.43l1.66-.14a3.83,3.83,0,0,0,.55,1.64,3.15,3.15,0,0,0,1.34,1,5.25,5.25,0,0,0,2.06.4,4.92,4.92,0,0,0,1.78-.3,2.46,2.46,0,0,0,1.16-.81,2,2,0,0,0,.38-1.16,1.68,1.68,0,0,0-.38-1.09,2.64,2.64,0,0,0-1.19-.8,23.67,23.67,0,0,0-2.39-.64,12.18,12.18,0,0,1-2.56-.85,3.54,3.54,0,0,1-1.44-1.23,3.12,3.12,0,0,1-.47-1.67,3.41,3.41,0,0,1,.58-1.88,3.56,3.56,0,0,1,1.67-1.34,6.49,6.49,0,0,1,2.46-.45,6.61,6.61,0,0,1,2.61.48A3.68,3.68,0,0,1,363.3,332a4,4,0,0,1,.65,2.09l-1.69.13a2.69,2.69,0,0,0-.93-1.91,3.51,3.51,0,0,0-2.32-.66,3.69,3.69,0,0,0-2.34.6,1.76,1.76,0,0,0-.73,1.42,1.44,1.44,0,0,0,.53,1.17,6.9,6.9,0,0,0,2.65,1,17.56,17.56,0,0,1,3,.84,4,4,0,0,1,1.72,1.36,3.35,3.35,0,0,1,.56,1.91,3.62,3.62,0,0,1-.61,2,4,4,0,0,1-1.75,1.47,6.1,6.1,0,0,1-2.58.52,7.83,7.83,0,0,1-3.05-.53,4.37,4.37,0,0,1-1.92-1.6A4.48,4.48,0,0,1,353.73,339.43Zm16.42,2.83.23,1.45a6.53,6.53,0,0,1-1.23.14,2.8,2.8,0,0,1-1.39-.28,1.54,1.54,0,0,1-.69-.74,5.61,5.61,0,0,1-.21-1.93v-5.58h-1.2v-1.27h1.2v-2.39l1.63-1v3.37h1.66v1.27h-1.66V341a3.12,3.12,0,0,0,.08.89.69.69,0,0,0,.28.33,1.27,1.27,0,0,0,.58.11A6,6,0,0,0,370.15,342.26Zm8.23-1.64,1.68.2a4.18,4.18,0,0,1-1.48,2.31,5.09,5.09,0,0,1-6.14-.48A5.18,5.18,0,0,1,371.2,339a5.36,5.36,0,0,1,1.25-3.79,4.3,4.3,0,0,1,3.27-1.35,4.13,4.13,0,0,1,3.16,1.33,5.22,5.22,0,0,1,1.23,3.71v.43h-7.22a3.79,3.79,0,0,0,.91,2.46,2.68,2.68,0,0,0,2,.84,2.57,2.57,0,0,0,1.55-.47A3.2,3.2,0,0,0,378.38,340.62ZM373,338h5.4a3.27,3.27,0,0,0-.62-1.83,2.52,2.52,0,0,0-2-.95,2.62,2.62,0,0,0-1.91.76A3,3,0,0,0,373,338Zm9.14,9.47V334.05h1.48v1.25a3.68,3.68,0,0,1,1.19-1.09,3.29,3.29,0,0,1,1.62-.38,3.78,3.78,0,0,1,3.61,2.44,6.41,6.41,0,0,1,.49,2.55,6.53,6.53,0,0,1-.53,2.67,4,4,0,0,1-3.69,2.45,3.12,3.12,0,0,1-1.47-.34,3.07,3.07,0,0,1-1.06-.88v4.71Zm1.48-8.49a4.3,4.3,0,0,0,.75,2.77,2.35,2.35,0,0,0,1.83.89,2.38,2.38,0,0,0,1.87-.92,4.4,4.4,0,0,0,.79-2.88,4.23,4.23,0,0,0-.77-2.76,2.24,2.24,0,0,0-1.81-.92,2.35,2.35,0,0,0-1.86,1A4.39,4.39,0,0,0,383.61,338.94Zm8.89,8.49V334.05H394v1.25a3.65,3.65,0,0,1,1.18-1.09,3.3,3.3,0,0,1,1.63-.38,3.81,3.81,0,0,1,3.61,2.44,6.58,6.58,0,0,1,.48,2.55,6.37,6.37,0,0,1-.53,2.67,4,4,0,0,1-3.69,2.45,3.05,3.05,0,0,1-1.46-.34,3.11,3.11,0,0,1-1.07-.88v4.71Zm1.49-8.49a4.3,4.3,0,0,0,.75,2.77,2.35,2.35,0,0,0,1.83.89,2.39,2.39,0,0,0,1.87-.92,4.46,4.46,0,0,0,.78-2.88,4.23,4.23,0,0,0-.76-2.76,2.26,2.26,0,0,0-1.82-.92,2.38,2.38,0,0,0-1.86,1A4.39,4.39,0,0,0,394,338.94Zm15.51,1.68,1.69.2a4.18,4.18,0,0,1-1.48,2.31,5.09,5.09,0,0,1-6.14-.48,5.14,5.14,0,0,1-1.24-3.68,5.36,5.36,0,0,1,1.25-3.79,4.28,4.28,0,0,1,3.27-1.35,4.09,4.09,0,0,1,3.15,1.33,5.18,5.18,0,0,1,1.24,3.71v.43H404a3.74,3.74,0,0,0,.91,2.46,2.68,2.68,0,0,0,2,.84,2.59,2.59,0,0,0,1.55-.47A3.26,3.26,0,0,0,409.5,340.62ZM404.11,338h5.41a3.2,3.2,0,0,0-.63-1.83,2.5,2.5,0,0,0-2-.95,2.6,2.6,0,0,0-1.9.76A3,3,0,0,0,404.11,338Zm9.13,5.76v-9.67h1.47v1.47a4,4,0,0,1,1-1.36,1.85,1.85,0,0,1,1.06-.33,3.17,3.17,0,0,1,1.69.54l-.56,1.51a2.38,2.38,0,0,0-1.21-.36,1.56,1.56,0,0,0-1,.33,1.9,1.9,0,0,0-.61.89,6.45,6.45,0,0,0-.28,1.92v5.06Z"/><path d="M354.33,365.72V352.37h4.61a10.29,10.29,0,0,1,2.37.2,4.25,4.25,0,0,1,1.95.95,5.36,5.36,0,0,1,1.58,2.28,8.75,8.75,0,0,1,.53,3.17,9.36,9.36,0,0,1-.36,2.71,6.25,6.25,0,0,1-.92,1.94,4.76,4.76,0,0,1-1.2,1.21,5,5,0,0,1-1.59.68,9.88,9.88,0,0,1-2.14.21Zm1.76-1.57H359a7,7,0,0,0,2.06-.24,3,3,0,0,0,1.21-.7,4.25,4.25,0,0,0,1-1.69,8.11,8.11,0,0,0,.36-2.58,6.21,6.21,0,0,0-.69-3.22,3.45,3.45,0,0,0-1.67-1.5,6.87,6.87,0,0,0-2.28-.28h-2.82Zm11.49,1.57v-9.67h1.47v1.47a4.16,4.16,0,0,1,1-1.36,1.85,1.85,0,0,1,1.06-.33,3.14,3.14,0,0,1,1.69.54l-.56,1.51a2.37,2.37,0,0,0-1.2-.36,1.52,1.52,0,0,0-1,.33,1.83,1.83,0,0,0-.61.89,6.14,6.14,0,0,0-.28,1.92v5.06Zm6.23-11.46v-1.89h1.64v1.89Zm0,11.46v-9.67h1.64v9.67Zm6.83,0L377,356.05h1.74l2.08,5.8c.22.62.42,1.27.62,1.94.14-.51.34-1.12.61-1.83l2.14-5.91h1.69l-3.66,9.67Zm13.27-3.1,1.69.2a4.25,4.25,0,0,1-1.49,2.31,5.09,5.09,0,0,1-6.14-.48,5.18,5.18,0,0,1-1.23-3.68,5.32,5.32,0,0,1,1.25-3.79,4.26,4.26,0,0,1,3.26-1.35,4.11,4.11,0,0,1,3.16,1.33,5.22,5.22,0,0,1,1.23,3.71v.43h-7.22a3.84,3.84,0,0,0,.91,2.46,2.69,2.69,0,0,0,2,.84,2.54,2.54,0,0,0,1.54-.47A3.2,3.2,0,0,0,393.91,362.62ZM388.52,360h5.4a3.27,3.27,0,0,0-.62-1.83,2.52,2.52,0,0,0-2-.95,2.62,2.62,0,0,0-1.91.76A3,3,0,0,0,388.52,360Zm9.12,5.76v-9.67h1.47v1.47a4.16,4.16,0,0,1,1-1.36,1.88,1.88,0,0,1,1.07-.33,3.14,3.14,0,0,1,1.68.54l-.56,1.51a2.37,2.37,0,0,0-1.2-.36,1.52,1.52,0,0,0-1,.33,1.83,1.83,0,0,0-.61.89,6.14,6.14,0,0,0-.28,1.92v5.06Z"/><path class="cls-9" d="M340.49,646.58h88.09l8.26,8.26v41.28H348.75l-8.26-8.25Z"/><path class="cls-6" d="M340.49,646.58h88.09l8.26,8.26v41.28H348.75l-8.26-8.25Z"/><path d="M354.47,663l1.65-.14a4,4,0,0,0,.55,1.64,3.15,3.15,0,0,0,1.34,1,5.3,5.3,0,0,0,2.07.39,5.19,5.19,0,0,0,1.78-.29,2.43,2.43,0,0,0,1.15-.82,2,2,0,0,0,.38-1.15,1.73,1.73,0,0,0-.38-1.1,2.73,2.73,0,0,0-1.18-.79,24.5,24.5,0,0,0-2.39-.64,13,13,0,0,1-2.57-.85,3.58,3.58,0,0,1-1.43-1.23,3,3,0,0,1-.47-1.67,3.33,3.33,0,0,1,.58-1.88,3.51,3.51,0,0,1,1.67-1.34,6.44,6.44,0,0,1,2.45-.46,6.6,6.6,0,0,1,2.61.49,3.68,3.68,0,0,1,1.75,1.41,4,4,0,0,1,.66,2.09l-1.69.12a2.74,2.74,0,0,0-.94-1.9,3.5,3.5,0,0,0-2.31-.66,3.72,3.72,0,0,0-2.35.6,1.79,1.79,0,0,0-.73,1.42,1.47,1.47,0,0,0,.53,1.17,7.08,7.08,0,0,0,2.66,1,17.36,17.36,0,0,1,2.95.84,4,4,0,0,1,1.72,1.36,3.35,3.35,0,0,1,.56,1.91,3.62,3.62,0,0,1-.61,2,4,4,0,0,1-1.75,1.47,6.1,6.1,0,0,1-2.58.52,7.77,7.77,0,0,1-3-.53,4.32,4.32,0,0,1-1.92-1.6A4.51,4.51,0,0,1,354.47,663Zm16.41,2.82.23,1.46a6.44,6.44,0,0,1-1.23.14,3,3,0,0,1-1.39-.28,1.69,1.69,0,0,1-.69-.74,6,6,0,0,1-.2-1.94v-5.57h-1.2V657.6h1.2v-2.39l1.62-1v3.37h1.66v1.27h-1.66v5.67a3.17,3.17,0,0,0,.08.89.88.88,0,0,0,.28.33,1.3,1.3,0,0,0,.58.11A4.5,4.5,0,0,0,370.88,665.8Zm8.23-1.64,1.69.21a4.2,4.2,0,0,1-1.49,2.31,5.07,5.07,0,0,1-6.14-.49,5.14,5.14,0,0,1-1.23-3.67,5.32,5.32,0,0,1,1.25-3.79,4.26,4.26,0,0,1,3.26-1.35,4.1,4.1,0,0,1,3.16,1.33,5.21,5.21,0,0,1,1.23,3.7v.44h-7.21a3.76,3.76,0,0,0,.9,2.45,2.67,2.67,0,0,0,2,.85,2.54,2.54,0,0,0,1.54-.47A3.19,3.19,0,0,0,379.11,664.16Zm-5.39-2.65h5.41a3.32,3.32,0,0,0-.63-1.83,2.49,2.49,0,0,0-2-.95,2.62,2.62,0,0,0-1.91.76A3,3,0,0,0,373.72,661.51Zm9.14,9.47V657.6h1.48v1.25a3.68,3.68,0,0,1,1.19-1.09,3.3,3.3,0,0,1,1.63-.38,3.82,3.82,0,0,1,2.17.64,3.94,3.94,0,0,1,1.44,1.8,7,7,0,0,1,0,5.22,4,4,0,0,1-3.69,2.45,3.12,3.12,0,0,1-1.47-.34,3.17,3.17,0,0,1-1.06-.88V671Zm1.48-8.49a4.3,4.3,0,0,0,.75,2.77,2.36,2.36,0,0,0,1.83.89,2.4,2.4,0,0,0,1.88-.92,4.46,4.46,0,0,0,.78-2.88,4.23,4.23,0,0,0-.77-2.76,2.25,2.25,0,0,0-1.81-.93,2.37,2.37,0,0,0-1.86,1A4.37,4.37,0,0,0,384.34,662.49Zm8.9,8.49V657.6h1.48v1.25a3.58,3.58,0,0,1,1.19-1.09,3.29,3.29,0,0,1,1.62-.38,3.78,3.78,0,0,1,2.17.64,3.82,3.82,0,0,1,1.44,1.8,6.41,6.41,0,0,1,.49,2.55,6.53,6.53,0,0,1-.53,2.67,4,4,0,0,1-3.69,2.45,3.12,3.12,0,0,1-1.47-.34,3.07,3.07,0,0,1-1.06-.88V671Zm1.48-8.49a4.3,4.3,0,0,0,.75,2.77,2.35,2.35,0,0,0,1.83.89,2.38,2.38,0,0,0,1.87-.92,4.46,4.46,0,0,0,.78-2.88,4.23,4.23,0,0,0-.76-2.76,2.25,2.25,0,0,0-1.81-.93,2.37,2.37,0,0,0-1.86,1A4.37,4.37,0,0,0,394.72,662.49Zm15.52,1.67,1.68.21a4.18,4.18,0,0,1-1.48,2.31,5.07,5.07,0,0,1-6.14-.49,5.14,5.14,0,0,1-1.24-3.67,5.36,5.36,0,0,1,1.25-3.79,4.3,4.3,0,0,1,3.27-1.35,4.13,4.13,0,0,1,3.16,1.33,5.21,5.21,0,0,1,1.23,3.7v.44h-7.22a3.76,3.76,0,0,0,.91,2.45,2.65,2.65,0,0,0,2,.85,2.57,2.57,0,0,0,1.55-.47A3.19,3.19,0,0,0,410.24,664.16Zm-5.39-2.65h5.4a3.24,3.24,0,0,0-.62-1.83,2.49,2.49,0,0,0-2-.95,2.62,2.62,0,0,0-1.91.76A3,3,0,0,0,404.85,661.51Zm9.12,5.76V657.6h1.47v1.47a4.16,4.16,0,0,1,1-1.36,1.85,1.85,0,0,1,1.06-.33,3.21,3.21,0,0,1,1.69.53l-.56,1.52a2.37,2.37,0,0,0-1.2-.36,1.52,1.52,0,0,0-1,.33,1.78,1.78,0,0,0-.61.89,6.14,6.14,0,0,0-.28,1.92v5.06Z"/><path d="M355.06,689.27V675.91h4.61a10.35,10.35,0,0,1,2.38.21,4.25,4.25,0,0,1,1.95,1,5.33,5.33,0,0,1,1.58,2.28,9,9,0,0,1,.53,3.17,9.41,9.41,0,0,1-.36,2.71,6.54,6.54,0,0,1-.92,1.93,5,5,0,0,1-1.21,1.22,4.92,4.92,0,0,1-1.59.67,9.26,9.26,0,0,1-2.14.22Zm1.77-1.58h2.86a7.08,7.08,0,0,0,2.06-.23,3,3,0,0,0,1.2-.7,4.14,4.14,0,0,0,1-1.69,8.11,8.11,0,0,0,.36-2.58,6.21,6.21,0,0,0-.69-3.22,3.4,3.4,0,0,0-1.67-1.5,6.87,6.87,0,0,0-2.28-.28h-2.81Zm11.49,1.58V679.6h1.46v1.47a4,4,0,0,1,1-1.36,1.82,1.82,0,0,1,1.06-.33,3.27,3.27,0,0,1,1.69.53l-.57,1.52a2.32,2.32,0,0,0-1.2-.36,1.52,1.52,0,0,0-1,.33,1.85,1.85,0,0,0-.61.89,6.14,6.14,0,0,0-.28,1.92v5.06Zm6.22-11.47v-1.89h1.64v1.89Zm0,11.47V679.6h1.64v9.67Zm6.84,0-3.69-9.67h1.73l2.08,5.8c.22.62.43,1.27.63,1.94a15.57,15.57,0,0,1,.61-1.83l2.14-5.91h1.68l-3.65,9.67Zm13.26-3.11,1.69.21a4.2,4.2,0,0,1-1.49,2.31,5.07,5.07,0,0,1-6.14-.49,5.14,5.14,0,0,1-1.23-3.67,5.36,5.36,0,0,1,1.25-3.79,4.27,4.27,0,0,1,3.27-1.35,4.09,4.09,0,0,1,3.15,1.33,5.22,5.22,0,0,1,1.24,3.7v.44h-7.22a3.76,3.76,0,0,0,.9,2.45,2.67,2.67,0,0,0,2,.85,2.59,2.59,0,0,0,1.55-.47A3.25,3.25,0,0,0,394.64,686.16Zm-5.39-2.65h5.41a3.24,3.24,0,0,0-.63-1.83,2.49,2.49,0,0,0-2-.95,2.64,2.64,0,0,0-1.91.76A3,3,0,0,0,389.25,683.51Zm9.13,5.76V679.6h1.47v1.47a3.9,3.9,0,0,1,1-1.36,1.82,1.82,0,0,1,1.06-.33,3.27,3.27,0,0,1,1.69.53l-.57,1.52a2.32,2.32,0,0,0-1.2-.36,1.54,1.54,0,0,0-1,.33,1.85,1.85,0,0,0-.61.89,6.45,6.45,0,0,0-.28,1.92v5.06Z"/><path class="cls-13" d="M686.27,204.3h0c0-32.35,27.22-58.58,60.8-58.58h0a62,62,0,0,1,43,17.16,57.5,57.5,0,0,1,17.81,41.42h0c0,32.36-27.22,58.59-60.8,58.59h0C713.49,262.89,686.27,236.66,686.27,204.3Z"/><path class="cls-6" d="M686.27,204.3h0c0-32.35,27.22-58.58,60.8-58.58h0a62,62,0,0,1,43,17.16,57.5,57.5,0,0,1,17.81,41.42h0c0,32.36-27.22,58.59-60.8,58.59h0C713.49,262.89,686.27,236.66,686.27,204.3Z"/><path d="M713.92,195.93l1.65-.14a4,4,0,0,0,.55,1.64,3.15,3.15,0,0,0,1.34,1,5.3,5.3,0,0,0,2.07.39,5,5,0,0,0,1.78-.29,2.43,2.43,0,0,0,1.15-.82,1.93,1.93,0,0,0,.38-1.15,1.73,1.73,0,0,0-.38-1.1,2.73,2.73,0,0,0-1.18-.79,24.5,24.5,0,0,0-2.39-.64,12.32,12.32,0,0,1-2.57-.85,3.58,3.58,0,0,1-1.43-1.23,3,3,0,0,1-.47-1.67,3.33,3.33,0,0,1,.58-1.88,3.51,3.51,0,0,1,1.67-1.34,6.44,6.44,0,0,1,2.45-.45,6.61,6.61,0,0,1,2.61.48,3.68,3.68,0,0,1,1.75,1.41,4,4,0,0,1,.66,2.09l-1.69.12a2.7,2.7,0,0,0-.94-1.9,3.5,3.5,0,0,0-2.31-.66,3.67,3.67,0,0,0-2.34.6,1.77,1.77,0,0,0-.74,1.42,1.47,1.47,0,0,0,.53,1.17,7,7,0,0,0,2.66,1,17.36,17.36,0,0,1,3,.84,4,4,0,0,1,1.72,1.36,3.28,3.28,0,0,1,.56,1.91,3.62,3.62,0,0,1-.61,2,4,4,0,0,1-1.75,1.47,6.08,6.08,0,0,1-2.57.52,7.79,7.79,0,0,1-3.05-.53,4.37,4.37,0,0,1-1.92-1.6A4.51,4.51,0,0,1,713.92,195.93Zm16.41,2.82.23,1.46a6.44,6.44,0,0,1-1.23.14,3,3,0,0,1-1.39-.28,1.69,1.69,0,0,1-.69-.74,6,6,0,0,1-.2-1.93v-5.58h-1.2v-1.27h1.2v-2.39l1.62-1v3.37h1.66v1.27h-1.66v5.67a3.17,3.17,0,0,0,.08.89.81.81,0,0,0,.28.33,1.3,1.3,0,0,0,.58.11A4.5,4.5,0,0,0,730.33,198.75Zm8.23-1.64,1.69.21a4.2,4.2,0,0,1-1.49,2.31,5.09,5.09,0,0,1-6.14-.48,5.18,5.18,0,0,1-1.23-3.68,5.32,5.32,0,0,1,1.25-3.79,4.26,4.26,0,0,1,3.26-1.35,4.1,4.1,0,0,1,3.16,1.33,5.21,5.21,0,0,1,1.23,3.7v.44h-7.21a3.76,3.76,0,0,0,.9,2.45,2.67,2.67,0,0,0,2,.85,2.54,2.54,0,0,0,1.54-.47A3.19,3.19,0,0,0,738.56,197.11Zm-5.39-2.65h5.41a3.35,3.35,0,0,0-.63-1.83,2.49,2.49,0,0,0-2-.95,2.62,2.62,0,0,0-1.91.76A3,3,0,0,0,733.17,194.46Zm9.14,9.47V190.55h1.49v1.25a3.65,3.65,0,0,1,1.18-1.09,3.3,3.3,0,0,1,1.63-.38,3.82,3.82,0,0,1,2.17.64,3.88,3.88,0,0,1,1.44,1.8,7,7,0,0,1-.05,5.22,4,4,0,0,1-3.69,2.45,3.12,3.12,0,0,1-1.47-.34,3.17,3.17,0,0,1-1.06-.88v4.71Zm1.49-8.49a4.3,4.3,0,0,0,.75,2.77,2.34,2.34,0,0,0,1.82.89,2.4,2.4,0,0,0,1.88-.92,4.46,4.46,0,0,0,.78-2.88,4.23,4.23,0,0,0-.77-2.76,2.25,2.25,0,0,0-1.81-.93,2.37,2.37,0,0,0-1.86,1A4.37,4.37,0,0,0,743.8,195.44Zm8.89,8.49V190.55h1.48v1.25a3.68,3.68,0,0,1,1.19-1.09,3.29,3.29,0,0,1,1.62-.38,3.78,3.78,0,0,1,3.61,2.44,6.41,6.41,0,0,1,.49,2.55,6.53,6.53,0,0,1-.53,2.67,4,4,0,0,1-3.69,2.45,3.12,3.12,0,0,1-1.47-.34,3.07,3.07,0,0,1-1.06-.88v4.71Zm1.48-8.49a4.3,4.3,0,0,0,.75,2.77,2.35,2.35,0,0,0,1.83.89,2.38,2.38,0,0,0,1.87-.92,4.46,4.46,0,0,0,.79-2.88,4.23,4.23,0,0,0-.77-2.76,2.25,2.25,0,0,0-1.81-.93,2.37,2.37,0,0,0-1.86,1A4.37,4.37,0,0,0,754.17,195.44Zm15.52,1.67,1.68.21a4.18,4.18,0,0,1-1.48,2.31,5.09,5.09,0,0,1-6.14-.48,5.18,5.18,0,0,1-1.23-3.68,5.32,5.32,0,0,1,1.25-3.79,4.26,4.26,0,0,1,3.26-1.35,4.13,4.13,0,0,1,3.16,1.33,5.21,5.21,0,0,1,1.23,3.7v.44H764.2a3.81,3.81,0,0,0,.91,2.45,2.65,2.65,0,0,0,2,.85,2.57,2.57,0,0,0,1.55-.47A3.19,3.19,0,0,0,769.69,197.11Zm-5.39-2.65h5.4a3.27,3.27,0,0,0-.62-1.83,2.49,2.49,0,0,0-2-.95,2.62,2.62,0,0,0-1.91.76A3,3,0,0,0,764.3,194.46Zm9.12,5.76v-9.67h1.47V192a4.16,4.16,0,0,1,1-1.36,1.87,1.87,0,0,1,1.06-.33,3.21,3.21,0,0,1,1.69.53l-.56,1.52a2.37,2.37,0,0,0-1.2-.36,1.52,1.52,0,0,0-1,.33,1.78,1.78,0,0,0-.61.89,6.14,6.14,0,0,0-.28,1.92v5.06Z"/><path d="M714.46,222.22V208.86h2.66l3.16,9.46c.29.88.5,1.54.64,2,.15-.49.39-1.2.7-2.14l3.2-9.3h2.38v13.36h-1.7V211.05l-3.88,11.17H720l-3.86-11.37v11.37Zm14.78-4.84a5,5,0,0,1,1.48-4,4.52,4.52,0,0,1,3-1.08,4.35,4.35,0,0,1,3.27,1.32,4.93,4.93,0,0,1,1.26,3.6,6.49,6.49,0,0,1-.56,2.94,4,4,0,0,1-1.64,1.66,4.77,4.77,0,0,1-2.33.59,4.36,4.36,0,0,1-3.28-1.29A5.28,5.28,0,0,1,729.24,217.38Zm1.69,0a4.25,4.25,0,0,0,.79,2.8,2.65,2.65,0,0,0,2,.92,2.61,2.61,0,0,0,2-.92,4.29,4.29,0,0,0,.81-2.85,4,4,0,0,0-.81-2.72,2.61,2.61,0,0,0-2-.92,2.65,2.65,0,0,0-2,.92A4.13,4.13,0,0,0,730.93,217.38Zm12.87,3.37.24,1.46a6.53,6.53,0,0,1-1.24.14,3,3,0,0,1-1.39-.28,1.69,1.69,0,0,1-.69-.74,6,6,0,0,1-.2-1.93v-5.58h-1.2v-1.27h1.2v-2.39l1.63-1v3.37h1.65v1.27h-1.65v5.67a3.31,3.31,0,0,0,.07.89.84.84,0,0,0,.29.33,1.22,1.22,0,0,0,.57.11A4.5,4.5,0,0,0,743.8,220.75Zm1-3.37a5,5,0,0,1,1.48-4,4.52,4.52,0,0,1,3.05-1.08,4.35,4.35,0,0,1,3.27,1.32,4.93,4.93,0,0,1,1.26,3.6,6.49,6.49,0,0,1-.56,2.94,4,4,0,0,1-1.64,1.66,4.77,4.77,0,0,1-2.33.59,4.36,4.36,0,0,1-3.28-1.29A5.28,5.28,0,0,1,744.8,217.38Zm1.69,0a4.25,4.25,0,0,0,.79,2.8,2.72,2.72,0,0,0,4.08,0,4.29,4.29,0,0,0,.81-2.85,4,4,0,0,0-.81-2.72,2.72,2.72,0,0,0-4.08,0A4.13,4.13,0,0,0,746.49,217.38Zm9.28,4.84v-9.67h1.47V214a4,4,0,0,1,1-1.36,1.85,1.85,0,0,1,1.06-.33,3.24,3.24,0,0,1,1.69.53l-.56,1.52a2.38,2.38,0,0,0-1.21-.36,1.56,1.56,0,0,0-1,.33,1.85,1.85,0,0,0-.61.89,6.45,6.45,0,0,0-.28,1.92v5.06Z"/><path class="cls-13" d="M819.45,204.3h0c0-32.36,27.22-58.59,60.8-58.59h0a62,62,0,0,1,43,17.16,57.55,57.55,0,0,1,17.81,41.43h0c0,32.37-27.22,58.6-60.81,58.6h0C846.67,262.9,819.45,236.67,819.45,204.3Z"/><path class="cls-6" d="M819.45,204.3h0c0-32.36,27.22-58.59,60.8-58.59h0a62,62,0,0,1,43,17.16,57.55,57.55,0,0,1,17.81,41.43h0c0,32.37-27.22,58.6-60.81,58.6h0C846.67,262.9,819.45,236.67,819.45,204.3Z"/><path d="M847.1,195.93l1.66-.14a3.83,3.83,0,0,0,.55,1.64,3.15,3.15,0,0,0,1.34,1,5.25,5.25,0,0,0,2.06.4,4.92,4.92,0,0,0,1.78-.3,2.46,2.46,0,0,0,1.16-.81,2,2,0,0,0,.38-1.16,1.68,1.68,0,0,0-.38-1.09,2.64,2.64,0,0,0-1.19-.8,23.67,23.67,0,0,0-2.39-.64,12.18,12.18,0,0,1-2.56-.85,3.61,3.61,0,0,1-1.44-1.23,3.12,3.12,0,0,1-.47-1.67,3.41,3.41,0,0,1,.58-1.88,3.56,3.56,0,0,1,1.67-1.34,6.49,6.49,0,0,1,2.46-.45,6.61,6.61,0,0,1,2.61.48,3.68,3.68,0,0,1,1.75,1.41,4,4,0,0,1,.65,2.09l-1.68.13a2.74,2.74,0,0,0-.94-1.91,3.5,3.5,0,0,0-2.31-.66,3.7,3.7,0,0,0-2.35.6,1.76,1.76,0,0,0-.73,1.42,1.44,1.44,0,0,0,.53,1.17,6.9,6.9,0,0,0,2.65,1,17.56,17.56,0,0,1,3,.84,4,4,0,0,1,1.72,1.36,3.35,3.35,0,0,1,.56,1.91,3.62,3.62,0,0,1-.61,2,4,4,0,0,1-1.75,1.47,6.1,6.1,0,0,1-2.58.52,7.83,7.83,0,0,1-3-.53,4.37,4.37,0,0,1-1.92-1.6A4.48,4.48,0,0,1,847.1,195.93Zm16.42,2.83.23,1.45a6.53,6.53,0,0,1-1.23.14,2.8,2.8,0,0,1-1.39-.28,1.54,1.54,0,0,1-.69-.74,5.69,5.69,0,0,1-.2-1.93v-5.58H859v-1.27h1.21v-2.39l1.62-1v3.37h1.66v1.27h-1.66v5.67a3.12,3.12,0,0,0,.08.89.69.69,0,0,0,.28.33,1.27,1.27,0,0,0,.58.11A6,6,0,0,0,863.52,198.76Zm8.23-1.64,1.68.2a4.18,4.18,0,0,1-1.48,2.31,5.09,5.09,0,0,1-6.14-.48,5.18,5.18,0,0,1-1.24-3.68,5.36,5.36,0,0,1,1.25-3.79,4.3,4.3,0,0,1,3.27-1.35,4.13,4.13,0,0,1,3.16,1.33,5.22,5.22,0,0,1,1.23,3.71v.43h-7.22a3.79,3.79,0,0,0,.91,2.46,2.68,2.68,0,0,0,2,.84,2.57,2.57,0,0,0,1.55-.47A3.2,3.2,0,0,0,871.75,197.12Zm-5.39-2.66h5.4a3.27,3.27,0,0,0-.62-1.83,2.52,2.52,0,0,0-2-.95,2.62,2.62,0,0,0-1.91.76A3,3,0,0,0,866.36,194.46Zm9.14,9.47V190.55H877v1.25a3.68,3.68,0,0,1,1.19-1.09,3.29,3.29,0,0,1,1.62-.38,3.78,3.78,0,0,1,3.61,2.44,6.41,6.41,0,0,1,.49,2.55,6.53,6.53,0,0,1-.53,2.67,4,4,0,0,1-3.69,2.45,3.12,3.12,0,0,1-1.47-.34,3.07,3.07,0,0,1-1.06-.88v4.71Zm1.48-8.49a4.3,4.3,0,0,0,.75,2.77,2.35,2.35,0,0,0,1.83.89,2.38,2.38,0,0,0,1.87-.92,4.4,4.4,0,0,0,.79-2.88,4.23,4.23,0,0,0-.77-2.76,2.24,2.24,0,0,0-1.81-.92,2.35,2.35,0,0,0-1.86,1A4.39,4.39,0,0,0,877,195.44Zm8.89,8.49V190.55h1.49v1.25a3.65,3.65,0,0,1,1.18-1.09,3.3,3.3,0,0,1,1.63-.38,3.81,3.81,0,0,1,3.61,2.44,6.58,6.58,0,0,1,.48,2.55,6.37,6.37,0,0,1-.53,2.67,4,4,0,0,1-3.69,2.45,3.05,3.05,0,0,1-1.46-.34,3.11,3.11,0,0,1-1.07-.88v4.71Zm1.49-8.49a4.3,4.3,0,0,0,.75,2.77,2.35,2.35,0,0,0,1.83.89,2.39,2.39,0,0,0,1.87-.92,4.46,4.46,0,0,0,.78-2.88,4.23,4.23,0,0,0-.76-2.76,2.26,2.26,0,0,0-1.82-.92,2.38,2.38,0,0,0-1.86,1A4.39,4.39,0,0,0,887.36,195.44Zm15.51,1.68,1.69.2a4.18,4.18,0,0,1-1.48,2.31,5.09,5.09,0,0,1-6.14-.48,5.14,5.14,0,0,1-1.24-3.68,5.36,5.36,0,0,1,1.25-3.79,4.28,4.28,0,0,1,3.27-1.35,4.09,4.09,0,0,1,3.15,1.33,5.18,5.18,0,0,1,1.24,3.71v.43h-7.22a3.74,3.74,0,0,0,.91,2.46,2.68,2.68,0,0,0,2,.84,2.57,2.57,0,0,0,1.55-.47A3.19,3.19,0,0,0,902.87,197.12Zm-5.39-2.66h5.41a3.2,3.2,0,0,0-.63-1.83,2.5,2.5,0,0,0-2-.95,2.6,2.6,0,0,0-1.9.76A3,3,0,0,0,897.48,194.46Zm9.13,5.76v-9.67h1.47V192a4,4,0,0,1,1-1.36,1.85,1.85,0,0,1,1.06-.33,3.17,3.17,0,0,1,1.69.54l-.56,1.51a2.38,2.38,0,0,0-1.21-.36,1.56,1.56,0,0,0-1,.33,1.81,1.81,0,0,0-.6.89,6.14,6.14,0,0,0-.29,1.92v5.06Z"/><path d="M847.65,222.22V208.87h2.66l3.15,9.45c.3.88.51,1.55.64,2,.16-.49.39-1.2.71-2.14l3.2-9.29h2.38v13.35h-1.71V211.05l-3.87,11.17h-1.6l-3.86-11.37v11.37Zm14.78-4.84a5,5,0,0,1,1.48-4,4.5,4.5,0,0,1,3.05-1.08,4.31,4.31,0,0,1,3.26,1.32,4.91,4.91,0,0,1,1.27,3.61,6.44,6.44,0,0,1-.56,2.93,4.09,4.09,0,0,1-1.64,1.66,4.67,4.67,0,0,1-2.33.59,4.35,4.35,0,0,1-3.28-1.29A5.23,5.23,0,0,1,862.43,217.38Zm1.68,0a4.25,4.25,0,0,0,.8,2.8,2.72,2.72,0,0,0,4.08,0,4.29,4.29,0,0,0,.81-2.85,4,4,0,0,0-.81-2.71,2.7,2.7,0,0,0-4.08,0A4.08,4.08,0,0,0,864.11,217.38ZM877,220.76l.23,1.45a6.44,6.44,0,0,1-1.23.14,2.83,2.83,0,0,1-1.39-.28,1.64,1.64,0,0,1-.69-.74,6,6,0,0,1-.2-1.93v-5.58H872.5v-1.27h1.21v-2.39l1.62-1v3.37H877v1.27h-1.66v5.67a3.12,3.12,0,0,0,.08.89.75.75,0,0,0,.28.33,1.3,1.3,0,0,0,.58.11A5.73,5.73,0,0,0,877,220.76Zm1-3.38a5,5,0,0,1,1.48-4,4.5,4.5,0,0,1,3-1.08,4.31,4.31,0,0,1,3.26,1.32,4.91,4.91,0,0,1,1.27,3.61,6.44,6.44,0,0,1-.56,2.93,4.06,4.06,0,0,1-1.65,1.66,4.6,4.6,0,0,1-2.32.59,4.35,4.35,0,0,1-3.28-1.29A5.23,5.23,0,0,1,878,217.38Zm1.68,0a4.25,4.25,0,0,0,.8,2.8,2.72,2.72,0,0,0,4.08,0,4.29,4.29,0,0,0,.81-2.85,4,4,0,0,0-.81-2.71,2.7,2.7,0,0,0-4.08,0A4.08,4.08,0,0,0,879.67,217.38Zm9.28,4.84v-9.67h1.47V214a4.16,4.16,0,0,1,1-1.36,1.88,1.88,0,0,1,1.07-.33,3.14,3.14,0,0,1,1.68.54l-.56,1.51a2.34,2.34,0,0,0-1.2-.36,1.52,1.52,0,0,0-1,.33,1.9,1.9,0,0,0-.61.89,6.14,6.14,0,0,0-.28,1.92v5.06Z"/><path class="cls-4" d="M747.07,262.89v59.84"/><path class="cls-14" d="M747.07,262.89v59.84"/><path class="cls-4" d="M880.25,262.9V323"/><path class="cls-14" d="M880.25,262.9V323"/><path class="cls-13" d="M154.55,347.81h0c0-35.07,29.09-63.5,65-63.5h0a65.73,65.73,0,0,1,45.94,18.6,62.8,62.8,0,0,1,19,44.9h0c0,35.06-29.09,63.49-65,63.49h0C183.64,411.3,154.55,382.87,154.55,347.81Z"/><path class="cls-6" d="M154.55,347.81h0c0-35.07,29.09-63.5,65-63.5h0a65.73,65.73,0,0,1,45.94,18.6,62.8,62.8,0,0,1,19,44.9h0c0,35.06-29.09,63.49-65,63.49h0C183.64,411.3,154.55,382.87,154.55,347.81Z"/><path d="M183.42,339.43l1.66-.14a3.83,3.83,0,0,0,.55,1.64A3.17,3.17,0,0,0,187,342a5.25,5.25,0,0,0,2.06.39,4.92,4.92,0,0,0,1.78-.3,2.46,2.46,0,0,0,1.16-.81,2,2,0,0,0,.38-1.16A1.68,1.68,0,0,0,192,339a2.64,2.64,0,0,0-1.19-.8,23.67,23.67,0,0,0-2.39-.64,12.31,12.31,0,0,1-2.56-.84,3.71,3.71,0,0,1-1.44-1.24,3.12,3.12,0,0,1-.47-1.67,3.41,3.41,0,0,1,.58-1.88,3.56,3.56,0,0,1,1.67-1.34,6.49,6.49,0,0,1,2.46-.45,6.61,6.61,0,0,1,2.61.48A3.68,3.68,0,0,1,193,332a4,4,0,0,1,.65,2.09l-1.68.13a2.74,2.74,0,0,0-.94-1.91,3.5,3.5,0,0,0-2.31-.66,3.7,3.7,0,0,0-2.35.6,1.76,1.76,0,0,0-.73,1.42,1.44,1.44,0,0,0,.53,1.17,6.9,6.9,0,0,0,2.65,1,17.56,17.56,0,0,1,3,.84,4,4,0,0,1,1.72,1.36,3.37,3.37,0,0,1,.56,1.91,3.67,3.67,0,0,1-.61,2,4.09,4.09,0,0,1-1.75,1.46,6.1,6.1,0,0,1-2.58.52,7.83,7.83,0,0,1-3.05-.53,4.42,4.42,0,0,1-1.92-1.59A4.55,4.55,0,0,1,183.42,339.43Zm16.42,2.83.23,1.45a6.53,6.53,0,0,1-1.23.14,2.8,2.8,0,0,1-1.39-.28,1.56,1.56,0,0,1-.69-.73,5.8,5.8,0,0,1-.2-1.94v-5.58h-1.21v-1.27h1.21v-2.39l1.62-1v3.37h1.66v1.27h-1.66V341a3.12,3.12,0,0,0,.08.89.69.69,0,0,0,.28.33,1.27,1.27,0,0,0,.58.11A6,6,0,0,0,199.84,342.26Zm8.23-1.64,1.68.2a4.18,4.18,0,0,1-1.48,2.31,5.09,5.09,0,0,1-6.14-.48,5.17,5.17,0,0,1-1.24-3.67,5.37,5.37,0,0,1,1.25-3.8,4.29,4.29,0,0,1,3.27-1.34,4.12,4.12,0,0,1,3.16,1.32,5.22,5.22,0,0,1,1.23,3.71v.43h-7.22a3.79,3.79,0,0,0,.91,2.46,2.68,2.68,0,0,0,2,.84,2.57,2.57,0,0,0,1.55-.47A3.2,3.2,0,0,0,208.07,340.62ZM202.68,338h5.4a3.27,3.27,0,0,0-.62-1.83,2.52,2.52,0,0,0-2-.95,2.62,2.62,0,0,0-1.91.76A3,3,0,0,0,202.68,338Zm9.14,9.47V334.05h1.48v1.25a3.68,3.68,0,0,1,1.19-1.09,3.29,3.29,0,0,1,1.62-.37,3.79,3.79,0,0,1,3.61,2.43,6.41,6.41,0,0,1,.49,2.55,6.53,6.53,0,0,1-.53,2.67,4.11,4.11,0,0,1-1.55,1.83,4,4,0,0,1-2.14.62,3.12,3.12,0,0,1-1.47-.34,3.16,3.16,0,0,1-1.06-.87v4.7Zm1.48-8.49a4.28,4.28,0,0,0,.75,2.77,2.35,2.35,0,0,0,1.83.89,2.38,2.38,0,0,0,1.87-.92,4.38,4.38,0,0,0,.79-2.88,4.23,4.23,0,0,0-.77-2.76,2.24,2.24,0,0,0-1.81-.92,2.35,2.35,0,0,0-1.86,1A4.39,4.39,0,0,0,213.3,338.94Zm8.89,8.49V334.05h1.49v1.25a3.65,3.65,0,0,1,1.18-1.09,3.3,3.3,0,0,1,1.63-.37,3.82,3.82,0,0,1,3.61,2.43,6.58,6.58,0,0,1,.48,2.55,6.37,6.37,0,0,1-.53,2.67,4.09,4.09,0,0,1-1.54,1.83,4,4,0,0,1-2.15.62,3.05,3.05,0,0,1-1.46-.34,3.2,3.2,0,0,1-1.07-.87v4.7Zm1.49-8.49a4.28,4.28,0,0,0,.75,2.77,2.35,2.35,0,0,0,1.83.89,2.39,2.39,0,0,0,1.87-.92,4.44,4.44,0,0,0,.78-2.88,4.23,4.23,0,0,0-.76-2.76,2.26,2.26,0,0,0-1.82-.92,2.38,2.38,0,0,0-1.86,1A4.39,4.39,0,0,0,223.68,338.94Zm15.51,1.68,1.69.2a4.18,4.18,0,0,1-1.48,2.31,5.09,5.09,0,0,1-6.14-.48A5.13,5.13,0,0,1,232,339a5.37,5.37,0,0,1,1.25-3.8,4.28,4.28,0,0,1,3.27-1.34,4.08,4.08,0,0,1,3.15,1.32,5.18,5.18,0,0,1,1.24,3.71v.43h-7.22a3.74,3.74,0,0,0,.91,2.46,2.68,2.68,0,0,0,2,.84,2.57,2.57,0,0,0,1.55-.47A3.19,3.19,0,0,0,239.19,340.62ZM233.8,338h5.41a3.2,3.2,0,0,0-.63-1.83,2.5,2.5,0,0,0-2-.95,2.6,2.6,0,0,0-1.9.76A3,3,0,0,0,233.8,338Zm9.13,5.77v-9.68h1.47v1.47a4.13,4.13,0,0,1,1-1.36,1.84,1.84,0,0,1,1.06-.32,3.15,3.15,0,0,1,1.69.53l-.56,1.51a2.38,2.38,0,0,0-1.21-.36,1.56,1.56,0,0,0-1,.33,1.81,1.81,0,0,0-.6.89,6.18,6.18,0,0,0-.29,1.92v5.07Z"/><path d="M184,365.73V352.37h2.66l3.15,9.45c.3.88.51,1.55.64,2,.16-.49.39-1.2.71-2.14l3.2-9.29h2.38v13.36H195V354.55l-3.87,11.18h-1.6l-3.86-11.38v11.38Zm14.78-4.85a5,5,0,0,1,1.48-4,4.49,4.49,0,0,1,3.05-1.07,4.3,4.3,0,0,1,3.26,1.31,4.92,4.92,0,0,1,1.27,3.61,6.41,6.41,0,0,1-.56,2.93,4.09,4.09,0,0,1-1.64,1.66,4.67,4.67,0,0,1-2.33.59,4.35,4.35,0,0,1-3.28-1.29A5.23,5.23,0,0,1,198.75,360.88Zm1.68,0a4.25,4.25,0,0,0,.8,2.8,2.72,2.72,0,0,0,4.08,0,4.26,4.26,0,0,0,.81-2.84,4,4,0,0,0-.81-2.72,2.7,2.7,0,0,0-4.08,0A4.08,4.08,0,0,0,200.43,360.88Zm12.88,3.38.23,1.45a6.44,6.44,0,0,1-1.23.14,2.83,2.83,0,0,1-1.39-.28,1.67,1.67,0,0,1-.69-.73,6.08,6.08,0,0,1-.2-1.94v-5.58h-1.21v-1.27H210v-2.39l1.62-1v3.37h1.66v1.27h-1.66V363a3.12,3.12,0,0,0,.08.89.75.75,0,0,0,.28.33,1.3,1.3,0,0,0,.58.11A5.73,5.73,0,0,0,213.31,364.26Zm1-3.38a5,5,0,0,1,1.48-4,4.49,4.49,0,0,1,3.05-1.07,4.3,4.3,0,0,1,3.26,1.31,4.92,4.92,0,0,1,1.27,3.61,6.41,6.41,0,0,1-.56,2.93,4.06,4.06,0,0,1-1.65,1.66,4.6,4.6,0,0,1-2.32.59,4.35,4.35,0,0,1-3.28-1.29A5.23,5.23,0,0,1,214.31,360.88Zm1.68,0a4.25,4.25,0,0,0,.8,2.8,2.72,2.72,0,0,0,4.08,0,4.26,4.26,0,0,0,.81-2.84,4,4,0,0,0-.81-2.72,2.7,2.7,0,0,0-4.08,0A4.08,4.08,0,0,0,216,360.88Zm9.28,4.85v-9.68h1.47v1.47a4.27,4.27,0,0,1,1-1.36,1.87,1.87,0,0,1,1.07-.32,3.12,3.12,0,0,1,1.68.53l-.56,1.51a2.34,2.34,0,0,0-1.2-.36,1.52,1.52,0,0,0-1,.33,1.9,1.9,0,0,0-.61.89,6.19,6.19,0,0,0-.28,1.92v5.07Z"/><path class="cls-4" d="M284.48,347.81h55.27"/><path class="cls-14" d="M284.48,347.81h55.27"/><path class="cls-13" d="M138.68,671.35h0c0-35.06,29.81-63.49,66.6-63.49h0a68.28,68.28,0,0,1,47.09,18.6,62,62,0,0,1,19.5,44.89h0c0,35.07-29.81,63.5-66.59,63.5h0C168.49,734.85,138.68,706.42,138.68,671.35Z"/><path class="cls-6" d="M138.68,671.35h0c0-35.06,29.81-63.49,66.6-63.49h0a68.28,68.28,0,0,1,47.09,18.6,62,62,0,0,1,19.5,44.89h0c0,35.07-29.81,63.5-66.59,63.5h0C168.49,734.85,138.68,706.42,138.68,671.35Z"/><path d="M168,663l1.65-.14a4,4,0,0,0,.55,1.64,3.15,3.15,0,0,0,1.34,1,5.3,5.3,0,0,0,2.07.39,5,5,0,0,0,1.78-.29,2.48,2.48,0,0,0,1.15-.81,2,2,0,0,0,.38-1.16,1.68,1.68,0,0,0-.38-1.09,2.66,2.66,0,0,0-1.18-.8,24.5,24.5,0,0,0-2.39-.64,12.32,12.32,0,0,1-2.57-.85A3.58,3.58,0,0,1,169,659a3,3,0,0,1-.47-1.67,3.33,3.33,0,0,1,.58-1.88,3.51,3.51,0,0,1,1.67-1.34,6.44,6.44,0,0,1,2.45-.45,6.61,6.61,0,0,1,2.61.48,3.68,3.68,0,0,1,1.75,1.41,4,4,0,0,1,.66,2.09l-1.69.13a2.74,2.74,0,0,0-.94-1.91,3.5,3.5,0,0,0-2.31-.66,3.72,3.72,0,0,0-2.35.6,1.79,1.79,0,0,0-.73,1.42,1.47,1.47,0,0,0,.53,1.17,6.9,6.9,0,0,0,2.66,1,17.36,17.36,0,0,1,3,.84,4,4,0,0,1,1.72,1.36,3.35,3.35,0,0,1,.56,1.91,3.62,3.62,0,0,1-.61,2,4,4,0,0,1-1.75,1.47,6.1,6.1,0,0,1-2.58.52,7.77,7.77,0,0,1-3-.53,4.32,4.32,0,0,1-1.92-1.6A4.48,4.48,0,0,1,168,663Zm16.41,2.83.23,1.45a6.44,6.44,0,0,1-1.23.14,2.83,2.83,0,0,1-1.39-.28,1.64,1.64,0,0,1-.69-.74,6,6,0,0,1-.2-1.93v-5.58H180V657.6h1.2v-2.39l1.62-1v3.37h1.66v1.27h-1.66v5.67a3.12,3.12,0,0,0,.08.89.75.75,0,0,0,.28.33,1.3,1.3,0,0,0,.58.11A5.73,5.73,0,0,0,184.44,665.81Zm8.23-1.65,1.69.21a4.2,4.2,0,0,1-1.49,2.31,5.09,5.09,0,0,1-6.14-.48,5.18,5.18,0,0,1-1.23-3.68,5.32,5.32,0,0,1,1.25-3.79,4.26,4.26,0,0,1,3.26-1.35,4.1,4.1,0,0,1,3.16,1.33,5.21,5.21,0,0,1,1.23,3.7v.44h-7.21a3.81,3.81,0,0,0,.9,2.46,2.7,2.7,0,0,0,2,.84,2.54,2.54,0,0,0,1.54-.47A3.19,3.19,0,0,0,192.67,664.16Zm-5.39-2.65h5.41a3.35,3.35,0,0,0-.63-1.83,2.52,2.52,0,0,0-2-.95,2.62,2.62,0,0,0-1.91.76A3,3,0,0,0,187.28,661.51Zm9.14,9.47V657.6h1.48v1.25a3.68,3.68,0,0,1,1.19-1.09,3.3,3.3,0,0,1,1.63-.38,3.82,3.82,0,0,1,2.17.64,3.94,3.94,0,0,1,1.44,1.8,7,7,0,0,1-.05,5.22,4,4,0,0,1-3.69,2.45,3.12,3.12,0,0,1-1.47-.34,3.17,3.17,0,0,1-1.06-.88V671Zm1.48-8.49a4.3,4.3,0,0,0,.75,2.77,2.36,2.36,0,0,0,1.83.89,2.4,2.4,0,0,0,1.88-.92,4.46,4.46,0,0,0,.78-2.88,4.23,4.23,0,0,0-.77-2.76,2.25,2.25,0,0,0-1.81-.93,2.37,2.37,0,0,0-1.86,1A4.39,4.39,0,0,0,197.9,662.49Zm8.9,8.49V657.6h1.48v1.25a3.58,3.58,0,0,1,1.19-1.09,3.29,3.29,0,0,1,1.62-.38,3.78,3.78,0,0,1,2.17.64,3.82,3.82,0,0,1,1.44,1.8,6.41,6.41,0,0,1,.49,2.55,6.53,6.53,0,0,1-.53,2.67,4,4,0,0,1-3.69,2.45,3.12,3.12,0,0,1-1.47-.34,3.07,3.07,0,0,1-1.06-.88V671Zm1.48-8.49a4.3,4.3,0,0,0,.75,2.77,2.35,2.35,0,0,0,1.83.89,2.38,2.38,0,0,0,1.87-.92,4.46,4.46,0,0,0,.78-2.88,4.23,4.23,0,0,0-.76-2.76,2.25,2.25,0,0,0-1.81-.93,2.37,2.37,0,0,0-1.86,1A4.39,4.39,0,0,0,208.28,662.49Zm15.52,1.67,1.68.21a4.18,4.18,0,0,1-1.48,2.31,5.09,5.09,0,0,1-6.14-.48,5.18,5.18,0,0,1-1.24-3.68,5.36,5.36,0,0,1,1.25-3.79,4.3,4.3,0,0,1,3.27-1.35,4.13,4.13,0,0,1,3.16,1.33,5.21,5.21,0,0,1,1.23,3.7v.44h-7.22a3.81,3.81,0,0,0,.91,2.46,2.68,2.68,0,0,0,2,.84,2.57,2.57,0,0,0,1.55-.47A3.19,3.19,0,0,0,223.8,664.16Zm-5.39-2.65h5.4a3.27,3.27,0,0,0-.62-1.83,2.52,2.52,0,0,0-2-.95,2.62,2.62,0,0,0-1.91.76A3,3,0,0,0,218.41,661.51Zm9.12,5.76V657.6H229v1.47a4.16,4.16,0,0,1,1-1.36,1.85,1.85,0,0,1,1.06-.33,3.21,3.21,0,0,1,1.69.53l-.56,1.52a2.37,2.37,0,0,0-1.2-.36,1.52,1.52,0,0,0-1,.33,1.78,1.78,0,0,0-.61.89,6.14,6.14,0,0,0-.28,1.92v5.06Z"/><path d="M168.57,689.27V675.91h2.66l3.16,9.46c.29.88.5,1.54.64,2,.15-.49.39-1.2.7-2.14l3.2-9.3h2.38v13.36h-1.7V678.1l-3.88,11.17h-1.59l-3.86-11.37v11.37Zm14.78-4.84a5,5,0,0,1,1.48-4,4.52,4.52,0,0,1,3-1.08,4.35,4.35,0,0,1,3.27,1.32,4.94,4.94,0,0,1,1.26,3.61,6.44,6.44,0,0,1-.56,2.93,4,4,0,0,1-1.64,1.66,4.67,4.67,0,0,1-2.33.59,4.36,4.36,0,0,1-3.28-1.29A5.28,5.28,0,0,1,183.35,684.43Zm1.69,0a4.25,4.25,0,0,0,.79,2.8,2.65,2.65,0,0,0,2,.92,2.61,2.61,0,0,0,2-.92,4.29,4.29,0,0,0,.81-2.85,4,4,0,0,0-.81-2.72,2.61,2.61,0,0,0-2-.92,2.65,2.65,0,0,0-2,.92A4.13,4.13,0,0,0,185,684.43Zm12.87,3.38.24,1.45a6.53,6.53,0,0,1-1.24.14,2.86,2.86,0,0,1-1.39-.28,1.64,1.64,0,0,1-.69-.74,6,6,0,0,1-.2-1.93v-5.58h-1.2V679.6h1.2v-2.39l1.63-1v3.37h1.65v1.27h-1.65v5.67a3.26,3.26,0,0,0,.07.89.78.78,0,0,0,.29.33,1.22,1.22,0,0,0,.57.11A5.73,5.73,0,0,0,197.91,687.81Zm1-3.38a5,5,0,0,1,1.48-4,4.52,4.52,0,0,1,3.05-1.08,4.35,4.35,0,0,1,3.27,1.32,4.94,4.94,0,0,1,1.26,3.61,6.44,6.44,0,0,1-.56,2.93,4,4,0,0,1-1.64,1.66,4.67,4.67,0,0,1-2.33.59,4.36,4.36,0,0,1-3.28-1.29A5.23,5.23,0,0,1,198.91,684.43Zm1.69,0a4.25,4.25,0,0,0,.79,2.8,2.72,2.72,0,0,0,4.08,0,4.29,4.29,0,0,0,.81-2.85,4,4,0,0,0-.81-2.72,2.72,2.72,0,0,0-4.08,0A4.13,4.13,0,0,0,200.6,684.43Zm9.28,4.84V679.6h1.47v1.47a4,4,0,0,1,1-1.36,1.82,1.82,0,0,1,1.06-.33,3.27,3.27,0,0,1,1.69.53l-.56,1.52a2.38,2.38,0,0,0-1.21-.36,1.54,1.54,0,0,0-1,.33,1.85,1.85,0,0,0-.61.89,6.45,6.45,0,0,0-.28,1.92v5.06Z"/><path class="cls-4" d="M271.87,671.35H340.5"/><path class="cls-14" d="M271.87,671.35H340.5"/><path class="cls-4" d="M1320.88,706.46h0"/><path class="cls-8" d="M1320.88,706.46h0"/><path class="cls-4" d="M1320.88,706.46h0"/><path class="cls-8" d="M1320.88,706.46h0"/><path class="cls-7" d="M796.29,630V526.83H784.36L808.22,503l23.86,23.86H820.15V630Z"/><path class="cls-6" d="M796.29,630V526.83H784.36L808.22,503l23.86,23.86H820.15V630Z"/><path d="M815.14,619.22H801.78v-1.76h13.36Zm-1.58-12.83h1.58v8.82A3.17,3.17,0,0,1,814,615a6.24,6.24,0,0,1-1.78-1.08,17.09,17.09,0,0,1-2-2.16,18,18,0,0,0-2.83-2.94,3.41,3.41,0,0,0-2-.76,2.14,2.14,0,0,0-1.64.7,2.47,2.47,0,0,0-.67,1.81,2.6,2.6,0,0,0,.71,1.91,2.64,2.64,0,0,0,2,.7l-.17,1.69a4.15,4.15,0,0,1-2.88-1.3,4.45,4.45,0,0,1-1-3,4.23,4.23,0,0,1,1.06-3,3.49,3.49,0,0,1,2.64-1.13,4,4,0,0,1,1.58.33,6,6,0,0,1,1.64,1.09,27.71,27.71,0,0,1,2.34,2.53c.83,1,1.39,1.61,1.69,1.89a4.38,4.38,0,0,0,.87.69Zm-3.1-12,.45-1.76a6,6,0,0,1,3.33,2,5.48,5.48,0,0,1,1.14,3.53,6.32,6.32,0,0,1-.88,3.51,5.64,5.64,0,0,1-2.54,2.07,9.39,9.39,0,0,1-3.6.7,7.82,7.82,0,0,1-3.62-.8,5.38,5.38,0,0,1-2.36-2.26,6.7,6.7,0,0,1-.82-3.25,5.41,5.41,0,0,1,1-3.36,5.22,5.22,0,0,1,2.88-1.91l.4,1.73a4.15,4.15,0,0,0-2.11,1.36,3.52,3.52,0,0,0-.67,2.21,4.41,4.41,0,0,0,.73,2.58,4,4,0,0,0,2,1.45,7.9,7.9,0,0,0,2.56.42,8.1,8.1,0,0,0,3-.5,3.8,3.8,0,0,0,1.91-1.55,4.37,4.37,0,0,0,.62-2.26,3.78,3.78,0,0,0-.86-2.52A4.35,4.35,0,0,0,810.46,594.43Z"/><path class="cls-5" d="M725,798.63H888.76v70.2H725Z"/><path class="cls-6" d="M725,798.63H888.76v70.2H725Z"/><path d="M735.42,840.65V827.29h5.92a7.75,7.75,0,0,1,2.7.36,2.94,2.94,0,0,1,1.49,1.28,3.82,3.82,0,0,1,.56,2,3.39,3.39,0,0,1-.92,2.39,4.69,4.69,0,0,1-2.85,1.23,5.38,5.38,0,0,1,1.08.67,9.19,9.19,0,0,1,1.46,1.77l2.32,3.64H745l-1.76-2.78c-.52-.8-1-1.41-1.28-1.83a3.9,3.9,0,0,0-.91-.89,2.2,2.2,0,0,0-.8-.36,4.32,4.32,0,0,0-1-.08h-2.05v5.94Zm1.76-7.45H741a5.82,5.82,0,0,0,1.89-.25,2.17,2.17,0,0,0,1-.81,2.13,2.13,0,0,0,.36-1.19,2,2,0,0,0-.69-1.56,3.24,3.24,0,0,0-2.19-.61h-4.22ZM755,839.46a6.59,6.59,0,0,1-1.77,1.1,5,5,0,0,1-1.79.31,3.54,3.54,0,0,1-2.46-.78,2.71,2.71,0,0,1,.32-4.22,4.26,4.26,0,0,1,1.18-.55c.32-.08.8-.16,1.46-.25a14.45,14.45,0,0,0,2.92-.56c0-.23,0-.37,0-.42a1.8,1.8,0,0,0-.47-1.42,2.73,2.73,0,0,0-1.87-.55,2.85,2.85,0,0,0-1.7.41A2.46,2.46,0,0,0,750,834l-1.61-.22a4,4,0,0,1,.72-1.64,3.16,3.16,0,0,1,1.46-1,6.61,6.61,0,0,1,2.18-.34,5.62,5.62,0,0,1,2,.3,2.45,2.45,0,0,1,1.14.73,2.49,2.49,0,0,1,.52,1.11,10.41,10.41,0,0,1,.07,1.52v2.18a22.61,22.61,0,0,0,.11,2.89,4.12,4.12,0,0,0,.41,1.16h-1.7A3.12,3.12,0,0,1,755,839.46Zm-.14-3.67a11.66,11.66,0,0,1-2.67.63,6,6,0,0,0-1.44.32,1.61,1.61,0,0,0-.66.54,1.48,1.48,0,0,0-.22.78,1.4,1.4,0,0,0,.5,1.09,2.18,2.18,0,0,0,1.46.44,3.41,3.41,0,0,0,1.67-.41,2.55,2.55,0,0,0,1.09-1.14,3.89,3.89,0,0,0,.27-1.64Zm3.55,2,1.62-.25a2.22,2.22,0,0,0,.75,1.5,2.7,2.7,0,0,0,1.75.52,2.52,2.52,0,0,0,1.67-.46,1.38,1.38,0,0,0,.55-1.09,1,1,0,0,0-.49-.88,6.93,6.93,0,0,0-1.67-.54,17.12,17.12,0,0,1-2.51-.8,2.41,2.41,0,0,1-1-.91,2.54,2.54,0,0,1-.06-2.5,2.66,2.66,0,0,1,.81-.92,3.2,3.2,0,0,1,1-.47,5.08,5.08,0,0,1,1.42-.2,5.55,5.55,0,0,1,2,.33,2.64,2.64,0,0,1,1.27.89,3.44,3.44,0,0,1,.58,1.5l-1.61.22a1.75,1.75,0,0,0-.64-1.17,2.24,2.24,0,0,0-1.47-.43,2.73,2.73,0,0,0-1.63.38,1.13,1.13,0,0,0-.47.87,1.08,1.08,0,0,0,.19.58,1.43,1.43,0,0,0,.64.44q.24.09,1.44.42a18.41,18.41,0,0,1,2.44.75,2.51,2.51,0,0,1,1.08.86,2.42,2.42,0,0,1,.39,1.41,2.63,2.63,0,0,1-.49,1.54,3.09,3.09,0,0,1-1.37,1.13,5.17,5.17,0,0,1-2,.39,4.56,4.56,0,0,1-2.87-.78A3.58,3.58,0,0,1,758.38,837.76Zm10,6.59V831h1.48v1.25a3.68,3.68,0,0,1,1.19-1.09,3.3,3.3,0,0,1,1.63-.38,3.75,3.75,0,0,1,2.17.64,3.94,3.94,0,0,1,1.44,1.8,7,7,0,0,1,0,5.22,4,4,0,0,1-3.69,2.45,3.12,3.12,0,0,1-1.47-.34,3.17,3.17,0,0,1-1.06-.88v4.7Zm1.48-8.48a4.3,4.3,0,0,0,.75,2.77,2.35,2.35,0,0,0,1.83.89,2.38,2.38,0,0,0,1.88-.93,4.41,4.41,0,0,0,.78-2.87,4.28,4.28,0,0,0-.77-2.77,2.27,2.27,0,0,0-1.81-.92,2.37,2.37,0,0,0-1.86,1A4.37,4.37,0,0,0,769.84,835.87Zm10.4,4.78h-1.52V827.29h1.64v4.77a3.26,3.26,0,0,1,2.66-1.3,4,4,0,0,1,1.68.36,3.43,3.43,0,0,1,1.32,1,4.41,4.41,0,0,1,.79,1.56,6.3,6.3,0,0,1,.3,2,5.54,5.54,0,0,1-1.23,3.84,3.83,3.83,0,0,1-3,1.36,3.08,3.08,0,0,1-2.68-1.44Zm0-4.91a5,5,0,0,0,.48,2.52,2.34,2.34,0,0,0,4,.33,4.27,4.27,0,0,0,.78-2.78,4.34,4.34,0,0,0-.75-2.8,2.31,2.31,0,0,0-1.83-.91A2.4,2.4,0,0,0,781,833,4.14,4.14,0,0,0,780.22,835.74Zm15.52,1.8,1.68.2a4.21,4.21,0,0,1-1.48,2.32,5.07,5.07,0,0,1-6.14-.49,5.16,5.16,0,0,1-1.24-3.67,5.41,5.41,0,0,1,1.25-3.8,4.33,4.33,0,0,1,3.27-1.34,4.09,4.09,0,0,1,3.16,1.33,5.2,5.2,0,0,1,1.23,3.7v.44h-7.22a3.76,3.76,0,0,0,.91,2.45,2.69,2.69,0,0,0,2,.85,2.57,2.57,0,0,0,1.55-.47A3.24,3.24,0,0,0,795.74,837.54Zm-5.39-2.65h5.4a3.22,3.22,0,0,0-.62-1.83,2.5,2.5,0,0,0-2-1,2.63,2.63,0,0,0-1.91.77A3,3,0,0,0,790.35,834.89Zm9.12,5.76V831h1.47v1.47a4.16,4.16,0,0,1,1-1.36,1.85,1.85,0,0,1,1.06-.33,3.21,3.21,0,0,1,1.69.53l-.56,1.52a2.37,2.37,0,0,0-1.2-.36,1.52,1.52,0,0,0-1,.33,1.74,1.74,0,0,0-.61.89,6.14,6.14,0,0,0-.28,1.92v5.06Zm6.21,0V831h1.47v1.47a4.16,4.16,0,0,1,1-1.36,1.88,1.88,0,0,1,1.07-.33,3.21,3.21,0,0,1,1.68.53l-.56,1.52a2.34,2.34,0,0,0-1.2-.36,1.52,1.52,0,0,0-1,.33,1.8,1.8,0,0,0-.61.89,6.14,6.14,0,0,0-.28,1.92v5.06Zm6.15,3.72-.18-1.53a4,4,0,0,0,.93.14,1.72,1.72,0,0,0,.88-.19,1.46,1.46,0,0,0,.55-.5,8.13,8.13,0,0,0,.5-1.22c0-.09.07-.23.14-.4L811,831h1.77l2,5.59c.26.72.49,1.47.7,2.25.19-.75.41-1.48.67-2.2l2.08-5.64h1.64l-3.69,9.83a17.81,17.81,0,0,1-.92,2.2,3.18,3.18,0,0,1-1,1.19,2.34,2.34,0,0,1-1.34.37A3.13,3.13,0,0,1,811.83,844.37Zm14.8-3.72V827.29h5a11.7,11.7,0,0,1,2,.13,4,4,0,0,1,1.64.64,3.24,3.24,0,0,1,1.07,1.28,4.34,4.34,0,0,1-.68,4.72q-1.08,1.17-3.93,1.17h-3.42v5.42Zm1.76-7h3.46a3.63,3.63,0,0,0,2.43-.64,2.29,2.29,0,0,0,.72-1.8,2.39,2.39,0,0,0-.42-1.43,2,2,0,0,0-1.12-.79,7.43,7.43,0,0,0-1.65-.12h-3.42Zm10.48-4.47v-1.89h1.64v1.89Zm0,11.47V831h1.64v9.67Z"/><path class="cls-7" d="M817.75,712.75v55.73h11.93l-23.86,23.86L782,768.48h11.93V712.75Z"/><path class="cls-6" d="M817.75,712.75v55.73h11.93l-23.86,23.86L782,768.48h11.93V712.75Z"/><path d="M803.2,722.59l.14,1.66a3.78,3.78,0,0,0-1.64.54,3.13,3.13,0,0,0-1.05,1.35,5.22,5.22,0,0,0-.39,2.06,4.92,4.92,0,0,0,.3,1.78,2.51,2.51,0,0,0,.81,1.16,2,2,0,0,0,1.16.37,1.69,1.69,0,0,0,1.09-.37,2.78,2.78,0,0,0,.8-1.19c.13-.36.35-1.16.64-2.39a12.31,12.31,0,0,1,.84-2.56,3.64,3.64,0,0,1,1.24-1.44,3.09,3.09,0,0,1,1.67-.47,3.28,3.28,0,0,1,1.87.58,3.52,3.52,0,0,1,1.35,1.67,6.48,6.48,0,0,1,.45,2.45,6.61,6.61,0,0,1-.48,2.61,3.69,3.69,0,0,1-1.41,1.75,4,4,0,0,1-2.09.66l-.13-1.69a2.69,2.69,0,0,0,1.91-.93,3.55,3.55,0,0,0,.65-2.32,3.69,3.69,0,0,0-.59-2.34,1.79,1.79,0,0,0-1.42-.74,1.45,1.45,0,0,0-1.17.54,6.66,6.66,0,0,0-1,2.65,18.64,18.64,0,0,1-.85,3,3.8,3.8,0,0,1-1.36,1.71,3.25,3.25,0,0,1-1.9.57,3.76,3.76,0,0,1-2-.61,4.18,4.18,0,0,1-1.47-1.75,6.25,6.25,0,0,1-.51-2.58,7.83,7.83,0,0,1,.53-3,4.35,4.35,0,0,1,1.59-1.92A4.52,4.52,0,0,1,803.2,722.59ZM802,742.05l-.2,1.69a4.2,4.2,0,0,1-2.31-1.49,4.4,4.4,0,0,1-.82-2.76,4.5,4.5,0,0,1,1.3-3.38,5.17,5.17,0,0,1,3.67-1.23,5.39,5.39,0,0,1,3.8,1.25,4.25,4.25,0,0,1,1.34,3.26,4.09,4.09,0,0,1-1.32,3.16,5.23,5.23,0,0,1-3.71,1.24h-.44v-7.22a3.76,3.76,0,0,0-2.45.9,2.7,2.7,0,0,0-.84,2,2.52,2.52,0,0,0,.47,1.55A3.21,3.21,0,0,0,802,742.05Zm2.66-5.39v5.41a3.27,3.27,0,0,0,1.83-.63,2.52,2.52,0,0,0,1-2,2.63,2.63,0,0,0-.77-1.91A3,3,0,0,0,804.67,736.66Zm-5.77,9.13h9.67v1.46h-1.46a4.13,4.13,0,0,1,1.36,1,1.89,1.89,0,0,1,.32,1.06,3.18,3.18,0,0,1-.53,1.69l-1.51-.57a2.32,2.32,0,0,0,.36-1.2,1.54,1.54,0,0,0-.33-1,1.9,1.9,0,0,0-.89-.61,6.23,6.23,0,0,0-1.92-.28H798.9ZM810.37,752h1.89v1.64h-1.89Zm-11.47,0h9.67v1.64H798.9Zm1.19,10.46a6.5,6.5,0,0,1-1.09-1.76,5.09,5.09,0,0,1-.32-1.8,3.47,3.47,0,0,1,.79-2.45,2.53,2.53,0,0,1,2-.86,2.69,2.69,0,0,1,1.3.32,2.63,2.63,0,0,1,.93.85,3.93,3.93,0,0,1,.55,1.19,11.77,11.77,0,0,1,.25,1.45,15,15,0,0,0,.56,2.92l.43,0a1.85,1.85,0,0,0,1.42-.47,2.81,2.81,0,0,0,.54-1.88,2.86,2.86,0,0,0-.4-1.7,2.49,2.49,0,0,0-1.42-.81l.21-1.61a3.8,3.8,0,0,1,1.65.72,3.13,3.13,0,0,1,1,1.45,6.42,6.42,0,0,1,.34,2.19,5.86,5.86,0,0,1-.29,2,2.54,2.54,0,0,1-.74,1.14,2.39,2.39,0,0,1-1.11.52,9.84,9.84,0,0,1-1.51.08H803a21,21,0,0,0-2.89.11,3.9,3.9,0,0,0-1.16.4v-1.7A3.17,3.17,0,0,1,800.09,762.47Zm3.67-.14a11,11,0,0,1-.62-2.67,6.45,6.45,0,0,0-.33-1.44,1.5,1.5,0,0,0-.53-.65,1.47,1.47,0,0,0-1.88.28,2.13,2.13,0,0,0-.43,1.45,3.41,3.41,0,0,0,.4,1.67,2.57,2.57,0,0,0,1.14,1.1,4.12,4.12,0,0,0,1.64.26Zm-4.86,4.16h13.36v1.64H798.9Z"/><path d="M1130.76,646.58V881.67h-49.54V646.58Z"/><path class="cls-6" d="M1130.76,646.58V881.67h-49.54V646.58Z"/><path class="cls-15" d="M1103.36,656.43l.14,1.65a4,4,0,0,0-1.64.55,3.15,3.15,0,0,0-1,1.34,5.3,5.3,0,0,0-.39,2.07,5.19,5.19,0,0,0,.29,1.78,2.43,2.43,0,0,0,.82,1.15,2,2,0,0,0,1.15.38,1.73,1.73,0,0,0,1.1-.38,2.73,2.73,0,0,0,.79-1.18,24.5,24.5,0,0,0,.64-2.39,13,13,0,0,1,.85-2.57,3.58,3.58,0,0,1,1.23-1.43,3,3,0,0,1,1.67-.47,3.33,3.33,0,0,1,1.88.58,3.51,3.51,0,0,1,1.34,1.67,6.44,6.44,0,0,1,.46,2.45,6.6,6.6,0,0,1-.49,2.61,3.68,3.68,0,0,1-1.41,1.75,4,4,0,0,1-2.09.66l-.12-1.69a2.74,2.74,0,0,0,1.9-.94,3.5,3.5,0,0,0,.66-2.31,3.72,3.72,0,0,0-.6-2.35,1.79,1.79,0,0,0-1.42-.73,1.47,1.47,0,0,0-1.17.53,7.15,7.15,0,0,0-1,2.66,17.36,17.36,0,0,1-.84,2.95,4,4,0,0,1-1.36,1.72,3.35,3.35,0,0,1-1.91.56,3.62,3.62,0,0,1-2-.61,4,4,0,0,1-1.47-1.75,6.1,6.1,0,0,1-.52-2.58,7.77,7.77,0,0,1,.53-3,4.32,4.32,0,0,1,1.6-1.92A4.51,4.51,0,0,1,1103.36,656.43Zm-4.29,12.83h13.36v1.64h-4.8a3.67,3.67,0,0,1,1.33,2.89,3.87,3.87,0,0,1-.42,1.86,2.55,2.55,0,0,1-1.18,1.14,5.35,5.35,0,0,1-2.17.35h-6.12V675.5h6.12a2.55,2.55,0,0,0,1.8-.54,2,2,0,0,0,.56-1.51,2.58,2.58,0,0,0-.39-1.36,2.19,2.19,0,0,0-1-.92,4.78,4.78,0,0,0-1.79-.27h-5.29Zm11.47,10.38h1.89v1.64h-1.89Zm-11.47,0h9.67v1.64h-9.67Zm0,4.53h8.4v-1.45h1.27v1.45h1a4.71,4.71,0,0,1,1.45.17,2.09,2.09,0,0,1,1,.83,3.05,3.05,0,0,1,.4,1.67,9.06,9.06,0,0,1-.16,1.54l-1.44-.25a5.6,5.6,0,0,0,.1-1,1.42,1.42,0,0,0-.33-1.06,1.7,1.7,0,0,0-1.19-.31h-.89v1.89h-1.27V685.8h-8.4Zm1.47,8.37-1.46.24a6.53,6.53,0,0,1-.14-1.24,3,3,0,0,1,.28-1.39,1.61,1.61,0,0,1,.74-.68,5.68,5.68,0,0,1,1.94-.21h5.57v-1.2h1.27v1.2h2.39l1,1.63h-3.37v1.65h-1.27v-1.65h-5.67a2.82,2.82,0,0,0-.89.08.8.8,0,0,0-.33.28,1.22,1.22,0,0,0-.11.57A4.5,4.5,0,0,0,1100.54,692.54Zm-1.47,6.78h9.67v1.47h-1.47a3.9,3.9,0,0,1,1.36,1,1.82,1.82,0,0,1,.33,1.06,3.27,3.27,0,0,1-.53,1.69l-1.52-.57a2.32,2.32,0,0,0,.36-1.2,1.54,1.54,0,0,0-.33-1,1.85,1.85,0,0,0-.89-.61,6.45,6.45,0,0,0-1.92-.28h-5.06Zm3.11,12.85-.21,1.69a4.2,4.2,0,0,1-2.31-1.49,5.07,5.07,0,0,1,.49-6.14,5.14,5.14,0,0,1,3.67-1.23,5.32,5.32,0,0,1,3.79,1.25,4.26,4.26,0,0,1,1.35,3.26,4.1,4.1,0,0,1-1.33,3.16,5.21,5.21,0,0,1-3.7,1.23h-.44v-7.21a3.76,3.76,0,0,0-2.45.9,2.67,2.67,0,0,0-.85,2,2.54,2.54,0,0,0,.47,1.54A3.19,3.19,0,0,0,1102.18,712.17Zm2.65-5.39v5.41a3.32,3.32,0,0,0,1.83-.63,2.49,2.49,0,0,0,.95-2,2.62,2.62,0,0,0-.76-1.91A3,3,0,0,0,1104.83,706.78Zm-6.56,8.83-.23,1.59a1.53,1.53,0,0,0-1.08.56,2.79,2.79,0,0,0-.46,1.68,2.92,2.92,0,0,0,.46,1.75,2.25,2.25,0,0,0,1.26.84,10.89,10.89,0,0,0,2.11.11,3.35,3.35,0,0,1-1.26-2.67,3.68,3.68,0,0,1,1.43-3.1,5.54,5.54,0,0,1,3.46-1.09,6.53,6.53,0,0,1,2.56.5,4.09,4.09,0,0,1,1.8,1.45,4,4,0,0,1,.64,2.25,3.47,3.47,0,0,1-1.38,2.82h1.16v1.51h-8.36a7.78,7.78,0,0,1-3.2-.47,3.31,3.31,0,0,1-1.49-1.45,5,5,0,0,1-.54-2.45,4.66,4.66,0,0,1,.78-2.8A2.62,2.62,0,0,1,1098.27,715.61Zm5.81,1.36a4.22,4.22,0,0,0-2.78.75,2.51,2.51,0,0,0,0,3.79,4.06,4.06,0,0,0,2.73.77,3.89,3.89,0,0,0,2.67-.8,2.4,2.4,0,0,0,0-3.75A3.91,3.91,0,0,0,1104.08,717Zm6.46,9.33h1.89v1.64h-1.89Zm-11.47,0h9.67v1.64h-9.67Zm2.89,3.48.25,1.63a2.22,2.22,0,0,0-1.5.75,2.65,2.65,0,0,0-.52,1.75,2.52,2.52,0,0,0,.46,1.67,1.38,1.38,0,0,0,1.09.55,1,1,0,0,0,.87-.49,6.36,6.36,0,0,0,.55-1.67,16,16,0,0,1,.8-2.51,2.46,2.46,0,0,1,.9-1.05,2.52,2.52,0,0,1,1.32-.36,2.41,2.41,0,0,1,1.18.3,2.6,2.6,0,0,1,.93.81,3.2,3.2,0,0,1,.46,1,4.74,4.74,0,0,1,.21,1.42,5.55,5.55,0,0,1-.33,2,2.71,2.71,0,0,1-.89,1.27,3.54,3.54,0,0,1-1.5.58l-.22-1.61a1.79,1.79,0,0,0,1.17-.64,2.3,2.3,0,0,0,.42-1.47,2.74,2.74,0,0,0-.37-1.63,1.11,1.11,0,0,0-.88-.47,1,1,0,0,0-.57.19,1.43,1.43,0,0,0-.44.64q-.09.24-.42,1.44a22.13,22.13,0,0,1-.75,2.44,2.57,2.57,0,0,1-.86,1.08,2.44,2.44,0,0,1-1.41.39,2.76,2.76,0,0,1-1.55-.49,3.08,3.08,0,0,1-1.12-1.37,5.17,5.17,0,0,1-.39-2.05,4.61,4.61,0,0,1,.78-2.88A3.67,3.67,0,0,1,1102,729.78Zm-1.42,13.57-1.46.23a6.53,6.53,0,0,1-.14-1.23,2.92,2.92,0,0,1,.28-1.39,1.58,1.58,0,0,1,.74-.69,5.76,5.76,0,0,1,1.94-.2h5.57v-1.21h1.27v1.21h2.39l1,1.62h-3.37v1.66h-1.27v-1.66h-5.67a3.17,3.17,0,0,0-.89.08.88.88,0,0,0-.33.28,1.3,1.3,0,0,0-.11.58A4.5,4.5,0,0,0,1100.54,743.35Zm1.64,8.23-.21,1.68a4.18,4.18,0,0,1-2.31-1.48,5.07,5.07,0,0,1,.49-6.14,5.14,5.14,0,0,1,3.67-1.23,5.32,5.32,0,0,1,3.79,1.25,4.26,4.26,0,0,1,1.35,3.26,4.13,4.13,0,0,1-1.33,3.16,5.21,5.21,0,0,1-3.7,1.23h-.44v-7.22a3.81,3.81,0,0,0-2.45.91,2.65,2.65,0,0,0-.85,2,2.57,2.57,0,0,0,.47,1.55A3.19,3.19,0,0,0,1102.18,751.58Zm2.65-5.39v5.4a3.24,3.24,0,0,0,1.83-.62,2.49,2.49,0,0,0,.95-2,2.62,2.62,0,0,0-.76-1.91A3,3,0,0,0,1104.83,746.19Zm-5.76,9.12h9.67v1.47h-1.47a4.16,4.16,0,0,1,1.36,1,1.87,1.87,0,0,1,.33,1.06,3.21,3.21,0,0,1-.53,1.69l-1.52-.56a2.37,2.37,0,0,0,.36-1.2,1.52,1.52,0,0,0-.33-1,1.78,1.78,0,0,0-.89-.61,6.14,6.14,0,0,0-1.92-.28h-5.06Z"/><path class="cls-4" d="M1100.64,491l220.25,145.29"/><path class="cls-8" d="M1100.64,491l220.25,145.29"/><path class="cls-4" d="M1320.88,706.46l1.26,14.61"/><path class="cls-8" d="M1320.88,706.46l1.26,14.61"/></g></g></svg>