<?xml version="1.0" encoding="UTF-8" standalone="no"?>
<!DOCTYPE svg PUBLIC "-//W3C//DTD SVG 1.1//EN" "http://www.w3.org/Graphics/SVG/1.1/DTD/svg11.dtd">
<!-- Gegenereerd door Microsoft Visio, SVG Export SoftwareAnalyse1.svg Page-1 -->
<svg xmlns="http://www.w3.org/2000/svg" xmlns:xlink="http://www.w3.org/1999/xlink" xmlns:ev="http://www.w3.org/2001/xml-events"
		xmlns:v="http://schemas.microsoft.com/visio/2003/SVGExtensions/" width="11.6929in" height="8.26772in"
		viewBox="0 0 841.89 595.276" xml:space="preserve" color-interpolation-filters="sRGB" class="st12">
	<v:documentProperties v:langID="1043" v:metric="true" v:viewMarkup="false">
		<v:userDefs>
			<v:ud v:nameU="msvNoAutoConnect" v:prompt="" v:val="VT0(0):26"/>
		</v:userDefs>
	</v:documentProperties>

	<style type="text/css">
	<![CDATA[
		.st1 {fill:#5b9bd5;stroke:#ffffff;stroke-linecap:round;stroke-linejoin:round;stroke-width:0.5}
		.st2 {fill:#ffffff;font-family:Calibri;font-size:2.50001em}
		.st3 {fill:#73ae42;stroke:#ffffff;stroke-linecap:round;stroke-linejoin:round;stroke-width:0.5}
		.st4 {fill:#73ae42;stroke:#73ae42;stroke-linecap:round;stroke-linejoin:round;stroke-width:0.5}
		.st5 {fill:#ffffff;font-family:Calibri;font-size:1.00001em;font-weight:bold}
		.st6 {fill:#ffffff;stroke:#73ae42;stroke-linecap:round;stroke-linejoin:round;stroke-width:0.5}
		.st7 {fill:#73ae42;font-family:Calibri;font-size:1.00001em}
		.st8 {marker-end:url(#mrkr4-30);stroke:#5592c9;stroke-linecap:round;stroke-linejoin:round;stroke-width:0.5}
		.st9 {fill:#5592c9;fill-opacity:1;stroke:#5592c9;stroke-opacity:1;stroke-width:0.16556291390728}
		.st10 {fill:none;stroke:none;stroke-linecap:round;stroke-linejoin:round;stroke-width:0.5}
		.st11 {fill:#5b9bd5;font-family:Calibri;font-size:1.00001em}
		.st12 {fill:none;fill-rule:evenodd;font-size:12px;overflow:visible;stroke-linecap:square;stroke-miterlimit:3}
	]]>
	</style>

	<defs id="Markers">
		<g id="lend4">
			<path d="M 2 1 L 0 0 L 2 -1 L 2 1 " style="stroke:none"/>
		</g>
		<marker id="mrkr4-30" class="st9" v:arrowType="4" v:arrowSize="2" v:setback="12.08" refX="-12.08" orient="auto"
				markerUnits="strokeWidth" overflow="visible">
			<use xlink:href="#lend4" transform="scale(-6.04,-6.04) "/>
		</marker>
	</defs>
	<g v:mID="0" v:index="1" v:groupContext="foregroundPage">
		<v:userDefs>
			<v:ud v:nameU="msvThemeOrder" v:val="VT0(0):26"/>
		</v:userDefs>
		<title>Pagina-1</title>
		<v:pageProperties v:drawingScale="0.0393701" v:pageScale="0.0393701" v:drawingUnits="24" v:shadowOffsetX="8.50394"
				v:shadowOffsetY="-8.50394"/>
		<v:layer v:name="Verbindingslijn" v:index="0"/>
		<g id="shape2-1" v:mID="2" v:groupContext="shape" transform="translate(148.819,-481.89)">
			<title>Vak</title>
			<desc>Sensor</desc>
			<v:userDefs>
				<v:ud v:nameU="visVersion" v:val="VT0(15):26"/>
			</v:userDefs>
			<v:textBlock v:margins="rect(4,4,4,4)" v:tabSpace="42.5197"/>
			<v:textRect cx="56.6929" cy="571.181" width="113.39" height="48.189"/>
			<rect x="0" y="547.087" width="113.386" height="48.189" class="st1"/>
			<text x="15.45" y="580.18" class="st2" v:langID="2067"><v:paragraph v:horizAlign="1"/><v:tabList/>Sensor</text>		</g>
		<g id="shape3-4" v:mID="3" v:groupContext="shape" transform="translate(430.866,-481.89)">
			<title>Vak.3</title>
			<desc>Sensor</desc>
			<v:userDefs>
				<v:ud v:nameU="visVersion" v:val="VT0(15):26"/>
			</v:userDefs>
			<v:textBlock v:margins="rect(4,4,4,4)" v:tabSpace="42.5197"/>
			<v:textRect cx="56.6929" cy="571.181" width="113.39" height="48.189"/>
			<rect x="0" y="547.087" width="113.386" height="48.189" class="st1"/>
			<text x="15.45" y="580.18" class="st2" v:langID="2067"><v:paragraph v:horizAlign="1"/><v:tabList/>Sensor</text>		</g>
		<g id="group4-7" transform="translate(430.866,-350.682)" v:mID="4" v:groupContext="group">
			<v:userDefs>
				<v:ud v:nameU="visVersion" v:prompt="" v:val="VT0(15):26"/>
			</v:userDefs>
			<title>Status met intern gedrag</title>
			<g id="shape4-8" v:mID="4" v:groupContext="groupContent">
				<rect x="0" y="550.468" width="97.9687" height="44.8074" rx="8.50394" ry="8.50394" class="st3"/>
			</g>
			<g id="shape5-10" v:mID="5" v:groupContext="shape" transform="translate(0,-22.4037)">
				<title>Blad.5</title>
				<desc>Recht rijden</desc>
				<v:userDefs>
					<v:ud v:nameU="UmlRole" v:prompt="" v:val="VT4(Title)"/>
				</v:userDefs>
				<v:textBlock v:margins="rect(4,4,4,4)" v:tabSpace="42.5197"/>
				<v:textRect cx="48.9844" cy="584.074" width="97.97" height="22.4037"/>
				<path d="M8.5 595.28 L89.46 595.28 A8.50394 8.50394 -180 0 0 97.97 586.77 L97.97 581.38 A8.50394 8.50394 -180 0 0
							 89.46 572.87 L8.5 572.87 A8.50394 8.50394 -180 0 0 0 581.38 L0 586.77 A8.50394 8.50394 -180 0 0 8.5
							 595.28 Z" class="st4"/>
				<text x="18.82" y="587.67" class="st5" v:langID="2067"><v:paragraph v:horizAlign="1"/><v:tabList/>Recht rijden</text>			</g>
			<g id="shape6-13" v:mID="6" v:groupContext="shape">
				<title>Blad.6</title>
				<desc>Sensor1 - Sensor2</desc>
				<v:userDefs>
					<v:ud v:nameU="UmlRole" v:prompt="" v:val="VT4(Body)"/>
				</v:userDefs>
				<v:textBlock v:margins="rect(4,4,4,4)" v:tabSpace="42.5197"/>
				<v:textRect cx="48.9844" cy="584.074" width="97.97" height="22.4037"/>
				<path d="M8.5 595.28 L89.46 595.28 A8.50394 8.50394 -180 0 0 97.97 586.77 L97.97 581.38 A8.50394 8.50394 -180 0 0
							 89.46 572.87 L8.5 572.87 A8.50394 8.50394 -180 0 0 0 581.38 L0 586.77 A8.50394 8.50394 -180 0 0 8.5
							 595.28 Z" class="st6"/>
				<text x="4" y="587.67" class="st7" v:langID="2067"><v:paragraph/><v:tabList/>Sensor1 - Sensor2</text>			</g>
		</g>
		<g id="group16-16" transform="translate(134.971,-350.682)" v:mID="16" v:groupContext="group">
			<v:userDefs>
				<v:ud v:nameU="visVersion" v:prompt="" v:val="VT0(15):26"/>
			</v:userDefs>
			<title>Status met intern gedrag.16</title>
			<g id="shape16-17" v:mID="16" v:groupContext="groupContent">
				<rect x="0" y="550.468" width="141.082" height="44.8074" rx="8.50394" ry="8.50394" class="st3"/>
			</g>
			<g id="shape17-19" v:mID="17" v:groupContext="shape" transform="translate(0,-22.4037)">
				<title>Blad.17</title>
				<desc>Gewenwste afstand</desc>
				<v:userDefs>
					<v:ud v:nameU="UmlRole" v:prompt="" v:val="VT4(Title)"/>
				</v:userDefs>
				<v:textBlock v:margins="rect(4,4,4,4)" v:tabSpace="42.5197"/>
				<v:textRect cx="70.5412" cy="584.074" width="141.09" height="22.4037"/>
				<path d="M8.5 595.28 L132.58 595.28 A8.50394 8.50394 -180 0 0 141.08 586.77 L141.08 581.38 A8.50394 8.50394 -180
							 0 0 132.58 572.87 L8.5 572.87 A8.50394 8.50394 -180 0 0 0 581.38 L0 586.77 A8.50394 8.50394 -180 0 0
							 8.5 595.28 Z" class="st4"/>
				<text x="20.93" y="587.67" class="st5" v:langID="2067"><v:paragraph v:horizAlign="1"/><v:tabList/>Gewenwste afstand</text>			</g>
			<g id="shape18-22" v:mID="18" v:groupContext="shape">
				<title>Blad.18</title>
				<desc>Sensor - Gewenste afstand</desc>
				<v:userDefs>
					<v:ud v:nameU="UmlRole" v:prompt="" v:val="VT4(Body)"/>
				</v:userDefs>
				<v:textBlock v:margins="rect(4,4,4,4)" v:tabSpace="42.5197"/>
				<v:textRect cx="70.5412" cy="584.074" width="141.09" height="22.4037"/>
				<path d="M8.5 595.28 L132.58 595.28 A8.50394 8.50394 -180 0 0 141.08 586.77 L141.08 581.38 A8.50394 8.50394 -180
							 0 0 132.58 572.87 L8.5 572.87 A8.50394 8.50394 -180 0 0 0 581.38 L0 586.77 A8.50394 8.50394 -180 0 0
							 8.5 595.28 Z" class="st6"/>
				<text x="4" y="587.67" class="st7" v:langID="2067"><v:paragraph/><v:tabList/>Sensor - Gewenste afstand</text>			</g>
		</g>
		<g id="shape20-25" v:mID="20" v:groupContext="shape" v:layerMember="0" transform="translate(490.791,-481.89)">
			<title>Dynamische verbindingslijn.20</title>
			<path d="M-3.23 595.28 L-3.23 613.28 L-10.94 613.28 L-10.94 675.64" class="st8"/>
		</g>
		<g id="shape21-31" v:mID="21" v:groupContext="shape" v:layerMember="0" transform="translate(198.425,-481.89)">
			<title>Dynamische verbindingslijn.21</title>
			<path d="M7.09 595.28 L7.09 675.64" class="st8"/>
		</g>
		<g id="shape22-36" v:mID="22" v:groupContext="shape" v:layerMember="0" transform="translate(262.205,-505.984)">
			<title>Dynamische verbindingslijn</title>
			<path d="M0 595.28 L40.75 595.28 L40.75 638.02 L217.65 638.02 L217.65 699.73" class="st8"/>
		</g>
		<g id="shape24-41" v:mID="24" v:groupContext="shape" v:layerMember="0" transform="translate(276.053,-365.999)">
			<title>Dynamische verbindingslijn.24</title>
			<path d="M0 588.19 L148.77 588.19" class="st8"/>
		</g>
		<g id="shape28-46" v:mID="28" v:groupContext="shape" transform="translate(337.869,-377.008)">
			<title>Blad.28</title>
			<desc>= 0</desc>
			<v:textBlock v:margins="rect(4,4,4,4)" v:tabSpace="42.5197"/>
			<v:textRect cx="15.5905" cy="588.189" width="31.19" height="14.1732"/>
			<rect x="0" y="581.102" width="31.1811" height="14.1732" class="st10"/>
			<text x="8.2" y="591.79" class="st11" v:langID="2067"><v:paragraph v:horizAlign="1"/><v:tabList/>= 0</text>		</g>
		<g id="group29-49" transform="translate(154.971,-261.338)" v:mID="29" v:groupContext="group">
			<v:userDefs>
				<v:ud v:nameU="visVersion" v:prompt="" v:val="VT0(15):26"/>
			</v:userDefs>
			<title>Status met intern gedrag.29</title>
			<g id="shape29-50" v:mID="29" v:groupContext="groupContent">
				<rect x="0" y="550.472" width="101.081" height="44.8037" rx="8.50394" ry="8.50394" class="st3"/>
			</g>
			<g id="shape30-52" v:mID="30" v:groupContext="shape" transform="translate(0,-22.4)">
				<title>Blad.30</title>
				<desc>Stuur afwijking bij</desc>
				<v:userDefs>
					<v:ud v:nameU="UmlRole" v:prompt="" v:val="VT4(Title)"/>
				</v:userDefs>
				<v:textBlock v:margins="rect(4,4,4,4)" v:tabSpace="42.5197"/>
				<v:textRect cx="50.5404" cy="584.074" width="101.09" height="22.4037"/>
				<path d="M8.5 595.28 L92.58 595.28 A8.50394 8.50394 -180 0 0 101.08 586.77 L101.08 581.38 A8.50394 8.50394 -180 0
							 0 92.58 572.87 L8.5 572.87 A8.50394 8.50394 -180 0 0 0 581.38 L0 586.77 A8.50394 8.50394 -180 0 0 8.5
							 595.28 Z" class="st4"/>
				<text x="5.36" y="587.67" class="st5" v:langID="2067"><v:paragraph v:horizAlign="1"/><v:tabList/>Stuur afwijking bij</text>			</g>
			<g id="shape31-55" v:mID="31" v:groupContext="shape">
				<title>Blad.31</title>
				<v:userDefs>
					<v:ud v:nameU="UmlRole" v:prompt="" v:val="VT4(Body)"/>
				</v:userDefs>
				<path d="M8.5 595.28 L92.58 595.28 A8.50394 8.50394 -180 0 0 101.08 586.77 L101.08 581.38 A8.50394 8.50394 -180 0
							 0 92.58 572.88 L8.5 572.88 A8.50394 8.50394 -180 0 0 0 581.38 L0 586.77 A8.50394 8.50394 -180 0 0 8.5
							 595.28 Z" class="st6"/>
			</g>
		</g>
		<g id="shape32-57" v:mID="32" v:groupContext="shape" v:layerMember="0" transform="translate(198.425,-350.682)">
			<title>Dynamische verbindingslijn.32</title>
			<path d="M7.09 595.28 L7.09 633.78" class="st8"/>
		</g>
		<g id="shape34-62" v:mID="34" v:groupContext="shape" transform="translate(314.346,-167.244)">
			<title>Vak.34</title>
			<desc>Motoren</desc>
			<v:userDefs>
				<v:ud v:nameU="visVersion" v:val="VT0(15):26"/>
			</v:userDefs>
			<v:textBlock v:margins="rect(4,4,4,4)" v:tabSpace="42.5197"/>
			<v:textRect cx="64.2466" cy="565.512" width="128.5" height="59.5276"/>
			<rect x="0" y="535.748" width="128.493" height="59.5276" class="st1"/>
			<text x="10" y="574.51" class="st2" v:langID="2067"><v:paragraph v:horizAlign="1"/><v:tabList/>Motoren</text>		</g>
		<g id="shape35-65" v:mID="35" v:groupContext="shape" v:layerMember="0" transform="translate(205.512,-261.338)">
			<title>Dynamische verbindingslijn.35</title>
			<path d="M0 595.28 L0 613.28 L173.08 613.28 L173.08 623.8" class="st8"/>
		</g>
		<g id="shape36-70" v:mID="36" v:groupContext="shape" transform="translate(175.748,-323.15)">
			<title>Blad.36</title>
			<desc>!=0</desc>
			<v:textBlock v:margins="rect(4,4,4,4)" v:tabSpace="42.5197"/>
			<v:textRect cx="14.8819" cy="586.772" width="29.77" height="17.0079"/>
			<rect x="0" y="578.268" width="29.7638" height="17.0079" class="st10"/>
			<text x="6.9" y="590.37" class="st11" v:langID="2067"><v:paragraph v:horizAlign="1"/><v:tabList/>!=0</text>		</g>
		<g id="group37-73" transform="translate(328.052,-261.338)" v:mID="37" v:groupContext="group">
			<v:userDefs>
				<v:ud v:nameU="visVersion" v:prompt="" v:val="VT0(15):26"/>
			</v:userDefs>
			<title>Status met intern gedrag.37</title>
			<g id="shape37-74" v:mID="37" v:groupContext="groupContent">
				<rect x="0" y="550.472" width="101.081" height="44.8037" rx="8.50394" ry="8.50394" class="st3"/>
			</g>
			<g id="shape38-76" v:mID="38" v:groupContext="shape" transform="translate(0,-22.4)">
				<title>Blad.38</title>
				<desc>Stuur afwijking bij</desc>
				<v:userDefs>
					<v:ud v:nameU="UmlRole" v:prompt="" v:val="VT4(Title)"/>
				</v:userDefs>
				<v:textBlock v:margins="rect(4,4,4,4)" v:tabSpace="42.5197"/>
				<v:textRect cx="50.5404" cy="584.074" width="101.09" height="22.4037"/>
				<path d="M8.5 595.28 L92.58 595.28 A8.50394 8.50394 -180 0 0 101.08 586.77 L101.08 581.38 A8.50394 8.50394 -180 0
							 0 92.58 572.87 L8.5 572.87 A8.50394 8.50394 -180 0 0 0 581.38 L0 586.77 A8.50394 8.50394 -180 0 0 8.5
							 595.28 Z" class="st4"/>
				<text x="5.36" y="587.67" class="st5" v:langID="2067"><v:paragraph v:horizAlign="1"/><v:tabList/>Stuur afwijking bij</text>			</g>
			<g id="shape39-79" v:mID="39" v:groupContext="shape">
				<title>Blad.39</title>
				<v:userDefs>
					<v:ud v:nameU="UmlRole" v:prompt="" v:val="VT4(Body)"/>
				</v:userDefs>
				<path d="M8.5 595.28 L92.58 595.28 A8.50394 8.50394 -180 0 0 101.08 586.77 L101.08 581.38 A8.50394 8.50394 -180 0
							 0 92.58 572.88 L8.5 572.88 A8.50394 8.50394 -180 0 0 0 581.38 L0 586.77 A8.50394 8.50394 -180 0 0 8.5
							 595.28 Z" class="st6"/>
			</g>
		</g>
		<g id="group40-81" transform="translate(501.133,-261.338)" v:mID="40" v:groupContext="group">
			<v:userDefs>
				<v:ud v:nameU="visVersion" v:prompt="" v:val="VT0(15):26"/>
			</v:userDefs>
			<title>Provincie</title>
			<g id="shape40-82" v:mID="40" v:groupContext="groupContent">
				<rect x="0" y="550.472" width="94.6533" height="44.8037" rx="8.50394" ry="8.50394" class="st3"/>
			</g>
			<g id="shape41-84" v:mID="41" v:groupContext="shape" transform="translate(0,-22.4)">
				<title>Blad.41</title>
				<desc>Rechtdoor rijden</desc>
				<v:userDefs>
					<v:ud v:nameU="UmlRole" v:prompt="" v:val="VT4(Title)"/>
				</v:userDefs>
				<v:textBlock v:margins="rect(4,4,4,4)" v:tabSpace="42.5197"/>
				<v:textRect cx="47.3267" cy="584.074" width="94.66" height="22.4037"/>
				<path d="M8.5 595.28 L86.15 595.28 A8.50394 8.50394 -180 0 0 94.65 586.77 L94.65 581.38 A8.50394 8.50394 -180 0 0
							 86.15 572.87 L8.5 572.87 A8.50394 8.50394 -180 0 0 0 581.38 L0 586.77 A8.50394 8.50394 -180 0 0 8.5
							 595.28 Z" class="st4"/>
				<text x="5.36" y="587.67" class="st5" v:langID="2067"><v:paragraph v:horizAlign="1"/><v:tabList/>Rechtdoor rijden</text>			</g>
			<g id="shape42-87" v:mID="42" v:groupContext="shape">
				<title>Blad.42</title>
				<v:userDefs>
					<v:ud v:nameU="UmlRole" v:prompt="" v:val="VT4(Body)"/>
				</v:userDefs>
				<path d="M8.5 595.28 L86.15 595.28 A8.50394 8.50394 -180 0 0 94.65 586.77 L94.65 581.38 A8.50394 8.50394 -180 0 0
							 86.15 572.88 L8.5 572.88 A8.50394 8.50394 -180 0 0 0 581.38 L0 586.77 A8.50394 8.50394 -180 0 0 8.5
							 595.28 Z" class="st6"/>
			</g>
		</g>
		<g id="shape43-89" v:mID="43" v:groupContext="shape" v:layerMember="0" transform="translate(479.851,-350.682)">
			<title>Dynamische verbindingslijn.43</title>
			<path d="M0 595.28 L0 604.28 L-101.26 604.28 L-101.26 633.78" class="st8"/>
		</g>
		<g id="shape44-94" v:mID="44" v:groupContext="shape" v:layerMember="0" transform="translate(479.851,-350.682)">
			<title>Dynamische verbindingslijn.44</title>
			<path d="M0 595.28 L0 604.28 L68.61 604.28 L68.61 633.78" class="st8"/>
		</g>
		<g id="shape45-99" v:mID="45" v:groupContext="shape" transform="translate(552.756,-317.48)">
			<title>Blad.45</title>
			<desc>= 0</desc>
			<v:textBlock v:margins="rect(4,4,4,4)" v:tabSpace="42.5197"/>
			<v:textRect cx="15.5905" cy="588.189" width="31.19" height="14.1732"/>
			<rect x="0" y="581.102" width="31.1811" height="14.1732" class="st10"/>
			<text x="8.2" y="591.79" class="st11" v:langID="2067"><v:paragraph v:horizAlign="1"/><v:tabList/>= 0</text>		</g>
		<g id="shape46-102" v:mID="46" v:groupContext="shape" transform="translate(342.283,-314.646)">
			<title>Blad.46</title>
			<desc>!=0</desc>
			<v:textBlock v:margins="rect(4,4,4,4)" v:tabSpace="42.5197"/>
			<v:textRect cx="14.8819" cy="586.772" width="29.77" height="17.0079"/>
			<rect x="0" y="578.268" width="29.7638" height="17.0079" class="st10"/>
			<text x="6.9" y="590.37" class="st11" v:langID="2067"><v:paragraph v:horizAlign="1"/><v:tabList/>!=0</text>		</g>
		<g id="shape47-105" v:mID="47" v:groupContext="shape" v:layerMember="0" transform="translate(371.506,-261.338)">
			<title>Dynamische verbindingslijn.47</title>
			<path d="M7.09 595.28 L7.09 623.8" class="st8"/>
		</g>
		<g id="shape48-110" v:mID="48" v:groupContext="shape" v:layerMember="0" transform="translate(548.46,-261.338)">
			<title>Dynamische verbindingslijn.48</title>
			<path d="M0 595.28 L0 613.28 L-169.87 613.28 L-169.87 623.8" class="st8"/>
		</g>
	</g>
</svg>
